<?xml version="1.0" encoding="UTF-8"?><svg id="_レイヤー_2" xmlns="http://www.w3.org/2000/svg" viewBox="0 0 256 256"><defs><style>.cls-1{fill:#005c3f;}.cls-1,.cls-2,.cls-3{stroke-width:0px;}.cls-2{fill:#a47a43;}.cls-3{fill:#7bbd34;}</style></defs><g id="text"><circle class="cls-1" cx="128" cy="128" r="128" transform="translate(-53.02 128) rotate(-45)"/><path class="cls-3" d="M251.88,160.32c0-62.02-83.75-106.59-83.75-106.59,0,0-83.94,45.27-83.94,112.23,0,45.57,26.12,73.06,66.49,87.99,49.25-8.81,88.75-45.76,101.2-93.64Z"/><path class="cls-2" d="M128,0C108.26,0,89.6,4.25,72.7,12.53c44.44,12.3,95.43,41.2,95.43,41.2,0,0,11.92-6.18,24.89-10.3,7.51-2.39,16.88-4.49,25.28-6.14C195.14,14.25,163.24,0,128,0Z"/></g></svg>