<?xml version="1.0" encoding="UTF-8"?><svg id="_レイヤー_2" xmlns="http://www.w3.org/2000/svg" xmlns:xlink="http://www.w3.org/1999/xlink" viewBox="0 0 255.35 318.49"><defs><style>.cls-1{fill:none;}.cls-1,.cls-2{stroke-width:0px;}.cls-3{opacity:.4;}.cls-4{clip-path:url(#clippath);}.cls-2{fill:#fff;}</style><clipPath id="clippath"><rect class="cls-1" width="255.35" height="318.49"/></clipPath></defs><g id="object"><g class="cls-3"><g class="cls-4"><path class="cls-2" d="M157.38,39.69c-66,0-119.7,53.7-119.7,119.71s53.7,119.7,119.7,119.7,119.7-53.7,119.7-119.7-53.7-119.71-119.7-119.71ZM79.07,82.81c5.81-5.96,12.29-11.27,19.32-15.79,2.11-1.36,6.49-.81,6.49,2.85v9.33c0,4.46-4.12,9.14-9.14,9.14h-14.82c-3.9,0-3.59-3.74-1.84-5.53ZM258.24,178.02c-11.97-4.48-31.46-12.94-50.81-25.4-4.62-2.97-12.28-8.53-19.54-13.8-10.32-7.48-15.48-11.17-18.23-12.73-.58-.33-3.19-1.06-5.04-1.06h-16.48c-1.84,0-4.14.72-4.67,1.02-2.65,1.51-7.18,5-16.26,12.11-5.69,4.46-11.68,9.17-15.93,12.15-11.7,8.2-41.03,19.48-41.33,19.59-2.59.99-3.89,3.9-2.9,6.49,1,2.59,3.89,3.89,6.49,2.9,1.25-.48,30.8-11.83,43.51-20.75,4.37-3.07,10.53-7.89,16.36-12.47.86-.67,1.81-1.41,2.74-2.14,0,0,6.4-5.21,10.43-5.21,4.37,0,5.89,3.22,9.99,3.22s6.55-3.22,10.45-3.22c2.91,0,10.77,5.19,10.77,5.19,1.42,1.03,2.85,2.06,4.21,3.04,7.43,5.38,15.27,11.07,20,14.11,20.69,13.32,41.14,22.06,53.44,26.66,3.79,1.41,6.02,6.26,4.95,9.06-5.41,14.06-13.13,26.99-23.3,37.7-1.72,1.81-6.66,2.42-9.21,1.03-3.36-1.84-7.44-4.46-11.72-7.84-10.74-8.48-19.48-17.73-19.56-17.81-1.91-2.02-5.09-2.1-7.12-.22-2.02,1.9-2.11,5.09-.21,7.11.38.4,9.32,9.86,20.65,18.81,3.1,2.45,6.12,4.53,8.88,6.26,2.31,1.45,1.59,7.2-.87,8.84-17.36,11.58-38.16,18.38-60.55,18.38s-43.49-6.9-60.93-18.63c-2.32-1.56-1.84-7.67,1.06-9.57,2.33-1.52,4.8-3.27,7.34-5.27,11.33-8.95,20.28-18.41,20.65-18.81,1.9-2.02,1.81-5.21-.21-7.11-2.03-1.89-5.21-1.81-7.12.22-.08.09-8.83,9.33-19.56,17.81-3.82,3.02-7.53,5.35-10.62,7.22-3.44,2.07-10.14-.11-12.64-2.94-17.13-19.36-27.61-44.73-27.61-72.56,0-20.67,5.75-40.01,15.73-56.52.92-1.52,5.09-4.48,8.23-4.48h24.04c4.92,0,9.14,4.99,9.14,9.14v20.81c0,2.78,2.25,5.03,5.03,5.03s5.03-2.25,5.03-5.03v-20.81c0-4.15,4.39-9.14,9.14-9.14h20.41c2.78,0,5.03-2.25,5.03-5.03s-2.25-5.03-5.03-5.03h-20.41c-5.16,0-9.14-4.68-9.14-9.14v-14.92c0-3.39,4.27-7.71,6.47-8.47,11.27-3.93,23.37-6.07,35.97-6.07s24.31,2.09,35.43,5.88c5.14,1.75,9.94,3.11,9.94,7.87v10.63h4.22v-7.16c0-4.89,6.78-1.61,8.56-.49,7.46,4.7,14.3,10.28,20.4,16.58,1.4,1.44.81,5.28-2.19,5.28h-63.47c-2.78,0-5.03,2.25-5.03,5.03s2.25,5.03,5.03,5.03h72.16c3.42,0,7.93,2.93,8.84,4.44,9.99,16.52,15.75,35.88,15.75,56.56,0,4.8-.33,9.53-.95,14.17-.31,2.32-4.39,5.75-7.84,4.46Z"/><path class="cls-2" d="M101.68,192.71h41.53c4.1,0,9.14,3.78,9.14,9.14v47.47c0,2.78,2.25,5.03,5.03,5.03s5.03-2.26,5.03-5.03v-47.47c0-4.11,4.11-9.14,9.14-9.14h41.54c2.78,0,5.03-2.26,5.03-5.03s-2.25-5.03-5.03-5.03h-41.54c-5.02,0-9.14-4.42-9.14-9.14v-7.6c0-2.78-2.25-5.03-5.03-5.03s-5.03,2.26-5.03,5.03v7.6c0,4.82-4.51,9.14-9.14,9.14h-41.53c-2.78,0-5.03,2.26-5.03,5.03s2.25,5.03,5.03,5.03Z"/><path class="cls-2" d="M202.75,129.85c0,1.52.94,2.41,2.11,2.41s2.11-.87,2.11-2.4v-17.53h-4.22v17.53Z"/><path class="cls-2" d="M157.38,4.71C72.09,4.71,2.7,74.1,2.7,159.39s69.39,154.68,154.68,154.68,154.68-69.39,154.68-154.68S242.67,4.71,157.38,4.71ZM157.38,292.91c-73.74,0-133.52-59.78-133.52-133.52S83.64,25.88,157.38,25.88s133.51,59.78,133.51,133.52-59.78,133.52-133.51,133.52Z"/></g></g></g></svg>