<?xml version="1.0" encoding="UTF-8"?><svg id="_レイヤー_2" xmlns="http://www.w3.org/2000/svg" viewBox="0 0 32.57 335.1"><defs><style>.cls-1{fill:#fff;stroke-width:0px;}</style></defs><g id="text"><path class="cls-1" d="M32.16,15.37c0,.24-.17.44-.75.44h-3.91c.03,2.18.1,4.79.2,6.32v.07c0,.61-.54.95-1.05.95-.41,0-.78-.24-.78-.82v-.85h-3.5c0,.58.03,1.19.03,1.87,0,.14.17,2.82.17,3.57,0,2.55-2.52,3.33-3.43,3.33-.2,0-.27-.14-.34-.34-.27-.68-3.26-1.97-3.26-2.24,0-.03.03-.07.14-.07s.27.03.48.07c1.26.2,2.24.37,2.99.37,1.09,0,1.63-.34,1.67-1.22.07-1.77.1-3.57.1-5.34-1.33,0-1.7.07-4.08.31h-.03c-.54,0-1.36-1.36-1.36-1.67,2.69.34,4.01.48,5.47.51,0-1.73,0-3.4-.03-4.83-1.53,0-2.28.03-4.83.31h-.03c-.54,0-1.43-1.29-1.43-1.63,2.86.37,4.66.48,6.26.48,0-.71-.03-1.36-.03-1.94,0-.61,0-1.73-.1-2.52-.61,0-1.39.07-3.23.27h-.03c-.51,0-1.22-1.02-1.33-1.43-.37.37-.71.68-.99.88.1.07,1.26.88,1.26,1.46,0,.2-.17.41-.75.41h-7.51c-1.87,0-2.99.03-6.02.31h-.03c-.65,0-1.36-1.33-1.36-1.63,3.16.37,5.27.48,7.1.48.03-1.19.03-1.94.03-2.69-1.36,0-1.73.03-4.18.27h-.03c-.54,0-1.43-1.22-1.43-1.56,2.75.34,4.15.44,5.64.44v-2.55c-1.8,0-2.04.03-5.03.31h-.03c-.65,0-1.39-1.33-1.39-1.63,3.3.37,4.62.48,6.46.48-.03-1.09-.14-2.75-.44-3.91,0-.07-.03-.1-.03-.17s.03-.1.1-.1c.41,0,3.06.41,3.06,1.05,0,.27-.31.58-.68.75-.24.14-.41.34-.44.82l-.07,1.56h1.94c.1,0,.37-.1.48-.27.34-.58.65-.88.92-1.22.07-.07.2-.1.31-.1s.17.03.24.03c.78.31,2.11,1.26,2.11,2.01,0,.2-.17.41-.68.41h-5.34c-.03.82-.07,1.7-.07,2.55h1.63c.1,0,.34-.1.44-.27.34-.65.48-.78.78-1.12.07-.07.14-.1.24-.1.07,0,.14.03.2.03.61.24,1.94,1.29,1.94,1.87,0,.2-.14.44-.71.44h-4.52v2.69h2.75c.1,0,.37-.1.48-.27.34-.51.99-1.33,1.39-1.33.07,0,.17.03.24.03.17.07.41.17.65.31,2.99-3.43,4.79-7.89,4.79-9.62,0-.37.07-.37.07-.37.07,0,.14.03.24.07.03,0,1.36.58,2.14.99.2.1.34.27.34.44,0,.27-.27.54-.95.71-.51.1-.48.34-.65.71l-.2.41h2.92c.31,0,.34-.07.51-.27.2-.2.31-.44.44-.54.1-.07.17-.1.24-.1.31,0,2.01,1.22,2.01,1.87,0,.2-.14.37-.41.48-.37.17-.54,0-1.05.65-.58.78-2.28,2.99-3.33,4.25h3.23c.17,0,.34-.07.48-.2.54-.65.78-.85,1.02-.85.31,0,1.84.99,2.18,1.46.14.17.17.31.17.44,0,.44-.58.65-.88.82-.54.27-.51.24-.54,1.12-.03.51-.03,1.43-.03,2.52h.41c.1,0,.34-.1.44-.27,1.02-1.6,1.09-1.63,1.33-1.63.1,0,.17.03.24.03.85.31,2.28,1.8,2.28,2.28ZM14.18,15.3c0,.44-.51.65-.68.82-.58.41-.58.44-.58,8.09,0,.44.17,1.94.17,2.52-.03,3.06-2.04,3.5-2.92,3.5-.24,0-.27-.1-.41-.34-.58-.82-2.75-2.07-2.75-2.35,0-.03.07-.07.14-.07.03,0,.1.03.17.03.95.14,1.94.41,2.72.41s1.36-.27,1.43-1.26c.03-.65.03-2.14.03-3.81h-5.85c0,2.14.07,4.52.14,6.49v.03c0,.68-.54,1.05-1.02,1.05-.37,0-.71-.24-.71-.71v-.03c.1-3.37.17-6.12.17-8.53,0-4.76-.27-6.66-.44-7.34-.03-.14-.07-.2-.07-.24s0-.03.03-.03c.1,0,1.67.61,2.41,1.05h4.73c.17,0,.37-.14.48-.31.14-.24.44-.65.58-.71.03-.03.1-.03.17-.03.14,0,2.07.92,2.07,1.77ZM11.46,15.81v-.03c0-.1-.03-.27-.34-.27h-4.86s-.03,0-.03.03c-.51.37-.51.34-.54,1.5,0,.31-.03.75-.03,1.36h5.85c0-1.05-.03-1.97-.03-2.58ZM11.49,19.28h-5.85v2.69h5.85v-2.69ZM23.7,4.39c0-.07-.03-.14-.24-.14h-3.4c-1.26,2.21-2.72,3.94-3.84,5.03,2.75.34,4.18.37,5.17.37.51-1.05,2.31-4.93,2.31-5.27ZM22.4,15.81c-.03,1.67-.03,3.13-.03,4.83h3.54c.03-1.53.03-3.23.03-4.83h-3.54ZM25.87,10.81s-.07-.31-.41-.31h-2.07c.07.03.1.1.1.14,0,.14-.14.24-.34.34-.68.34-.65.27-.68,1.53,0,.92-.03,1.7-.03,2.45h3.5c0-1.73,0-3.26-.07-4.15Z"/><path class="cls-1" d="M3.6,66.67c.31-3.74.44-9.79.44-15.26,0-2.99-.07-10.64-.54-12.99-.03-.1-.03-.17-.03-.24s.03-.1.07-.1c.2,0,2.35.85,3.13,1.43l.14.07h18.6c.14,0,.31-.1.48-.31.24-.31.82-.95,1.16-.95.27,0,2.75,1.19,2.75,2.07,0,.41-.51.71-1.09.99-.65.31-.71.34-.71,4.39s.14,10.23.17,13.56c.03,1.7.14,2.11.14,3.16,0,4.22-3.64,4.79-4.56,4.79-.24,0-.41-.07-.61-.27-.61-.71-4.79-2.28-4.79-2.52,0-.03.07-.07.14-.07.1,0,.24.03.44.07,1.97.34,3.43.51,4.56.51,2.21,0,2.92-.71,2.92-2.31.03-4.25.07-8.43.07-12.07,0-4.11-.03-7.55-.17-9.72,0-.14-.2-.41-.41-.41H6.56l-.17.14c-.58.37-.68.51-.68,1.22v1.67c0,3.5-.14,11.63-.14,18.22,0,1.73,0,3.33.03,4.73,0,.48-.37,1.16-1.26,1.16-.41,0-.75-.24-.75-.82v-.14ZM20.33,61.06c.03-.24.03-.48.03-.71v-.68h-9.25v2.28c0,.54-.54.88-1.02.88-.37,0-.68-.2-.68-.71v-.1c.17-2.52.31-4.08.31-5.88,0-1.39-.17-3.3-.41-4.59,0-.07-.03-.14-.03-.17,0-.07.03-.1.07-.1.24,0,3.3.71,3.3,1.39,0,.2-.17.37-.48.58-.78.51-.85.07-.99,1.8-.07.65-.07.95-.07,3.67h3.88c0-1.97.03-4.08.07-6.32,0-.99-.07-1.87-.17-3.09-1.8,0-3.98.03-6.73.31h-.03c-.54,0-1.46-1.29-1.46-1.63,3.5.37,7.17.48,9.15.48h.95c2.01-3.64,2.35-5.2,2.52-6.6.03-.27,0-.37.07-.37.03,0,.1,0,.2.03.03.03,1.8.82,2.45,1.26.2.14.31.27.31.41,0,.2-.27.37-.95.44-.51.07-.51.2-.75.58-.71,1.02-1.77,2.62-3.06,4.25h3.6c.1,0,.37-.1.48-.27.37-.58,1.16-1.46,1.43-1.46.07,0,.14.03.2.03,1.26.48,2.58,1.7,2.58,2.18,0,.2-.17.37-.75.37h-7.51c.2.07.31.17.31.27,0,.17-.24.37-.61.51-.51.2-.51.17-.58,1.8-.07,2.18-.07,3.47-.07,6.83h3.81c.03-.58.03-1.12.03-1.67,0-2.45-.14-3.98-.37-5.24-.03-.1-.03-.17-.03-.24s.03-.1.1-.1c.24,0,3.26.65,3.26,1.46,0,.17-.17.37-.48.58-.78.51-.85.03-.95,1.8-.03.34-.03.68-.03,1.05,0,1.33.14,2.79.2,4.56,0,.51-.37,1.12-1.09,1.12-.41,0-.75-.27-.75-.92v-.07ZM12.51,46.14c-.24-.99-1.05-2.55-1.87-3.43-.2-.2-.31-.31-.31-.34s.03-.03.07-.03c.71,0,4.39,1.56,4.39,3.57,0,.82-.58,1.39-1.19,1.39-.44,0-.88-.34-1.09-1.16Z"/><path class="cls-1" d="M32.57,90.61c0,.37-2.45,1.43-2.86,2.07-.07.1-.14.14-.2.14-1.16,0-8.53-4.15-13.7-10.64l-.14.17c-7.28,9.01-14.41,11.29-15.5,11.29-.1,0-.17,0-.17-.07,0-.03.14-.17.44-.31,4.05-1.97,9.25-5.92,13.56-12.03.44-.61.78-1.46.95-1.94.03-.14.07-.27.14-.27.03,0,.07.03.1.1.07.07,2.04,1.26,2.38,1.87.03.07.07.17.07.24,0,.27-.24.51-.99.51h-.37c2.28,3.09,10.4,8.6,15.91,8.74.27,0,.37.07.37.14ZM12.44,96.25c0,.14-.14.24-.41.24-.14,0-.34-.03-.54-.07-.1,0-.17-.03-.24-.03-.2,0-.31.1-.61.41-3.2,2.99-8.67,5.47-9.69,5.47-.1,0-.17-.03-.17-.07,0-.1.14-.24.51-.41,2.92-1.33,8.02-5.27,8.53-7.34.03-.17.03-.31.17-.31,0,0,2.45,1.6,2.45,2.11ZM30.39,77.89c0,.2-.17.37-.71.37h-8.77c.03.95.1,1.9.14,2.38v.07c0,.54-.48.85-.92.85-.37,0-.71-.24-.71-.78v-2.52h-7.04c.03,1.12.07,2.28.07,2.65,0,.48-.54.78-.99.78-.34,0-.65-.17-.65-.58v-.07c.03-.54.07-1.67.07-2.75-2.45.03-5.88.1-8.06.34h-.03c-.61,0-1.56-1.29-1.56-1.73,2.55.31,6.83.44,9.66.51,0-.78.03-1.43.03-1.63,0-.17-.07-1.53-.24-2.45,0-.07-.03-.14-.03-.17,0-.07.03-.1.1-.1.27,0,2.82.37,2.82,1.16,0,.17-.1.34-.51.51-.51.2-.65.37-.71,1.26v1.46h7.07v-1.56c0-.17-.03-1.43-.24-2.55,0-.07-.03-.14-.03-.17,0-.07.03-.1.1-.1.27,0,2.82.37,2.82,1.16,0,.17-.1.34-.51.51-.51.2-.68.37-.68,1.26,0,.31,0,.85.03,1.46h4.22c.2,0,.44-.14.54-.31.17-.27,1.22-1.84,1.77-1.84.07,0,.14,0,.2.03,1.12.41,2.75,2.07,2.75,2.55ZM23.73,91.76c0,.2-.17.37-.75.37h-6.39c0,3.54.03,7.07.1,10.33v.03c0,.65-.54,1.05-1.02,1.05-.41,0-.75-.27-.75-.92.03-1.94.14-6.9.17-10.51-1.7,0-5.37.2-6.53.34h-.03c-.54,0-1.46-1.12-1.46-1.56v-.03c2.18.31,6.22.44,8.02.44v-1.09c0-1.05,0-1.84-.27-2.96v-.03c0-.14.1-.2.2-.2h.07c.54.07,2.58.37,2.58.78,0,.2-.27.41-.37.48-.65.41-.68.1-.68,1.67,0,.44-.03.92-.03,1.36h2.24c.24,0,.34-.1.48-.27.31-.37,1.22-1.46,1.63-1.46.1,0,.17.03.24.03,1.5.54,2.55,1.84,2.55,2.14ZM26.89,99.86c0,.71-.48,1.33-1.02,1.33-.37,0-.75-.27-1.05-.88-.88-1.77-3.64-3.88-5.88-5.47-.07-.03-.07-.07-.07-.1s.03-.07.1-.07c0,0,5.78,1.63,7.58,4.15.24.34.34.71.34,1.05Z"/><path class="cls-1" d="M16.75,115.82c0,7.44-5.79,13.92-8.23,13.92-1.44,0-1.88-1.94-3.22-3.82-.5-.69-.72-1.69-.72-2.82,0-4.72,4.13-12.23,12.51-12.23,7.07,0,10.6,4.91,10.6,9.98,0,9.67-11.04,12.2-13.23,12.2-.28,0-.44-.06-.44-.12,0-.16.5-.41,1.31-.66,8.88-2.5,10.67-7.85,10.67-11.57,0-4.57-3.03-8.85-9.23-8.92-.41,0-.81.06-1.22.09.78.44,1.19,1.97,1.19,3.94ZM5.96,122.61c0,2.63,1.53,4.91,2.91,4.91,1.91,0,6.94-6.29,6.94-12.48,0-2.44-.56-2.91-1.25-2.91-.25,0-.5.06-.88.16-4.5,1.41-7.73,6.22-7.73,10.32Z"/><path class="cls-1" d="M14.38,158.7c0,.37-.1,1.33-1.67,1.33-1.19,0-2.55-.71-3.4-1.46-3.16-2.69-3.81-5.95-3.81-9.48,0-1.29.1-2.62.17-3.94.03-.34.03-.68.03-.99,0-.65-.03-1.19-.14-1.73,0-.1-.03-.17-.03-.24,0-.2.07-.31.2-.31.07,0,1.97.48,1.97,2.86,0,.41-.07.82-.14,1.16-.27,1.16-.51,2.75-.51,4.42,0,6.39,3.84,7.14,4.28,7.14.54,0,.88-.31,1.12-.71.68-1.19,1.46-3.3,2.04-4.62.31-.68.44-.92.51-.92s.07.07.07.2c0,.27-.1.78-.14.95-.14.85-.54,2.35-.71,4.45v.37c0,.61.1.99.14,1.43v.1ZM26.58,151.93c-.27-3.16-2.48-5.85-5.47-6.6-1.02-.24-1.5-.48-1.5-.61,0-.1.24-.17.65-.17,4.62,0,8.43,3.77,8.43,7,0,1.05-.58,1.6-1.12,1.6-.48,0-.92-.41-.99-1.22Z"/><path class="cls-1" d="M14.38,187.94c0,.37-.1,1.33-1.67,1.33-1.19,0-2.55-.71-3.4-1.46-3.16-2.69-3.81-5.95-3.81-9.49,0-1.29.1-2.62.17-3.94.03-.34.03-.68.03-.99,0-.65-.03-1.19-.14-1.73,0-.1-.03-.17-.03-.24,0-.2.07-.31.2-.31.07,0,1.97.48,1.97,2.86,0,.41-.07.82-.14,1.16-.27,1.16-.51,2.75-.51,4.42,0,6.39,3.84,7.14,4.28,7.14.54,0,.88-.31,1.12-.71.68-1.19,1.46-3.3,2.04-4.62.31-.68.44-.92.51-.92s.07.07.07.2c0,.27-.1.78-.14.95-.14.85-.54,2.35-.71,4.45v.37c0,.61.1.99.14,1.43v.1ZM26.58,181.17c-.27-3.16-2.48-5.85-5.47-6.6-1.02-.24-1.5-.48-1.5-.61,0-.1.24-.17.65-.17,4.62,0,8.43,3.77,8.43,7,0,1.05-.58,1.6-1.12,1.6-.48,0-.92-.41-.99-1.22Z"/><path class="cls-1" d="M18.63,213.13c-2.89,0-7.45,2.82-7.45,5.98,0,1.67,1.16,4.11,5.51,4.11,1.53,0,3.26-.31,4.69-1.05.34-.17.65-.24.92-.24.71,0,1.19.44,1.19.99,0,1.36-3.2,2.21-5.98,2.21-6.05,0-7.65-3.88-7.65-5.71,0-2.79,2.48-5.64,6.15-7.28-1.8-.82-2.28-2.72-2.28-4.73,0-1.8.37-3.74.54-5.1.1-.85.17-1.56.17-2.11,0-1.29-.44-1.87-2.07-2.21-.17-.03-.31-.17-.31-.34,0-.31.54-.82,1.29-.82,1.33,0,3.09,1.6,3.09,3.16,0,.61-.2,1.26-.34,1.94-.34,1.53-.99,3.91-.99,5.78,0,2.07.85,3.33,2.79,3.71,1.53-.54,1.9-.61,2.52-.61,1.16,0,1.39.51,1.39.88,0,.65-.82,1.46-2.45,1.46-.14,0-.31-.03-.44-.03h-.31Z"/><path class="cls-1" d="M17.1,256.24c-5.17,0-9.59-2.31-9.59-5.27,0-1.46,1.33-3.13,1.8-3.13.1,0,.14.07.14.2,0,.17-.1.41-.31.71-.44.58-.65,1.12-.65,1.63,0,2.31,3.94,3.91,7.89,3.91.85,0,1.7-.07,2.55-.24,1.8-.34,2.65-.92,3.57-1.09.27-.07.51-.07.75-.07.92,0,1.46.34,1.46.82,0,1.29-3.84,2.52-7.62,2.52ZM14.21,236.18c-3.3-.1-4.69-2.04-4.69-2.28,0-.1.07-.14.17-.14.24,0,.75.2,1.05.31,1.33.51,2.72.61,4.11.61,1.16,0,2.31-.07,3.43-.07.51,0,.95-.07,1.43-.07,1.8,0,2.58.82,2.58,1.33,0,.34-.34.68-1.26.71-1.87.07-4.52,1.7-6.12,2.92-.31.24-.58.34-.78.34-.1,0-.17-.03-.17-.14,0-.2.61-1.02,1.84-2.31.44-.48.68-.75.68-.92s-.17-.24-.58-.24l-1.7-.07Z"/><path class="cls-1" d="M18.63,280.45c-2.89,0-7.45,2.82-7.45,5.98,0,1.67,1.16,4.11,5.51,4.11,1.53,0,3.26-.31,4.69-1.05.34-.17.65-.24.92-.24.71,0,1.19.44,1.19.99,0,1.36-3.2,2.21-5.98,2.21-6.05,0-7.65-3.88-7.65-5.71,0-2.79,2.48-5.64,6.15-7.28-1.8-.82-2.28-2.72-2.28-4.73,0-1.8.37-3.74.54-5.1.1-.85.17-1.56.17-2.11,0-1.29-.44-1.87-2.07-2.21-.17-.03-.31-.17-.31-.34,0-.31.54-.82,1.29-.82,1.33,0,3.09,1.6,3.09,3.16,0,.61-.2,1.26-.34,1.94-.34,1.53-.99,3.91-.99,5.78,0,2.07.85,3.33,2.79,3.71,1.53-.54,1.9-.61,2.52-.61,1.16,0,1.39.51,1.39.88,0,.65-.82,1.46-2.45,1.46-.14,0-.31-.03-.44-.03h-.31ZM23.46,276.03c-.92-1.09-2.14-1.87-3.06-2.38-.2-.1-.51-.24-.51-.31,0-.14.71-.14.75-.14,1.53,0,4.52.68,4.52,2.35,0,.54-.37.95-.85.95-.27,0-.58-.14-.85-.48ZM27.03,274.37c-.95-1.05-2.18-1.8-3.13-2.28-.2-.1-.51-.2-.51-.27,0-.1.54-.14.99-.14,2.79,0,4.32,1.09,4.32,2.18,0,.54-.34.95-.82.95-.27,0-.58-.14-.85-.44Z"/><path class="cls-1" d="M20.47,312.95c0-4.32-1.46-8.43-3.77-8.43-2.01,0-4.01,3.03-4.01,6.87,0,2.07.75,3.6.99,4.15.14.27.17.58.17.88,0,.75-.34,1.43-.82,1.43s-2.11-1.84-2.11-5.44c0-.99.1-2.01.31-2.99.2-1.16,1.22-4.9,1.22-7.31,0-1.02-.17-1.8-.68-2.04-.2-.1-.37-.27-.37-.44,0-.14.48-.48.85-.48.41,0,1.63.41,1.63,2.69,0,.34-.03.75-.1,1.19-.2,1.5-1.05,4.35-1.22,5.24-.03.24-.07.41-.07.48s0,.1.03.1.1-.17.2-.61c.85-3.3,2.69-5,4.52-5,3.47,0,5.07,5.47,5.07,9.72,0,10.91-9.21,16.18-10.57,16.18-.07,0-.14-.03-.14-.07,0-.14.37-.44,1.19-.95,3.91-2.38,7.68-8.47,7.68-15.16Z"/><path class="cls-1" d="M25.67,335.1c-1.85,0-3.38-1.5-3.38-3.35s1.53-3.38,3.38-3.38,3.35,1.53,3.35,3.38-1.5,3.35-3.35,3.35ZM25.67,329.38c-1.3,0-2.37,1.07-2.37,2.37s1.07,2.37,2.37,2.37,2.37-1.07,2.37-2.37-1.07-2.37-2.37-2.37Z"/></g></svg>