<?xml version="1.0" encoding="UTF-8"?><svg id="_レイヤー_2" xmlns="http://www.w3.org/2000/svg" viewBox="0 0 129.12 359.37"><defs><style>.cls-1{fill:#005c3f;stroke-width:0px;}</style></defs><g id="text"><path class="cls-1" d="M128.38,28.02c0,.43-.31.81-1.36.81h-7.13c.06,3.97.19,8.74.37,11.53v.12c0,1.12-.99,1.74-1.92,1.74-.74,0-1.43-.43-1.43-1.49v-1.55h-6.39c0,1.05.06,2.17.06,3.41,0,.25.31,5.15.31,6.51,0,4.65-4.59,6.08-6.26,6.08-.37,0-.5-.25-.62-.62-.5-1.24-5.95-3.6-5.95-4.09,0-.06.06-.12.25-.12s.5.06.87.12c2.29.37,4.09.68,5.46.68,1.98,0,2.98-.62,3.04-2.23.12-3.22.19-6.51.19-9.73-2.42,0-3.1.12-7.44.56h-.06c-.99,0-2.48-2.48-2.48-3.04,4.9.62,7.32.87,9.98.93,0-3.16,0-6.2-.06-8.8-2.79,0-4.15.06-8.8.56h-.06c-.99,0-2.6-2.36-2.6-2.98,5.21.68,8.49.87,11.41.87,0-1.3-.06-2.48-.06-3.53,0-1.12,0-3.16-.19-4.59-1.12,0-2.54.12-5.89.5h-.06c-.93,0-2.23-1.86-2.42-2.6-.68.68-1.3,1.24-1.8,1.61.19.12,2.29,1.61,2.29,2.67,0,.37-.31.74-1.36.74h-13.7c-3.41,0-5.46.06-10.97.56h-.06c-1.18,0-2.48-2.42-2.48-2.98,5.77.68,9.61.87,12.96.87.06-2.17.06-3.53.06-4.9-2.48,0-3.16.06-7.63.5h-.06c-.99,0-2.6-2.23-2.6-2.85,5.02.62,7.56.81,10.29.81v-4.65c-3.29,0-3.72.06-9.18.56h-.06c-1.18,0-2.54-2.42-2.54-2.98,6.01.68,8.43.87,11.78.87-.06-1.98-.25-5.02-.81-7.13,0-.12-.06-.19-.06-.31s.06-.19.19-.19c.74,0,5.58.74,5.58,1.92,0,.5-.56,1.05-1.24,1.36-.43.25-.74.62-.81,1.49l-.12,2.85h3.53c.19,0,.68-.19.87-.5.62-1.05,1.18-1.61,1.67-2.23.12-.12.37-.19.56-.19s.31.06.43.06c1.43.56,3.84,2.29,3.84,3.66,0,.37-.31.74-1.24.74h-9.73c-.06,1.49-.12,3.1-.12,4.65h2.98c.19,0,.62-.19.81-.5.62-1.18.87-1.43,1.43-2.05.12-.12.25-.19.43-.19.12,0,.25.06.37.06,1.12.43,3.53,2.36,3.53,3.41,0,.37-.25.81-1.3.81h-8.25v4.9h5.02c.19,0,.68-.19.87-.5.62-.93,1.8-2.42,2.54-2.42.12,0,.31.06.43.06.31.12.74.31,1.18.56,5.46-6.26,8.74-14.38,8.74-17.54,0-.68.12-.68.12-.68.12,0,.25.06.43.12.06,0,2.48,1.05,3.91,1.8.37.19.62.5.62.81,0,.5-.5.99-1.74,1.3-.93.19-.87.62-1.18,1.3l-.37.74h5.33c.56,0,.62-.12.93-.5.37-.37.56-.81.81-.99.19-.12.31-.19.43-.19.56,0,3.66,2.23,3.66,3.41,0,.37-.25.68-.74.87-.68.31-.99,0-1.92,1.18-1.05,1.43-4.15,5.46-6.08,7.75h5.89c.31,0,.62-.12.87-.37.99-1.18,1.43-1.55,1.86-1.55.56,0,3.35,1.8,3.97,2.67.25.31.31.56.31.81,0,.81-1.05,1.18-1.61,1.49-.99.5-.93.43-.99,2.05-.06.93-.06,2.6-.06,4.59h.74c.19,0,.62-.19.81-.5,1.86-2.91,1.98-2.98,2.42-2.98.19,0,.31.06.43.06,1.55.56,4.15,3.29,4.15,4.15ZM95.58,27.9c0,.81-.93,1.18-1.24,1.49-1.05.74-1.05.81-1.05,14.76,0,.81.31,3.53.31,4.59-.06,5.58-3.72,6.39-5.33,6.39-.43,0-.5-.19-.74-.62-1.05-1.49-5.02-3.78-5.02-4.28,0-.06.12-.12.25-.12.06,0,.19.06.31.06,1.74.25,3.53.74,4.96.74s2.48-.5,2.6-2.29c.06-1.18.06-3.91.06-6.94h-10.66c0,3.91.12,8.25.25,11.84v.06c0,1.24-.99,1.92-1.86,1.92-.68,0-1.3-.43-1.3-1.3v-.06c.19-6.14.31-11.16.31-15.56,0-8.68-.5-12.15-.81-13.39-.06-.25-.12-.37-.12-.43s0-.06.06-.06c.19,0,3.04,1.12,4.4,1.92h8.62c.31,0,.68-.25.87-.56.25-.43.81-1.18,1.05-1.3.06-.06.19-.06.31-.06.25,0,3.78,1.67,3.78,3.22ZM90.62,28.83v-.06c0-.19-.06-.5-.62-.5h-8.87q-.06,0-.06.06c-.93.68-.93.62-.99,2.73,0,.56-.06,1.36-.06,2.48h10.66c0-1.92-.06-3.6-.06-4.71ZM90.68,35.15h-10.66v4.9h10.66v-4.9ZM112.94,8c0-.12-.06-.25-.43-.25h-6.2c-2.29,4.03-4.96,7.19-7.01,9.18,5.02.62,7.63.68,9.42.68.93-1.92,4.22-8.99,4.22-9.61ZM110.59,28.83c-.06,3.04-.06,5.7-.06,8.8h6.45c.06-2.79.06-5.89.06-8.8h-6.45ZM116.91,19.71s-.12-.56-.74-.56h-3.78c.12.06.19.19.19.25,0,.25-.25.43-.62.62-1.24.62-1.18.5-1.24,2.79,0,1.67-.06,3.1-.06,4.46h6.39c0-3.16,0-5.95-.12-7.56Z"/><path class="cls-1" d="M76.3,119.1c.56-6.82.81-17.85.81-27.84,0-5.46-.12-19.4-.99-23.68-.06-.19-.06-.31-.06-.43s.06-.19.12-.19c.37,0,4.28,1.55,5.7,2.6l.25.12h33.91c.25,0,.56-.19.87-.56.43-.56,1.49-1.74,2.11-1.74.5,0,5.02,2.17,5.02,3.78,0,.74-.93,1.3-1.98,1.8-1.18.56-1.3.62-1.3,8s.25,18.66.31,24.74c.06,3.1.25,3.84.25,5.77,0,7.69-6.63,8.74-8.31,8.74-.43,0-.74-.12-1.12-.5-1.12-1.3-8.74-4.15-8.74-4.59,0-.06.12-.12.25-.12.19,0,.43.06.81.12,3.6.62,6.26.93,8.31.93,4.03,0,5.33-1.3,5.33-4.22.06-7.75.12-15.38.12-22.01,0-7.5-.06-13.76-.31-17.73,0-.25-.37-.74-.74-.74h-35.21l-.31.25c-1.05.68-1.24.93-1.24,2.23v3.04c0,6.39-.25,21.2-.25,33.23,0,3.16,0,6.08.06,8.62,0,.87-.68,2.11-2.29,2.11-.74,0-1.36-.43-1.36-1.49v-.25ZM106.8,108.87c.06-.43.06-.87.06-1.3v-1.24h-16.86v4.15c0,.99-.99,1.61-1.86,1.61-.68,0-1.24-.37-1.24-1.3v-.19c.31-4.59.56-7.44.56-10.73,0-2.54-.31-6.01-.74-8.37,0-.12-.06-.25-.06-.31,0-.12.06-.19.12-.19.43,0,6.01,1.3,6.01,2.54,0,.37-.31.68-.87,1.05-1.43.93-1.55.12-1.8,3.29-.12,1.18-.12,1.74-.12,6.7h7.07c0-3.6.06-7.44.12-11.53,0-1.8-.12-3.41-.31-5.64-3.29,0-7.25.06-12.28.56h-.06c-.99,0-2.67-2.36-2.67-2.98,6.39.68,13.08.87,16.68.87h1.74c3.66-6.63,4.28-9.49,4.59-12.03.06-.5,0-.68.12-.68.06,0,.19,0,.37.06.06.06,3.29,1.49,4.46,2.29.37.25.56.5.56.74,0,.37-.5.68-1.74.81-.93.12-.93.37-1.36,1.05-1.3,1.86-3.22,4.77-5.58,7.75h6.57c.19,0,.68-.19.87-.5.68-1.05,2.11-2.67,2.6-2.67.12,0,.25.06.37.06,2.29.87,4.71,3.1,4.71,3.97,0,.37-.31.68-1.36.68h-13.7c.37.12.56.31.56.5,0,.31-.43.68-1.12.93-.93.37-.93.31-1.05,3.29-.12,3.97-.12,6.32-.12,12.46h6.94c.06-1.05.06-2.05.06-3.04,0-4.46-.25-7.25-.68-9.55-.06-.19-.06-.31-.06-.43s.06-.19.19-.19c.43,0,5.95,1.18,5.95,2.67,0,.31-.31.68-.87,1.05-1.43.93-1.55.06-1.74,3.29-.06.62-.06,1.24-.06,1.92,0,2.42.25,5.08.37,8.31,0,.93-.68,2.05-1.98,2.05-.74,0-1.36-.5-1.36-1.67v-.12ZM92.54,81.65c-.43-1.8-1.92-4.65-3.41-6.26-.37-.37-.56-.56-.56-.62s.06-.06.12-.06c1.3,0,8,2.85,8,6.51,0,1.49-1.05,2.54-2.17,2.54-.81,0-1.61-.62-1.98-2.11Z"/><path class="cls-1" d="M129.12,161.51c0,.68-4.46,2.6-5.21,3.78-.12.19-.25.25-.37.25-2.11,0-15.56-7.56-24.98-19.41l-.25.31c-13.27,16.43-26.29,20.58-28.27,20.58-.19,0-.31,0-.31-.12,0-.06.25-.31.81-.56,7.38-3.6,16.86-10.79,24.74-21.95.81-1.12,1.43-2.67,1.74-3.53.06-.25.12-.5.25-.5.06,0,.12.06.19.19.12.12,3.72,2.29,4.34,3.41.06.12.12.31.12.43,0,.5-.43.93-1.8.93h-.68c4.15,5.64,18.97,15.69,29.01,15.93.5,0,.68.12.68.25ZM92.42,171.8c0,.25-.25.43-.74.43-.25,0-.62-.06-.99-.12-.19,0-.31-.06-.43-.06-.37,0-.56.19-1.12.74-5.83,5.46-15.81,9.98-17.67,9.98-.19,0-.31-.06-.31-.12,0-.19.25-.43.93-.74,5.33-2.42,14.63-9.61,15.56-13.39.06-.31.06-.56.31-.56,0,0,4.46,2.91,4.46,3.84ZM125.15,138.32c0,.37-.31.68-1.3.68h-16c.06,1.74.19,3.47.25,4.34v.12c0,.99-.87,1.55-1.67,1.55-.68,0-1.3-.43-1.3-1.43v-4.59h-12.83c.06,2.05.12,4.15.12,4.84,0,.87-.99,1.43-1.8,1.43-.62,0-1.18-.31-1.18-1.05v-.12c.06-.99.12-3.04.12-5.02-4.46.06-10.73.19-14.69.62h-.06c-1.12,0-2.85-2.36-2.85-3.16,4.65.56,12.46.81,17.61.93,0-1.43.06-2.6.06-2.98,0-.31-.12-2.79-.43-4.46,0-.12-.06-.25-.06-.31,0-.12.06-.19.19-.19.5,0,5.15.68,5.15,2.11,0,.31-.19.62-.93.93-.93.37-1.18.68-1.3,2.29v2.67h12.9v-2.85c0-.31-.06-2.6-.43-4.65,0-.12-.06-.25-.06-.31,0-.12.06-.19.19-.19.5,0,5.15.68,5.15,2.11,0,.31-.19.62-.93.93-.93.37-1.24.68-1.24,2.29,0,.56,0,1.55.06,2.67h7.69c.37,0,.81-.25.99-.56.31-.5,2.23-3.35,3.22-3.35.12,0,.25,0,.37.06,2.05.74,5.02,3.78,5.02,4.65ZM113,163.62c0,.37-.31.68-1.36.68h-11.66c0,6.45.06,12.9.19,18.85v.06c0,1.18-.99,1.92-1.86,1.92-.74,0-1.36-.5-1.36-1.67.06-3.53.25-12.59.31-19.16-3.1,0-9.8.37-11.9.62h-.06c-.99,0-2.67-2.05-2.67-2.85v-.06c3.97.56,11.35.81,14.63.81v-1.98c0-1.92,0-3.35-.5-5.39v-.06c0-.25.19-.37.37-.37h.12c.99.12,4.71.68,4.71,1.43,0,.37-.5.74-.68.87-1.18.74-1.24.19-1.24,3.04,0,.81-.06,1.67-.06,2.48h4.09c.43,0,.62-.19.87-.5.56-.68,2.23-2.67,2.98-2.67.19,0,.31.06.43.06,2.73.99,4.65,3.35,4.65,3.91ZM118.77,178.37c0,1.3-.87,2.42-1.86,2.42-.68,0-1.36-.5-1.92-1.61-1.61-3.22-6.63-7.07-10.73-9.98-.12-.06-.12-.12-.12-.19s.06-.12.19-.12c0,0,10.54,2.98,13.83,7.56.43.62.62,1.3.62,1.92Z"/><path class="cls-1" d="M100.28,205.41c0,13.57-10.55,25.38-15,25.38-2.62,0-3.42-3.54-5.87-6.96-.91-1.25-1.31-3.08-1.31-5.13,0-8.61,7.53-22.3,22.81-22.3,12.89,0,19.34,8.95,19.34,18.19,0,17.62-20.13,22.24-24.13,22.24-.51,0-.8-.11-.8-.23,0-.29.91-.74,2.4-1.2,16.2-4.56,19.45-14.32,19.45-21.1,0-8.33-5.53-16.14-16.83-16.26-.74,0-1.48.11-2.22.17,1.43.8,2.17,3.59,2.17,7.19ZM80.6,217.78c0,4.79,2.79,8.95,5.3,8.95,3.48,0,12.66-11.46,12.66-22.76,0-4.45-1.03-5.3-2.28-5.3-.46,0-.91.11-1.6.29-8.21,2.57-14.09,11.35-14.09,18.82Z"/><path class="cls-1" d="M16.18,37.07c0,.68-.19,2.42-3.04,2.42-2.17,0-4.65-1.3-6.2-2.67C1.18,31.93,0,25.98,0,19.53c0-2.36.19-4.77.31-7.19.06-.62.06-1.24.06-1.8,0-1.18-.06-2.17-.25-3.16,0-.19-.06-.31-.06-.43,0-.37.12-.56.37-.56.12,0,3.6.87,3.6,5.21,0,.74-.12,1.49-.25,2.11-.5,2.11-.93,5.02-.93,8.06,0,11.66,7.01,13.02,7.81,13.02.99,0,1.61-.56,2.05-1.3,1.24-2.17,2.67-6.01,3.72-8.43.56-1.24.81-1.67.93-1.67s.12.12.12.37c0,.5-.19,1.43-.25,1.74-.25,1.55-.99,4.28-1.3,8.12v.68c0,1.12.19,1.8.25,2.6v.19ZM38.44,24.74c-.5-5.77-4.53-10.66-9.98-12.03-1.86-.43-2.73-.87-2.73-1.12,0-.19.43-.31,1.18-.31,8.43,0,15.38,6.88,15.38,12.77,0,1.92-1.05,2.91-2.05,2.91-.87,0-1.67-.74-1.8-2.23Z"/><path class="cls-1" d="M16.18,89.15c0,.68-.19,2.42-3.04,2.42-2.17,0-4.65-1.3-6.2-2.67-5.77-4.9-6.94-10.85-6.94-17.3,0-2.36.19-4.77.31-7.19.06-.62.06-1.24.06-1.8,0-1.18-.06-2.17-.25-3.16,0-.19-.06-.31-.06-.43,0-.37.12-.56.37-.56.12,0,3.6.87,3.6,5.21,0,.74-.12,1.49-.25,2.11-.5,2.11-.93,5.02-.93,8.06,0,11.66,7.01,13.02,7.81,13.02.99,0,1.61-.56,2.05-1.3,1.24-2.17,2.67-6.01,3.72-8.43.56-1.24.81-1.67.93-1.67s.12.12.12.37c0,.5-.19,1.43-.25,1.74-.25,1.55-.99,4.28-1.3,8.12v.68c0,1.12.19,1.8.25,2.6v.19ZM38.44,76.82c-.5-5.77-4.53-10.66-9.98-12.03-1.86-.43-2.73-.87-2.73-1.12,0-.19.43-.31,1.18-.31,8.43,0,15.38,6.88,15.38,12.77,0,1.92-1.05,2.91-2.05,2.91-.87,0-1.67-.74-1.8-2.23Z"/><path class="cls-1" d="M23.93,135.72c-5.27,0-13.58,5.15-13.58,10.91,0,3.04,2.11,7.5,10.04,7.5,2.79,0,5.95-.56,8.56-1.92.62-.31,1.18-.43,1.67-.43,1.3,0,2.17.81,2.17,1.8,0,2.48-5.83,4.03-10.91,4.03-11.04,0-13.95-7.07-13.95-10.42,0-5.08,4.53-10.29,11.22-13.27-3.29-1.49-4.15-4.96-4.15-8.62,0-3.29.68-6.82.99-9.3.19-1.55.31-2.85.31-3.84,0-2.36-.81-3.41-3.78-4.03-.31-.06-.56-.31-.56-.62,0-.56.99-1.49,2.36-1.49,2.42,0,5.64,2.91,5.64,5.77,0,1.12-.37,2.29-.62,3.53-.62,2.79-1.8,7.13-1.8,10.54,0,3.78,1.55,6.08,5.08,6.76,2.79-.99,3.47-1.12,4.59-1.12,2.11,0,2.54.93,2.54,1.61,0,1.18-1.49,2.67-4.46,2.67-.25,0-.56-.06-.81-.06h-.56Z"/><path class="cls-1" d="M21.14,214.33c-9.42,0-17.48-4.22-17.48-9.61,0-2.67,2.42-5.7,3.29-5.7.19,0,.25.12.25.37,0,.31-.19.74-.56,1.3-.81,1.05-1.18,2.05-1.18,2.98,0,4.22,7.19,7.13,14.38,7.13,1.55,0,3.1-.12,4.65-.43,3.29-.62,4.84-1.67,6.51-1.98.5-.12.93-.12,1.36-.12,1.67,0,2.67.62,2.67,1.49,0,2.36-7.01,4.59-13.89,4.59ZM15.87,177.75c-6.01-.19-8.56-3.72-8.56-4.15,0-.19.12-.25.31-.25.43,0,1.36.37,1.92.56,2.42.93,4.96,1.12,7.5,1.12,2.11,0,4.22-.12,6.26-.12.93,0,1.74-.12,2.6-.12,3.29,0,4.71,1.49,4.71,2.42,0,.62-.62,1.24-2.29,1.3-3.41.12-8.25,3.1-11.16,5.33-.56.43-1.05.62-1.43.62-.19,0-.31-.06-.31-.25,0-.37,1.12-1.86,3.35-4.22.81-.87,1.24-1.36,1.24-1.67s-.31-.43-1.05-.43l-3.1-.12Z"/><path class="cls-1" d="M23.93,260.96c-5.27,0-13.58,5.15-13.58,10.91,0,3.04,2.11,7.5,10.04,7.5,2.79,0,5.95-.56,8.56-1.92.62-.31,1.18-.43,1.67-.43,1.3,0,2.17.81,2.17,1.8,0,2.48-5.83,4.03-10.91,4.03-11.04,0-13.95-7.07-13.95-10.42,0-5.08,4.53-10.29,11.22-13.27-3.29-1.49-4.15-4.96-4.15-8.62,0-3.29.68-6.82.99-9.3.19-1.55.31-2.85.31-3.84,0-2.36-.81-3.41-3.78-4.03-.31-.06-.56-.31-.56-.62,0-.56.99-1.49,2.36-1.49,2.42,0,5.64,2.91,5.64,5.77,0,1.12-.37,2.29-.62,3.53-.62,2.79-1.8,7.13-1.8,10.54,0,3.78,1.55,6.08,5.08,6.76,2.79-.99,3.47-1.12,4.59-1.12,2.11,0,2.54.93,2.54,1.61,0,1.18-1.49,2.67-4.46,2.67-.25,0-.56-.06-.81-.06h-.56ZM32.73,252.9c-1.67-1.98-3.91-3.41-5.58-4.34-.37-.19-.93-.43-.93-.56,0-.25,1.3-.25,1.36-.25,2.79,0,8.25,1.24,8.25,4.28,0,.99-.68,1.74-1.55,1.74-.5,0-1.05-.25-1.55-.87ZM39.24,249.86c-1.74-1.92-3.97-3.29-5.7-4.15-.37-.19-.93-.37-.93-.5,0-.19.99-.25,1.8-.25,5.08,0,7.87,1.98,7.87,3.97,0,.99-.62,1.74-1.49,1.74-.5,0-1.05-.25-1.55-.81Z"/><path class="cls-1" d="M27.28,321.47c0-7.87-2.67-15.38-6.88-15.38-3.66,0-7.32,5.52-7.32,12.52,0,3.78,1.36,6.57,1.8,7.56.25.5.31,1.05.31,1.61,0,1.36-.62,2.6-1.49,2.6s-3.84-3.35-3.84-9.92c0-1.8.19-3.66.56-5.46.37-2.11,2.23-8.93,2.23-13.33,0-1.86-.31-3.29-1.24-3.72-.37-.19-.68-.5-.68-.81,0-.25.87-.87,1.55-.87.74,0,2.98.74,2.98,4.9,0,.62-.06,1.36-.19,2.17-.37,2.73-1.92,7.94-2.23,9.55-.06.43-.12.74-.12.87s0,.19.06.19.19-.31.37-1.12c1.55-6.01,4.9-9.11,8.25-9.11,6.32,0,9.24,9.98,9.24,17.73,0,19.9-16.8,29.51-19.28,29.51-.12,0-.25-.06-.25-.12,0-.25.68-.81,2.17-1.74,7.13-4.34,14.01-15.44,14.01-27.65Z"/><path class="cls-1" d="M36.78,359.37c-3.37,0-6.17-2.74-6.17-6.11s2.79-6.17,6.17-6.17,6.11,2.79,6.11,6.17-2.74,6.11-6.11,6.11ZM36.78,348.93c-2.37,0-4.32,1.95-4.32,4.32s1.95,4.32,4.32,4.32,4.32-1.95,4.32-4.32-1.95-4.32-4.32-4.32Z"/></g></svg>