<?xml version="1.0" encoding="UTF-8"?><svg id="_レイヤー_2" xmlns="http://www.w3.org/2000/svg" viewBox="0 0 287.76 81.23"><defs><style>.cls-1{fill:#fff;stroke-width:0px;}</style></defs><g id="text"><path class="cls-1" d="M86.4,55.56c.62.12,1.13-.43,1.51-.74,1.24-.99,3.91-2.54,4.97-3.05v.05c0,.23-2.77,3.36-4.08,4.51-.51.45-1.44,1.29-1.73,1.63-.29.34-.47,1.32-.36,1.89.24,1.26,1.18,1.28,1.5,1.02,1.02-.77,1.66-1.37,2.36-2.24l2.35-2.64c.32-.38,1.57-1.97,1.73-1.97.42,0,.62.78.62,2.35,0,1.86-.52,2.88-1.61,2.88-.19,0-2.84-.35-2.84-.35,0,0,1.31.86,2.15,1.73,0,0,1.15,1.08,2.06,1.66.9.59,2.46.74,3.08.07.62-.68.52-3.32.52-3.32,0-.25-.05-1.88-.05-2.11-.03-.51-.11-3.15-.48-4.08l1.15-.24c1.6-.35,3.05-.91,4.37-1.68,1.31-.76,1.97-1.44,1.97-2.01,0-.67-.72-1.18-2.16-1.54-.54-.06-.94-.11-1.2-.14-.42-.03-.75-.05-1.01-.05-.67,0-1.74.21-3.22.62.42-.32.62-.62.62-.91,0-.38-.48-.64-1.44-.77.25-.16,1.47-1.03,2.08-1.44.62-.41,2.47-1.87,2.47-2.55,0-.45-.27-.85-.82-1.2-.57-.32-1.25-.48-2.01-.48-1.95,0-4.17.67-6.67,2.01-1.12.61-2.64,1.3-4.56,2.06,0,0,1.81,1.1,2.35,1.1.64,0,1.28-.16,1.92-.48l1.34-.82,1.44-.77c.45-.25.81-.38,1.11-.38-.19.74-.55,1.31-1.06,1.73-1.09.96-1.91,1.49-2.45,1.58l-1.78.33c-.32.1-.7.5-.59,1.16.08.49.55.76.97.76s2.7-.11,2.7-.11c0,0-3.25,1.81-4.18,2.23,0,0-2.83,1.2-3.55,1.3-.51.07-.93-.03-1.25-.1.19,1.44,1.1,3.34,1.73,3.46ZM95.95,50.33s1.17-.52,1.9-.71c.64-.17,1.14-.25,1.36-.25.48,0,.72.23.72.67,0,.76-.83,1.52-2.5,2.25-.29-.29-1.54-.48-1.54-.48,0,0,.13-.32.14-.77,0-.46-.1-.72-.1-.72Z"/><path class="cls-1" d="M81.6,56.38c.18-1.15.85-2.17.85-2.17l-2.24,2.31-2.01,2.11.14-4.77s.78-.33,1.2-.53c.51-.22.85-.37,1.01-.43,1.02-.42,1.54-.81,1.54-1.2,0-.22-.23-.51-.67-.87-.51-.38-1.09-.57-1.73-.57-.35,0-.67.03-.96.1.22-1.22.25-2.21.28-2.59.03-.54.35-1.7.38-1.89,0-.02,0-.04.01-.06.06-.25.13-.51.19-.77.1-.41.15-.64.15-.67,0-.67-.74-1.74-2.21-3.21-.67-.67-1.44-1.01-2.3-1.01-.16,0-.43.05-.82.14.48,1.67.78,2.9.91,3.69.13.9.19,7.15.19,7.56-.96.42-1.66.72-2.11.91-.67.25-1.26.48-1.77.67-.99.38-2.34.86-4.03,1.44l.19.29c1.09.51,2.21.77,3.36.77.89,0,1.66-.11,2.3-.34.82-.29,2.09-.67,2.09-.67,0,0,0,1.46-.03,3.14-.04,1.68-.09,3.5-.09,3.5,0,0-2.55,2.25-3.5,3.12-1.76,1.63-2.81,2.67-3.17,3.12-.9,1.02-1.34,1.79-1.34,2.3s.93,1.49,2.78,2.93c1.15.93,2.33,2.18,3.55,3.74,1.18,1.5,2.05,2.51,2.59,3.02.57.51,1.1.77,1.58.77.89,0,1.34-.93,1.34-2.78,0-.89-1.01-10.46-1.01-10.46-.06-.7-.09-2.08-.09-4.12,1.12-1.09,1.85-2.11,2.2-3.07,0,0,1.07-2.31,1.25-3.45ZM75.5,69.46c-.06,1.8-.28,4.33-.28,4.33,0,0-2.27-.56-3.46-1.23-2.05-1.15-2.88-1.99-2.88-1.99,0,0,1.64-1.28,3.37-2.78,1.57-1.34,3.31-3.01,3.31-3.01,0,0,.01,2.43-.06,4.67Z"/><path class="cls-1" d="M109.29,64.96c-.87-.67-1.74-1.02-2.64-1.06h-.05c-.06.03-.16.05-.29.05l-6.72.67c-.32.06-1.23.09-1.23.09,0,0-.95-.67-2.52-1.07-2.76-.7-3.69-.76-3.69-.76,0,0,.97,1.1,1.3,2.4l-2.78.67-7.33,1.63c-.38.09-.97.21-1.51.21s-.9-.21-.9-.21c0,0,.26.81.77,1.54.51.73,1.45,1.44,2.16,1.44.51,0,1.5-.35,2.2-.63-1.47,2.05-2.21,3.76-2.21,5.13,0,1.18.38,1.77,1.15,1.77.57,0,1.04-.25,1.39-.76l1.87-3.17,1.95-3.2-2.05,1.14v.29c.13-.93.21-1.68.24-2.25.99-.42,1.84-.65,3.31-1.09l2.16-.58s.12,1.26,0,4.36c-.13,3.11-.33,3.99-.33,3.99,0,0-.99.03-2.47-.19-1.65-.25-2.72-1.2-2.72-1.2,0,0,.38.95,1.09,1.63,1.5,1.31,2.27,1.84,3.9,3.4,1.34,1.34,2.43,2.01,3.26,2.01s1.31-.48,1.35-1.44l.09-4.37.19-7.1.14-1.73h2.54l2.21.09c2.08.03,3.54.19,4.37.48.86.29,1.58.43,2.16.43.96,0,1.44-.32,1.44-.96,0-.25-.61-.81-1.82-1.68Z"/><path class="cls-1" d="M106.55,69.57c-.57-.32-1.83-.67-3.07-.72-1.24-.05-2.25.46-2.25.46,0,0,.98.44,2,1.08,1.06.7,1.44,1.45,1.44,1.97s-.78,1.24-2.59,1.77c0,0,.56.14.91.1.35-.04.91-.1,1.11-.1.38,0,.82.16,1.29.48,1.12.61,1.86.91,2.21.91,1.02,0,1.54-.62,1.54-1.87,0-1.7-.87-3.05-2.59-4.08Z"/><path class="cls-1" d="M156.32,58.59c-1.6-.64-2.93-.96-3.98-.96-7.32,0-14.57.7-19.21,2.11-4.44,1.35-7.21,2.02-8.3,2.02-.8,0-3.73-.27-3.73-.27,0,0,.37,1.05,1.52,1.95,1.31.99,2.35,1.49,3.12,1.49.61,0,2.56-.64,5.85-1.92,5.4-1.6,10.65-2.44,13.21-2.54,1.02,0,2,.03,2.93.1.32.06.48.21.48.43-.13.55-6.57,3.6-6.57,3.6,0,0,7.2-2.48,9.21-2.64,1.95,0,3.82.13,5.61.38,1.21,0,2.08-.45,2.59-1.34,0-.89-.91-1.69-2.74-2.4Z"/><path class="cls-1" d="M179.19,71.13c-3.81-.97-2.81-8.55-1.05-12.72,1.1-2.6,3.66-5.43,5.25-6.9,2.03-1.86,2.84-3.46,2.17-4.23-.67-.77-1.72-.98-2.69-.98-.69,0-1.72.38-3.1,1.14-1.55.83-3.58,1.68-4.87.82-3.18-2.11-.33-4.27-.33-4.27,0,0-5.44,3.97-1.62,6.87,1.98,1.5,6.05.18,6.05.18,0,0-5.8,7.84-5.88,16.2-.09,8.94,4.3,11.28,7.74,10.54,9.7-2.1,13.11-21.9,13.11-21.9,0,0-7.39,17.13-14.79,15.25Z"/><path class="cls-1" d="M199.3,56.23c-1.87-2.88-.81-9.74-.81-9.74,0,0-5.53,9.42.18,15.09,4.44,4.4,9.46-2.26,9.46-2.26,0,0-6.27.85-8.84-3.08Z"/><path class="cls-1" d="M241.62,73.14c-1.1-.53-2.34-.63-4.2-.19-2.29.54-5.82,1.4-8.19,1.33-3.32-.1-6.86-1.11-6.89-3.85-.02-2.13,1.42-4.44,3.82-6.58,3.27-2.86,13.25-7.46,14.05-7.99.8-.54,1.2-1.16,1.2-1.89,0-.53-.36-1.08-1.08-1.66-1.98-1.45-5.48-2-5.48-2,0,0,.54.58.57,1.31.03.74-.82,1.79-2.45,2.97-.04.04-.1.08-.17.12-.76.5-1.35.91-1.77,1.26-.8.54-2.5,1.67-2.5,1.67,0,0-2.84-.65-3.48-2.75-.47-1.53-.08-3.34-1.38-5.15-1.39-1.94-5.39-2.42-5.39-2.42,0,0,2,.54,3.04,4.45.6,2.25-.34,3.79.74,6.03.85,1.75,3.82,2.15,3.82,2.15,0,0-7.34,4.66-7.7,10.69-.14,2.43,1.26,4.78,4.11,6.22,3.65,1.85,12.73,1.47,16.51.78,1.24-.23,2.32-.59,3.21-1.17,1.17-.76.77-2.74-.39-3.34Z"/><path class="cls-1" d="M270.7,44.18c0,.87-4.28,3.77-4.28,3.77,3.01-1.64,4.59-2.29,6.97-2.63,2.38-.34,3.88-.72,3.88-1.6,0-.95-.63-1.68-1.77-2.4-2.96-1.85-9.1.61-9.1.61,0,0,4.3,1.26,4.3,2.25Z"/><path class="cls-1" d="M284.93,74.25c-1.91-.4-6.09.29-7.77.36-2.32.1-3.54-.76-3.65-2.28l-.63-6.62c-.11-1.25-.87-1.89-2.28-1.89-.65,0-1.37.36-1.75.4,0,0,3.98-4.56,4.66-5.4l4.4-5.25c.86-.86.78-2.37.29-2.8-.61-.69-1.33-1.03-2.17-1.03-1.45,0-3.54.71-6.28,2.11-2.97,1.49-5.29,2.18-6.97,2.23-1.11.03-1.94-1.43-1.94-1.43,0,0-.85,1.72-.85,3.31,0,2.25.61,3.37,1.83,3.37.46,0,1.31-.48,2.57-1.43,1.31-1.07,6.57-3.6,6.57-3.6-.38.76-.8,1.58-1.26,2.46-.31.61-6.75,10.27-9.11,12.4-3.05,2.78-4.56,4.85-4.82,6.56-.35,2.31,2.02,4.47,3.9,2.51.77-.8,1.26-1.69,1.72-2.45,1.6-2.74,5.63-7.51,5.63-7.51,0,0,2-.49,2.23,1.31.06.49.15.97.23,1.43.3,2.78.87,4.78,1.71,6,.84,1.18,2.07,1.75,3.71,1.71l7.35-.06c3.69-.08,5.51-.6,5.54-1.88.03-1.28-1.14-2.18-2.83-2.53Z"/><path class="cls-1" d="M3.68,58.52c-.1.01-.2.02-.31.02h-.27c-.18,0-.43-.04-.75-.12v-.09c.67-.41,1.28-.71,1.82-.9l.03-.38c-.38.09-.67.14-.87.14-.27,0-.52-.05-.75-.15-.09-.03-.18-.07-.26-.1-.1-.05-.16-.07-.17-.07-.09-.02-.14-.08-.15-.17l2.2-.66c.03-.3.05-.55.05-.77,0-.5-.25-.93-.75-1.28l.05-.09c.44-.01.86.02,1.26.09.39.07.65.15.78.26.15.11.22.29.22.53,0,.13-.02.34-.07.63h.26c.82,0,1.23.15,1.23.46,0,.25-.31.43-.94.55-.09.02-.29.08-.6.17-.05.02-.1.04-.15.05l-.07.31s.07,0,.1-.02c.15-.01.26-.02.32-.02.17,0,.33.05.49.15.15.09.22.19.22.31,0,.09-.11.24-.34.44l-.58.32-.48.29-.14.61c.91-.31,1.47-.46,1.69-.46s.43.07.63.2c.33.2.49.35.49.43,0,.24-.45.39-1.35.46-.09.01-.18.02-.26.03-.16.02-.32.04-.48.05-.22.03-.43.06-.63.09l-.72.94c.5-.1.93-.15,1.3-.15.45,0,.77.17.94.51.17.33.25.93.24,1.81l.07,3.38v.38c.03,1.01-.18,1.52-.65,1.52-.24,0-.48-.11-.73-.34l-1.96-1.86c.07-.03.11-.05.12-.05.06,0,.22.09.49.27.19.13.57.19,1.14.2.06-.66.08-1.12.08-1.38,0-.09,0-.29-.02-.6-.01-.09-.02-.19-.02-.29-.39.44-.66.73-.82.85-.15.14-.34.26-.56.36-.18-.06-.38-.14-.58-.26-.01.72-.02,1.18-.03,1.4-.01.17-.03.34-.07.49-.09.35-.23.53-.41.53s-.35-.15-.51-.44c-.17-.3-.26-.6-.26-.9,0-.89.25-1.99.75-3.31.05-.14.13-.35.26-.65.03-.08.07-.16.1-.26-.12-.01-.27-.02-.43-.02h-.22c-.26.01-.42-.06-.46-.2h.02c.34-.19.58-.32.72-.38.18-.09.42-.18.72-.27l.63-1.01c-1.1.4-1.86.71-2.27.94-.56.33-.9.49-1.04.49-.28,0-.55-.15-.8-.46-.15-.19-.22-.34-.22-.44v-.02l.02-.09c1.39-.12,2.61-.8,3.67-2.01ZM4.01,59.38l.07-.31-.97.63.9-.32ZM4.19,63.32c-.14,0-.31-.02-.51-.07h-.02l-.1,1.02c.26-.3.47-.61.63-.95ZM4.42,62.32c.19-.1.37-.15.53-.15.3,0,.44.14.44.43v.02c0,.11-.03.21-.09.29-.07.08-.29.32-.66.72-.06.06-.17.19-.34.41-.05.06-.09.11-.14.17.31-.1.74-.41,1.31-.94v-.49c0-.12,0-.24.02-.34v-.27c0-.55-.15-.82-.46-.82-.08,0-.26.08-.55.24-.1.07-.27.14-.49.2l-.17.8c.28-.11.48-.2.6-.26ZM7.52,64.02c.2,0,.38-.03.53-.1.16-.08.45-.27.89-.56.48-.33.93-.69,1.35-1.09v-.14l-1.67-.15-.03-.07c.38-.19.65-.33.82-.43.2-.09.45-.19.75-.31-.02-.19-.09-.41-.2-.65-.4.17-.68.31-.83.41-.11.07-.19.1-.22.1-.1,0-.2-.06-.29-.19-.09-.12-.24-.39-.44-.8,1.16-.52,2.03-1.21,2.61-2.06l.34-.49c.12-.22.19-.35.19-.41,0-.1-.04-.15-.12-.15-.05,0-.33.16-.85.48l-1.02.65-.48.32h-.03s0,.02-.02.02h-.02c-.3,0-.44-.26-.44-.78,0-.16.02-.31.05-.44.73-.57,1.2-.97,1.43-1.19l.8-.8c.31-.28.49-.48.55-.58.14-.22.26-.33.38-.34.05.34.07.56.07.66,0,.47-.25.95-.75,1.45.03-.01.07-.02.12-.03.24-.06.4-.1.48-.14.41-.14.72-.2.94-.2.07,0,.17.03.31.09.43.19.65.38.65.55,0,.09-.12.26-.36.49l-2.2,2.13c.88-.25,1.57-.38,2.08-.38.65,0,1.2.1,1.67.31.45.2.68.45.68.75,0,.22-.17.55-.51.99-.01.02-.03.04-.05.05-.19.24-.35.42-.46.53l-.36.39-.7.72c-.07.1-.14.2-.22.31.25-.08.46-.12.63-.12.32,0,.61.09.89.26.35.2.53.38.53.53,0,.3-.27.44-.82.44h-.19c-.09-.01-.24-.02-.46-.02h-.27c-.14,0-.27,0-.39.02-.5.01-.9.05-1.21.1-.01.15-.02.28-.02.41v.31c0,.33.02.77.05,1.31v.09c.03.64.05,1.03.05,1.18,0,1.02-.43,1.63-1.28,1.82l-1.4.34c-.33.08-.78.24-1.35.48v-.1c.12-.09.28-.2.46-.34.05-.03.09-.07.14-.1.03-.03.07-.06.1-.09.81-.6,1.32-1.1,1.53-1.5.22-.4.33-1.07.34-2.03,0-.09,0-.26.02-.51,0-.15,0-.3.02-.46,0-.18,0-.36.02-.53-.26.08-.47.15-.63.2-.19.07-.39.14-.6.22-.06.02-.12.05-.19.07-.03.01-.07.02-.12.03-.09.03-.17.05-.24.05-.2,0-.36-.07-.48-.2l-.48-.58c-.06-.07-.08-.11-.07-.12v-.05h.03ZM10.28,63.41v-.46l-.92.66.92-.2ZM10.93,60.54c.24.15.39.22.44.22h.03s.05-.02.08-.02c.11-.02.22-.05.32-.07.03-.01.09-.02.17-.02.51,0,.77.13.77.39,0,.11-.06.23-.19.34s-.43.33-.92.65l-.02.94c.69-.9,1.23-1.78,1.62-2.64.09-.22.14-.38.14-.48,0-.19-.07-.29-.22-.29h-.05c-.53.01-.96.06-1.28.14-.32.09-.8.3-1.45.61.22.06.4.13.55.22Z"/><path class="cls-1" d="M25.71,64.98c.06,0,.15.06.29.17.18.15.54.31,1.07.48.55.18.88.27,1.01.27.32,0,.53-.11.65-.32.01-.02.02-.12.02-.29.01-.22.02-.53.02-.95,0-.09,0-.23.02-.41v-.41l.02-3.87c0-.35-.05-.95-.15-1.81-.09-.69-.24-1.15-.44-1.38-.2-.24-.59-.36-1.14-.36-.78,0-1.57.13-2.35.39-.15.05-.3.1-.46.15-.15.05-.3.09-.44.14-.16.06-.31.11-.46.15-.16.06-.31.11-.46.15-.52.16-.85.26-.97.29-.15.03-.26.05-.34.05-.15,0-.52-.09-1.12-.26.42.76.63,1.39.63,1.89l-.24,3.38-.03,4.01c-.05.26-.14.39-.29.39-.18,0-.38-.18-.58-.53-.35-.6-.53-1.06-.53-1.38,0-.07,0-.12.02-.17l.24-1.36.03-1.21c0-.08.01-.26.03-.53.01-.12.02-.25.03-.38.05-.47.08-.9.1-1.3.01-.16.02-.32.03-.49.01-.22.02-.35.03-.41.01-.09.03-.23.05-.41.03-.24.06-.41.07-.53.03-.23.06-.4.07-.51v-.12c0-.27.05-.45.14-.55.09-.08.32-.16.68-.24.06-.01.15-.04.27-.09.19-.06.45-.14.78-.26.2-.06.43-.13.68-.22.55-.18,1.33-.36,2.35-.53,1.01-.16,1.82-.24,2.44-.24.95,0,1.74.28,2.35.84.36.33.55.91.55,1.74l.03,4.23.07,2.52.08,2.03c0,.73-.21,1.09-.63,1.09-.33,0-1.07-.41-2.23-1.24-.73-.52-1.42-1.06-2.08-1.6.02-.01.06-.02.1-.02ZM23.76,62.71c.07-.57.1-.99.1-1.28v-.24c0-.11,0-.23-.02-.34-.34.11-.57.2-.7.27-.32.16-.52.24-.6.24-.38,0-.73-.18-1.07-.55-.07-.09-.1-.18-.1-.26v-.02c.9-.18,1.65-.52,2.25-1.02.6-.49,1.2-1.25,1.79-2.28-.34.23-.61.44-.8.65-.2.22-.47.56-.78,1.02-.31.44-.57.66-.78.66-.15,0-.28-.1-.41-.31-.12-.2-.19-.43-.19-.67,0-.38.16-.83.49-1.36h.07s0,.04.02.05v.05s.02.07.03.1v.07s.02.02.02.03v.02c.04.33.15.49.32.49.14,0,.38-.16.72-.48.66-.57,1.33-.85,2.01-.85.45,0,.68.17.68.51,0,.17-.16.42-.48.75l-.53.56c-.17.18-.52.51-1.06.97.18-.03.31-.07.39-.1.47-.14.72-.21.77-.22.09-.02.19-.03.31-.03.32,0,.6.05.84.15.24.11.36.24.36.38,0,.15-.08.25-.26.31-.18.07-.57.14-1.18.2-.18.03-.36.07-.53.12l-.61.15c.32.13.48.31.48.56,0,.17-.05.4-.14.7-.07.17-.13.39-.19.65l1.36-.24c.14-.23.2-.43.2-.61,0-.14-.06-.24-.17-.32l-.24-.14s-.03-.03-.07-.09c-.01-.01-.02-.02-.03-.03.14-.05.25-.07.34-.07.38,0,.71.07,1.01.22s.44.31.44.49c0,.47-.39,1.04-1.18,1.72-.53.47-1.06.74-1.59.82v-.1c.34-.33.62-.67.84-1.02-.85.16-1.5.32-1.94.48-.45.16-.89.38-1.3.66-.3.18-.49.27-.6.27-.16,0-.32-.1-.48-.31-.16-.19-.24-.39-.24-.6,0-.06.01-.12.03-.19.16-.45.39-.93.7-1.43.17-.26.27-.39.31-.39.09,0,.18.14.26.41.08.28.13.63.15,1.02.31-.07.62-.15.95-.24Z"/><path class="cls-1" d="M35.9,64.36c.28-.19.64-.49,1.07-.89.24-.24.51-.52.8-.85.28-.31.77-.86,1.45-1.65.26-.32.51-.61.73-.87.34-.4.69-.8,1.04-1.19-.52.28-.9.48-1.14.6-.28.14-.65.29-1.09.46-.24-.01-.52-.11-.85-.31-.32-.18-.52-.35-.61-.51.8-.32,1.46-.65,1.99-1.01.52-.35,1.18-.89,1.96-1.62l.55-.49c.58-.58,1.04-1.13,1.38-1.65-.77.14-1.42.48-1.94,1.02-.28.28-.57.57-.85.85-.32.32-.51.51-.58.56-.08.06-.18.09-.29.09-.16,0-.31-.14-.44-.41-.15-.27-.22-.56-.22-.85,0-.22.1-.61.31-1.19l.15-.02c.44.53.79.8,1.04.8.15,0,.51-.22,1.09-.65.65-.49,1.36-.73,2.15-.73.25,0,.65.07,1.19.22.32.08.48.19.48.32,0,.18-.1.36-.29.53-.46.41-1.07.85-1.84,1.31l-2.54,1.52-.43.32c1.15-.36,2.1-.74,2.86-1.14.43-.24.76-.36.99-.36.08,0,.23.01.46.03.73.2,1.09.45,1.09.75,0,.2-.15.36-.46.48l-.8.27c-.84.31-1.75,1.05-2.73,2.23l-.46.55-2.1,2.44c-.93,1.08-1.99,1.71-3.19,1.89h-.34c-.24,0-.51-.03-.8-.1l-.03-.09c.55-.25.96-.47,1.24-.66ZM39.24,65.3l-.05.6v.1c0,.19,0,.35.02.48.17-.09.33-.2.48-.32.28-.3.44-.45.46-.48.03-.02.1-.05.19-.07-.49.61-.84,1.15-1.06,1.62.06.02.11.05.15.07.38.17.61.28.72.34.34.16.64.24.89.24.2,0,.31-.14.31-.41l-.02-.26.03-1.01v-.2c0-.28-.02-.72-.05-1.3l-1.16.17c-.07.01-.16.02-.27.02h-.07l-1.01-.14c-.36-.06-.55-.14-.55-.24v-.07l2.9-.72.15-.03c0-.52-.02-.89-.05-1.11-.03-.22-.11-.38-.22-.48-.24-.22-.36-.35-.36-.41,0-.1.08-.15.24-.15.39,0,.86.18,1.43.55.4.25.6.62.6,1.11v.15c.34-.09.6-.14.77-.14.3,0,.64.07,1.04.22.34.15.51.29.51.43,0,.13-.12.22-.38.29-.24.07-.72.14-1.45.2-.1,0-.3.03-.58.09l-.02.58.07,3.22c.02.95-.19,1.43-.63,1.43-.24,0-.71-.31-1.4-.92-.16-.15-.39-.34-.7-.56-.2-.15-.55-.39-1.02-.73-.23.38-.38.61-.46.7s-.17.14-.27.14c-.43,0-.65-.25-.65-.75s.16-.94.48-1.38l.63-.87s.03-.05.05-.07c.09-.12.17-.19.24-.19.04.13.07.21.07.26ZM47.17,63.58c-.32,0-.75.07-1.3.22l-.05-.03v-.07c.35-.08.62-.15.82-.22.17-.07.38-.19.63-.36-.15-.15-.27-.26-.38-.32-.1-.06-.31-.16-.63-.31-.3-.15-.66-.31-1.09-.48-.4-.16-.73-.28-.99-.36-.5-.14-.82-.23-.95-.27-.13-.05-.27-.12-.44-.22v-.09c0-.11.27-.17.8-.17,1.72,0,3.6.55,5.66,1.64.88.44,1.31.88,1.31,1.3,0,.25-.14.38-.43.38-.18,0-.4-.05-.65-.14-.1-.05-.32-.11-.66-.2-.09-.03-.18-.06-.27-.09-.59-.14-1.05-.2-1.38-.2ZM45.72,65.52c.32.17.6.4.85.7.26.31.39.56.39.75,0,.28-.13.43-.39.43-.12,0-.41-.06-.85-.19-.11-.03-.25-.05-.41-.05-.25,0-.75.1-1.5.29v-.07c.88-.41,1.31-.71,1.31-.9,0-.06-.09-.17-.27-.34-.05-.05-.13-.12-.26-.24-.03-.03-.07-.06-.1-.09-.03-.02-.07-.05-.1-.07-.15-.1-.24-.16-.27-.19-.26-.11-.38-.21-.36-.29l.03-.1c.86,0,1.51.12,1.93.36Z"/><path class="cls-1" d="M2.22,1.52c0-.37.11-.64.32-.82s.48-.28.8-.28c.26,0,.48.05.66.14.18.1.26.19.26.3,0,.13-.12.21-.35.22-.09.01-.16.07-.21.15-.05.09-.08.18-.08.29v3.3c0,.22.05.39.15.51.1.12.24.18.42.18.13,0,.23-.01.31-.04,1.7-.59,3.32-1.28,4.85-2.08,1.53-.8,2.77-1.59,3.71-2.39.26-.22.54-.33.84-.33.31,0,.56.12.77.35.21.23.31.51.31.81s-.08.48-.24.48c-.09,0-.17-.05-.24-.15-.07-.09-.16-.13-.26-.13-.13,0-.32.07-.57.22-1.07.69-2.48,1.41-4.22,2.16-1.75.75-3.45,1.33-5.1,1.76-.43.12-.64.35-.64.7,0,.1,0,.18.02.22.09.34.23.56.44.68.29.18.93.31,1.91.41.98.1,2.09.14,3.32.14s2.41-.05,3.45-.14c1.04-.1,1.7-.22,1.98-.39.35-.21.58-.45.68-.73.1-.28.15-.7.15-1.25v-.92c0-.18.03-.31.09-.41.06-.1.13-.14.22-.14s.16.05.22.14c.06.1.09.24.09.43v.63c0,.32.01.59.03.82.02.23.06.41.12.53.04.07.12.18.22.33.1.15.15.29.15.44,0,.21-.06.4-.18.58-.12.18-.33.36-.64.54-.43.25-1.27.44-2.53.57-1.26.13-2.65.2-4.16.2-1.36,0-2.59-.06-3.67-.18-1.09-.12-1.83-.29-2.22-.51-.48-.28-.8-.6-.96-.96-.15-.36-.23-.82-.23-1.4V1.52ZM3.41,10.78c0-.16.11-.24.33-.24.26,0,.48.04.65.11.17.07.34.17.52.29.18.12.3.18.37.18h7.3c.13,0,.26-.03.39-.1.12-.07.24-.14.34-.23.09-.07.18-.14.29-.21.1-.07.21-.1.31-.1.16,0,.37.07.63.22.26.15.48.32.67.51.19.19.29.34.29.46,0,.1-.02.18-.07.23-.04.05-.11.11-.2.19-.12.09-.21.18-.27.29-.07.1-.1.26-.1.46v6.91c0,.28-.1.5-.31.66-.21.16-.43.24-.68.24-.21,0-.34-.06-.4-.19-.06-.12-.09-.29-.09-.49,0-.26-.07-.47-.2-.63-.13-.15-.32-.23-.57-.23h-7.02c-.25,0-.44.06-.57.17-.13.11-.2.27-.2.47,0,.26-.1.48-.31.65-.21.17-.43.25-.66.25-.29,0-.44-.17-.44-.51v-9.35ZM4.82,13.97c0,.48.25.74.75.77l7.13.02c.23,0,.42-.07.55-.2s.2-.32.2-.57v-1.52c0-.25-.07-.44-.2-.57-.13-.13-.32-.2-.57-.2h-7.08c-.23,0-.42.07-.56.2-.14.13-.21.32-.21.57v1.5ZM5.57,15.49c-.23,0-.42.07-.55.2s-.2.32-.2.57v1.45c0,.23.07.42.21.56.14.14.33.21.56.21l7.08.02c.23.01.42-.05.56-.19s.21-.33.21-.58v-1.5c0-.25-.06-.44-.18-.57-.12-.13-.28-.2-.48-.2l-7.22.02Z"/><path class="cls-1" d="M22.77,15.07c0-1.33.73-2.34,2.2-3.01.76-.34,1.52-.56,2.27-.68.22-.04.39-.12.52-.24.12-.12.22-.29.27-.53.29-1.2.51-2.16.64-2.87.13-.71.26-1.53.4-2.45v-.13c0-.23-.09-.35-.26-.35-.09,0-.2.04-.33.13-.44.23-.9.35-1.36.35-.51,0-.96-.17-1.34-.5-.38-.33-.66-.69-.84-1.09-.09-.18-.13-.32-.13-.42,0-.07.02-.13.05-.18s.08-.07.12-.07c.12,0,.23.08.35.24.13.21.32.37.56.48.24.12.52.18.85.18.76,0,1.64-.32,2.64-.95.19-.12.4-.18.62-.18.41,0,.81.15,1.2.45.39.3.58.61.58.93,0,.19-.1.36-.29.51-.7.54-1.42,2.42-2.16,5.63-.03.12-.04.2-.04.24,0,.37.23.56.7.59.37.01.89.07,1.56.15,1,.16,1.82.33,2.46.51.04.01.11.02.2.02.28,0,.42-.16.42-.48,0-.81-.02-1.45-.07-1.94-.04-.23-.14-.43-.27-.57-.14-.15-.22-.23-.25-.26-.09-.09-.13-.17-.13-.24,0-.06.03-.1.09-.13.06-.03.13-.04.22-.04.22,0,.51.11.88.33.37.22.69.5.98.85.29.34.43.7.43,1.07,0,.28-.04.6-.11.97-.07.37-.12.58-.13.64-.01.04-.02.11-.02.2,0,.23.12.4.37.51.75.32,1.43.68,2.05,1.08.29.19.51.43.66.7.15.28.22.56.22.84,0,.22-.04.4-.13.54-.09.14-.21.21-.35.21-.13,0-.29-.08-.48-.24-.75-.66-1.5-1.22-2.27-1.67-.1-.06-.21-.09-.31-.09-.19,0-.33.12-.42.37-.48,1.35-1.15,2.44-1.99,3.28-.84.84-1.67,1.47-2.47,1.91-.23.1-.42.15-.55.15-.15,0-.22-.04-.22-.13,0-.12.15-.27.44-.46,1.79-1.19,2.99-3.02,3.61-5.5.01-.04.02-.11.02-.2,0-.22-.12-.39-.37-.51-1.22-.5-2.35-.82-3.41-.97-.44-.06-.79-.09-1.06-.09-.41,0-.68.22-.81.66-.85,2.99-1.95,4.79-3.3,5.39-.35.16-.65.24-.9.24-.87,0-1.43-.78-1.69-2.33-.06-.38-.09-.67-.09-.86ZM23.92,14.06c-.08.25-.12.52-.12.81,0,.47.1.88.31,1.22.21.34.48.51.84.49.59-.09,1.07-.44,1.44-1.07.37-.62.71-1.46,1.02-2.5.03-.12.04-.21.04-.26,0-.16-.05-.3-.15-.41-.1-.11-.24-.17-.42-.17-.06,0-.15.01-.26.04-.95.23-1.73.65-2.33,1.23-.16.15-.28.34-.36.59Z"/><path class="cls-1" d="M43.99,15.19c1.48.66,2.54,1.29,3.19,1.89.65.6.97,1.14.97,1.59,0,.25-.08.45-.25.6-.17.15-.37.23-.59.23-.14,0-.29-.05-.44-.14-.15-.11-.28-.24-.39-.4-.11-.16-.22-.39-.33-.67-.23-.55-.52-1.03-.84-1.43-.33-.4-.87-.79-1.64-1.15-.16-.08-.29-.17-.39-.26-.09-.09-.14-.18-.14-.25,0-.05.02-.08.06-.11.04-.03.1-.04.18-.04.19,0,.39.05.62.16Z"/><path class="cls-1" d="M51.77,5.61l-.53.04c-.15.01-.26-.03-.34-.12-.08-.1-.12-.2-.12-.32,0-.13.04-.24.12-.33.08-.09.19-.12.34-.11l.53.04c.92.06,1.64.09,2.13.09h1.39c.25,0,.44-.07.57-.21.13-.14.2-.33.2-.56V1.17c0-.37.11-.64.32-.82.21-.18.48-.28.8-.28.26,0,.48.05.66.15.18.1.26.21.26.31,0,.12-.12.18-.35.2-.09.01-.16.07-.21.15-.05.09-.08.18-.08.29v2.97c0,.23.07.42.21.56s.33.21.56.21h4.93c.25,0,.44-.07.57-.21.13-.14.2-.33.2-.56V1.17c0-.37.11-.64.32-.82.21-.18.48-.28.8-.28.26,0,.48.05.66.15.18.1.26.21.26.31,0,.12-.12.18-.35.2-.09.01-.16.07-.21.15-.05.09-.08.18-.08.29v2.97c0,.23.07.42.21.56s.33.21.56.21h1.36c.29,0,.54-.06.74-.19.2-.12.41-.3.63-.52.32-.32.65-.48.99-.48.19,0,.38.06.57.18.22.15.43.32.62.53.16.19.24.37.24.55,0,.16-.07.29-.2.4-.13.1-.32.15-.57.15l-4.38.02c-.23,0-.42.07-.56.2-.14.13-.21.32-.21.57l.02,13.31c.01.26-.08.48-.27.65-.2.17-.41.25-.65.25-.15,0-.27-.05-.37-.14-.1-.1-.15-.23-.13-.41v-.57c0-.37-.18-.55-.55-.55h-5.35c-.37,0-.55.18-.55.55v.22c.01.26-.08.48-.27.65-.2.17-.41.25-.65.25-.15,0-.27-.05-.37-.14-.1-.1-.15-.23-.13-.41V6.29c0-.25-.07-.44-.2-.57-.13-.13-.32-.2-.57-.2h-1.39c-.59,0-1.3.03-2.13.09ZM58.23,5.52c-.23,0-.42.07-.56.2-.14.13-.21.32-.21.57l.02,4.51c0,.23.07.42.21.56s.33.21.56.21h4.91c.25,0,.44-.07.57-.21.13-.14.2-.33.2-.56v-4.49c0-.25-.07-.44-.2-.57-.13-.13-.32-.2-.57-.2l-4.93-.02ZM58.26,12.19c-.23,0-.42.07-.56.2-.14.13-.21.32-.21.57v4.51c0,.23.07.42.21.56.14.14.33.21.56.21h4.91c.25,0,.44-.07.57-.21.13-.14.2-.33.2-.56v-4.51c0-.25-.07-.44-.2-.57-.13-.13-.32-.2-.57-.2h-4.91Z"/><path class="cls-1" d="M74.34,15.07c0-1.33.73-2.34,2.2-3.01.76-.34,1.52-.56,2.27-.68.22-.04.39-.12.52-.24.12-.12.22-.29.27-.53.29-1.2.51-2.16.64-2.87.13-.71.26-1.53.4-2.45v-.13c0-.23-.09-.35-.26-.35-.09,0-.2.04-.33.13-.44.23-.9.35-1.36.35-.51,0-.96-.17-1.34-.5-.38-.33-.66-.69-.84-1.09-.09-.18-.13-.32-.13-.42,0-.07.02-.13.05-.18s.08-.07.12-.07c.12,0,.23.08.35.24.13.21.32.37.56.48.24.12.52.18.85.18.76,0,1.64-.32,2.64-.95.19-.12.4-.18.62-.18.41,0,.81.15,1.2.45.39.3.58.61.58.93,0,.19-.1.36-.29.51-.7.54-1.42,2.42-2.16,5.63-.03.12-.04.2-.04.24,0,.37.23.56.7.59.37.01.89.07,1.56.15,1,.16,1.82.33,2.46.51.04.01.11.02.2.02.28,0,.42-.16.42-.48,0-.81-.02-1.45-.07-1.94-.04-.23-.14-.43-.27-.57-.14-.15-.22-.23-.25-.26-.09-.09-.13-.17-.13-.24,0-.06.03-.1.09-.13.06-.03.13-.04.22-.04.22,0,.51.11.88.33.37.22.69.5.98.85.29.34.43.7.43,1.07,0,.28-.04.6-.11.97-.07.37-.12.58-.13.64-.01.04-.02.11-.02.2,0,.23.12.4.37.51.75.32,1.43.68,2.05,1.08.29.19.51.43.66.7.15.28.22.56.22.84,0,.22-.04.4-.13.54-.09.14-.21.21-.35.21-.13,0-.29-.08-.48-.24-.75-.66-1.5-1.22-2.27-1.67-.1-.06-.21-.09-.31-.09-.19,0-.33.12-.42.37-.48,1.35-1.15,2.44-1.99,3.28-.84.84-1.67,1.47-2.47,1.91-.23.1-.42.15-.55.15-.15,0-.22-.04-.22-.13,0-.12.15-.27.44-.46,1.79-1.19,2.99-3.02,3.61-5.5.01-.04.02-.11.02-.2,0-.22-.12-.39-.37-.51-1.22-.5-2.35-.82-3.41-.97-.44-.06-.79-.09-1.06-.09-.41,0-.68.22-.81.66-.85,2.99-1.95,4.79-3.3,5.39-.35.16-.65.24-.9.24-.87,0-1.43-.78-1.69-2.33-.06-.38-.09-.67-.09-.86ZM75.49,14.06c-.08.25-.12.52-.12.81,0,.47.1.88.31,1.22.21.34.48.51.84.49.59-.09,1.07-.44,1.44-1.07.37-.62.71-1.46,1.02-2.5.03-.12.04-.21.04-.26,0-.16-.05-.3-.15-.41-.1-.11-.24-.17-.42-.17-.06,0-.15.01-.26.04-.95.23-1.73.65-2.33,1.23-.16.15-.28.34-.36.59Z"/><path class="cls-1" d="M95.56,15.19c1.48.66,2.54,1.29,3.19,1.89.65.6.97,1.14.97,1.59,0,.25-.08.45-.25.6-.17.15-.37.23-.59.23-.14,0-.29-.05-.44-.14-.15-.11-.28-.24-.39-.4-.11-.16-.22-.39-.33-.67-.23-.55-.52-1.03-.84-1.43-.33-.4-.87-.79-1.64-1.15-.16-.08-.29-.17-.39-.26-.09-.09-.14-.18-.14-.25,0-.05.02-.08.06-.11.04-.03.1-.04.18-.04.19,0,.39.05.62.16Z"/><path class="cls-1" d="M107.07,9.17c1.38-.7,2.52-1.61,3.43-2.73.09-.13.13-.24.13-.33,0-.23-.16-.35-.48-.35h-4.11c-.59,0-1.3.03-2.13.09l-.53.04c-.15.01-.26-.03-.34-.12-.08-.1-.12-.2-.12-.32,0-.13.04-.24.12-.33.08-.09.19-.12.34-.11l.53.04c.92.06,1.64.09,2.13.09h4.8c.25,0,.44-.07.57-.21.13-.14.2-.33.2-.56v-.59c0-.25-.07-.44-.21-.56-.14-.12-.34-.18-.6-.16-.79.04-1.55.07-2.27.07-1.38,0-2.47-.08-3.28-.24-.12-.01-.21-.06-.26-.12s-.09-.14-.09-.23.04-.16.11-.22c.07-.06.18-.08.33-.07.57.04,1.22.07,1.94.07,1.92,0,3.82-.17,5.71-.5,1.88-.33,3.38-.86,4.5-1.59.22-.15.46-.22.73-.22s.48.08.66.24c.22.19.39.41.5.65.11.24.17.45.19.63v.02c0,.18-.08.26-.24.26-.1,0-.21-.05-.31-.15-.06-.06-.14-.09-.24-.09-.06,0-.22.04-.48.11-1.26.43-2.78.78-4.55,1.06-.47.09-.7.37-.7.84v.81c0,.23.07.42.21.56.14.14.33.21.56.21h4.38c.29,0,.54-.06.74-.19.2-.12.41-.3.63-.52.32-.32.65-.48.99-.48.19,0,.38.06.57.18.22.15.43.32.62.53.16.19.24.37.24.55,0,.16-.07.29-.2.4-.13.1-.32.15-.57.15l-7.06.02c-.15,0-.26.03-.35.09-.09.06-.13.14-.13.24,0,.12.06.23.18.35.98.95,2.18,1.73,3.59,2.32,1.41.59,2.95.97,4.62,1.13.19.01.29.09.29.22,0,.06-.03.11-.1.16-.07.05-.16.08-.27.08-.45,0-.81.08-1.07.24-.26.16-.41.34-.45.53-.04.21-.16.31-.35.31-.12,0-.24-.02-.37-.07-1.13-.35-2.22-.84-3.27-1.47-1.05-.63-1.96-1.36-2.74-2.18-.13-.15-.26-.22-.4-.22-.18,0-.26.15-.26.46v2.66c0,.26-.1.48-.3.65-.2.17-.41.25-.63.25-.15,0-.27-.05-.36-.14-.1-.1-.14-.23-.12-.41v-2.9c0-.31-.1-.46-.31-.46-.12,0-.23.05-.35.15-1.03.87-2.25,1.62-3.66,2.28-1.42.65-2.86,1.09-4.32,1.31h-.11c-.12,0-.21-.03-.28-.08-.07-.05-.1-.11-.1-.19,0-.15.11-.25.33-.31,1.47-.38,2.89-.92,4.27-1.63ZM106.3,11.64c0-.16.11-.24.33-.24.26,0,.48.04.65.11.17.07.34.17.52.29.18.12.3.18.37.18h8.1c.13,0,.26-.03.38-.1.12-.07.24-.14.34-.23.09-.07.18-.14.29-.21.1-.07.21-.1.31-.1.16,0,.37.07.63.22.26.15.48.32.67.51.19.19.29.34.29.46,0,.1-.02.18-.07.23-.04.05-.11.11-.2.19-.12.09-.21.18-.28.29-.07.1-.1.26-.1.46v6.09c0,.28-.1.5-.31.66-.21.16-.43.24-.68.24-.22,0-.36-.03-.41-.1-.05-.07-.08-.19-.08-.36,0-.26-.07-.47-.2-.63-.13-.15-.32-.23-.57-.23h-7.81c-.25,0-.44.05-.57.16-.13.11-.2.27-.2.47,0,.25-.1.43-.29.53-.19.1-.42.15-.68.15-.15,0-.27-.04-.36-.13-.1-.09-.14-.21-.14-.37l.07-8.54ZM107.71,14.52c0,.25.07.44.2.57.13.13.31.2.55.2l7.92.02c.23,0,.42-.07.55-.2.13-.13.2-.32.2-.57v-1.21c0-.25-.07-.44-.2-.57-.13-.13-.32-.2-.57-.2h-7.88c-.23,0-.42.07-.56.2-.14.13-.21.32-.21.57v1.19ZM107.71,17.97c0,.23.07.42.21.56.14.14.33.21.56.21l7.88.02c.25,0,.44-.07.57-.21.13-.14.2-.33.2-.56v-1.21c0-.25-.06-.44-.18-.57-.12-.13-.28-.2-.48-.2l-8.01.02c-.23,0-.42.07-.55.2-.13.13-.2.32-.2.57v1.17Z"/><path class="cls-1" d="M128.92,9.17c0-1.64.45-3.64,1.34-6.01.12-.29.18-.56.18-.81,0-.26-.1-.51-.31-.75-.09-.12-.13-.21-.13-.26,0-.12.07-.21.2-.26.13-.06.29-.08.46-.07.4.06.76.23,1.09.51.33.28.5.64.5,1.08,0,.31-.1.65-.29,1.01-.13.25-.32.54-.55.88-.26.4-.47.73-.6.99-.14.26-.22.52-.23.77v.11c0,.23.06.35.18.35.1,0,.21-.09.31-.26.26-.44.63-.84,1.09-1.19s.92-.57,1.38-.66c.28-.06.58-.09.9-.09.89,0,1.69.25,2.39.76.7.51,1.24,1.22,1.63,2.13.39.92.58,1.96.58,3.14,0,.82-.1,1.64-.29,2.46-.32,1.47-.95,2.71-1.88,3.72-.93,1.01-1.93,1.77-2.98,2.29-1.06.51-1.97.82-2.75.92l-.22.02c-.18,0-.31-.03-.41-.09-.1-.06-.14-.13-.14-.22,0-.1.06-.2.18-.29.12-.09.27-.14.46-.15,1.14-.12,2.17-.51,3.07-1.19.9-.67,1.64-1.52,2.2-2.53s.94-2.09,1.11-3.23c.09-.56.13-1.1.13-1.63,0-.98-.14-1.9-.42-2.74-.28-.84-.68-1.52-1.21-2.02-.53-.51-1.14-.76-1.83-.76-.18,0-.31,0-.4.02-.48.06-.94.3-1.35.73-.42.43-.76.94-1.03,1.53-.27.59-.43,1.17-.47,1.73-.01.15-.02.33-.02.55,0,.35.03.62.09.8.06.18.15.36.26.54.16.21.26.43.31.68.01.07.02.18.02.31,0,.31-.08.55-.25.74-.17.18-.37.27-.6.27-.29,0-.53-.13-.7-.4-.65-.89-.97-2.04-.97-3.43Z"/><path class="cls-1" d="M151.14,16.54c0-.85.34-1.58,1.03-2.2s1.54-1.17,2.55-1.67c.29-.13.41-.36.35-.68-.28-1.2-.87-1.8-1.76-1.8-.5,0-.95.21-1.35.63s-.85,1.07-1.35,1.97c-.18.28-.39.5-.64.66-.25.16-.48.21-.7.15-.18-.06-.31-.15-.4-.29-.09-.13-.13-.28-.13-.44,0-.15.03-.29.1-.43.07-.14.15-.25.25-.34,1.36-1.16,2.51-2.74,3.43-4.73.04-.09.07-.18.07-.26,0-.21-.13-.35-.4-.44-.59-.18-1.09-.45-1.5-.81-.72-.72-1.08-1.22-1.08-1.5,0-.07.04-.13.11-.18.1-.06.22-.05.36.03.14.08.32.22.54.41.29.23.51.4.66.48.04.01.19.1.45.25.26.15.56.27.91.34.32.04.54-.1.66-.44.28-.98.42-1.81.42-2.49s-.18-1.06-.53-1.06c-.13,0-.24-.03-.33-.1-.09-.07-.13-.14-.13-.21,0-.16.15-.24.44-.24.26,0,.58.05.94.15.36.1.67.27.95.49.27.23.41.51.41.85,0,.18-.04.39-.11.65-.07.26-.16.52-.26.78-.03.12-.09.29-.18.53-.03.07-.04.16-.04.26,0,.09.02.16.07.22.04.06.1.09.18.09s.17-.04.29-.11c.23-.12.54-.31.92-.57.13-.09.29-.13.46-.13.31,0,.61.11.9.33s.44.43.44.64c0,.16-.1.29-.29.4-.46.23-1,.45-1.64.66-.64.21-1.23.35-1.77.44-.28.06-.48.21-.62.44-.22.4-.56.98-1.03,1.74-.09.13-.13.25-.13.35,0,.18.14.23.42.18.26-.03.46-.04.59-.04.57,0,1.07.17,1.49.51.42.34.74.81.98,1.43.09.26.23.4.44.4.09,0,.18-.02.26-.07.44-.18.72-.28.84-.31.53-.21,1.06-.42,1.58-.64.53-.22.98-.43,1.34-.64.53-.32.79-.61.79-.86,0-.1-.04-.22-.12-.34-.08-.12-.12-.2-.12-.23,0-.04.04-.09.13-.13.12-.06.31,0,.59.17.28.17.53.39.76.66.23.27.34.53.34.78,0,.45-.39.77-1.17.95-.88.21-2.52.7-4.91,1.5-.31.1-.44.32-.4.66.03.41.04.74.04.99,0,.47-.02,1-.07,1.61-.06.48-.23.73-.53.73-.21,0-.4-.12-.58-.37-.18-.25-.27-.54-.27-.88,0-.12.01-.32.04-.62.04-.25.07-.49.07-.73,0-.15-.03-.26-.1-.34-.07-.08-.15-.12-.25-.12s-.21.03-.31.09c-.66.35-1.22.76-1.67,1.23-.45.47-.68.95-.68,1.43,0,.32.1.62.31.88.26.37.69.64,1.29.81.59.18,1.27.26,2.01.26.54,0,1.08-.04,1.63-.13.54-.09,1.01-.21,1.41-.35.21-.06.37-.09.48-.09.4,0,.77.11,1.13.34.36.23.54.45.54.67,0,.18-.15.31-.44.4-1.17.29-2.38.44-3.61.44-3.87,0-5.81-1.01-5.81-3.04Z"/><path class="cls-1" d="M172.8,18.59c-.73-.41-1.3-1.02-1.72-1.82-.42-.8-.63-1.76-.63-2.89s.24-2.2.71-3.35,1.23-2.31,2.26-3.47c.21-.22.31-.37.31-.46,0-.03-.01-.04-.04-.04-.09,0-.25.07-.48.2-.22.12-.49.21-.8.28-.32.07-.61.1-.89.1-.41,0-.82-.18-1.22-.54s-.69-.8-.87-1.33c-.04-.16-.07-.29-.07-.37,0-.21.07-.31.22-.31.12,0,.22.06.31.18.21.28.52.5.95.67.43.17.88.25,1.36.25,1.16,0,2.41-.37,3.76-1.12.18-.09.34-.13.48-.13.19,0,.34.07.45.21s.17.31.17.52c0,.38-.17.66-.51.84-1.69.84-2.94,1.91-3.75,3.23-.81,1.32-1.22,2.67-1.22,4.05,0,.95.16,1.77.48,2.46.32.69.76,1.22,1.32,1.58.56.37,1.19.55,1.91.55.88,0,1.73-.25,2.56-.74.83-.49,1.53-1.35,2.09-2.56.56-1.22.85-2.83.85-4.84,0-.62-.04-1.27-.11-1.95-.07-.68-.18-1.51-.31-2.48-.09-.51-.13-.84-.13-.99,0-.25.06-.44.17-.56.11-.12.25-.19.41-.19.23,0,.45.11.65.33.2.22.3.51.32.88.04,1.1.15,2.02.32,2.76.17.74.49,1.45.96,2.13.47.68,1.17,1.35,2.09,1.99.22.15.39.34.51.57.12.23.18.46.18.68,0,.23-.05.43-.17.58-.11.15-.27.23-.47.23-.7,0-1.34-.36-1.91-1.07-.57-.71-1.03-1.52-1.36-2.43-.1-.32-.19-.48-.26-.48-.06,0-.09.14-.09.42.04,1.29-.16,2.64-.6,4.05-.45,1.41-1.15,2.59-2.12,3.55-.97.96-2.17,1.44-3.61,1.44-.89,0-1.71-.21-2.43-.62Z"/><path class="cls-1" d="M194.91,18.46c-1.24-.66-1.81-1.85-1.71-3.56.07-1.57,1.2-2.87,3.37-3.89.28-.13.42-.31.42-.53,0-.13-.04-.29-.13-.46-.35-.63-.53-1.46-.53-2.49,0-.69.04-1.4.11-2.13.01-.21.03-.44.04-.69.01-.26.02-.53.02-.82,0-.47-.04-.85-.13-1.14-.09-.29-.25-.51-.48-.66-.19-.13-.29-.26-.29-.4,0-.07.03-.13.08-.18.05-.04.13-.07.23-.07s.22.02.35.07c.62.19,1.06.41,1.34.66.44.4.66.82.66,1.28,0,.22-.07.58-.2,1.08-.19.79-.3,1.46-.33,2l-.02,1.47c0,.78.05,1.36.15,1.74.09.34.3.51.64.51.06,0,.16-.01.31-.04,1.48-.47,2.45-.66,2.9-.57.29.06.52.18.67.35s.23.37.23.57c0,.25-.11.46-.33.64-.22.18-.53.26-.92.24-.13-.01-.35-.02-.66-.02-1.04,0-2.09.12-3.13.37-1.05.25-1.93.66-2.63,1.22-.7.56-1.06,1.29-1.06,2.19,0,.95.4,1.67,1.19,2.16.79.48,1.79.73,2.99.73.62,0,1.24-.07,1.87-.2.63-.13,1.22-.32,1.78-.55.22-.1.45-.15.7-.15.34,0,.61.11.82.32.21.21.32.45.32.72,0,.21-.07.39-.22.56-.15.17-.36.28-.64.34-1.09.23-2.27.35-3.54.35-1.6,0-3.02-.33-4.26-.99Z"/><path class="cls-1" d="M219.31,18.18c-.14-.08-.21-.17-.21-.28s.06-.19.19-.26c.12-.07.3-.11.52-.11,1.64-.03,3.02-.34,4.14-.92,1.11-.59,1.94-1.33,2.48-2.23.54-.9.8-1.84.8-2.83,0-.69-.13-1.34-.39-1.95-.26-.61-.63-1.11-1.11-1.51-.85-.7-1.79-1.06-2.82-1.06s-2.06.27-3.09.82c-1.03.55-2.23,1.32-3.6,2.3-.88.62-1.36.95-1.43.99-.45.29-.94.44-1.45.44-.57,0-1.11-.16-1.61-.48-.5-.32-.88-.68-1.14-1.08-.13-.21-.2-.37-.2-.48,0-.15.08-.22.24-.22.1,0,.24.04.42.13.28.16.52.29.73.37.21.09.46.13.77.13.5,0,1.07-.16,1.72-.48l1.01-.51c1.73-.89,3.18-1.57,4.36-2.02,1.17-.45,2.33-.68,3.48-.68,1.53,0,2.9.48,4.14,1.45.57.44,1.02,1,1.33,1.67.31.67.47,1.39.47,2.16,0,1.1-.33,2.15-.99,3.16-.66,1-1.68,1.84-3.05,2.51-1.37.67-3.07,1.02-5.09,1.07-.26.01-.47-.02-.6-.1Z"/><path class="cls-1" d="M234.26,13.22c0-1.06.1-2.19.3-3.4.2-1.21.49-2.64.87-4.28.06-.32.09-.54.09-.66,0-.62-.22-1.19-.66-1.72-.07-.1-.11-.18-.11-.24,0-.13.09-.2.26-.2.09,0,.15.01.2.04.38.21.77.58,1.16,1.13.39.55.58,1.1.58,1.64,0,.28-.05.53-.15.75-.91,1.99-1.36,3.99-1.36,5.98,0,.62.04,1.17.13,1.65.09.48.19.87.31,1.14.12.28.23.42.33.42.07,0,.13-.11.18-.33.13-.79.3-1.5.52-2.12.21-.62.47-1.27.78-1.95.15-.31.28-.46.4-.46s.18.11.18.33c0,.15-.03.3-.09.46-.28.84-.53,1.7-.76,2.58-.23.89-.34,1.79-.34,2.7,0,.43.03.79.09,1.1.03.21.04.34.04.4,0,.26-.06.46-.19.59-.12.13-.28.2-.47.2-.18,0-.35-.05-.53-.14-.18-.1-.31-.21-.4-.34-.89-1.44-1.34-3.2-1.34-5.28ZM242.15,16.95c-.88-.73-1.32-1.65-1.32-2.78,0-.4.05-.82.15-1.28.04-.19.16-.45.34-.78.18-.33.33-.49.45-.47.15,0,.22.06.22.18,0,.07-.04.21-.13.42-.09.21-.15.37-.2.48-.12.31-.18.62-.18.92,0,.48.15.94.44,1.38.29.43.75.78,1.38,1.05.62.26,1.4.4,2.34.4s1.81-.11,2.75-.33c.15-.03.25-.04.31-.04.35,0,.66.1.92.31.26.21.4.43.4.66s-.15.4-.46.51c-.63.21-1.57.33-2.82.37-2.19.07-3.72-.25-4.6-.98ZM243.74,9.15c-.1,0-.15-.06-.15-.18s.07-.27.22-.46c.19-.22.49-.49.89-.81.4-.32.73-.57.98-.75.07-.04.11-.09.11-.13,0-.09-.13-.16-.38-.21-.26-.05-.65-.11-1.18-.17l-.95-.13c-.44-.09-.85-.25-1.24-.47-.39-.23-.66-.44-.82-.65-.06-.07-.09-.14-.09-.2,0-.07.03-.13.1-.16s.14-.06.21-.06c.12,0,.27.06.46.18.04.01.16.06.35.14.19.08.41.14.66.19.45.07.96.11,1.52.11.67,0,1.72-.07,3.15-.22.41-.04.74.02,1,.2.26.18.38.34.38.51,0,.23-.13.43-.38.59-.26.16-.7.37-1.33.62-.72.28-1.32.55-1.79.8-.48.26-.91.59-1.29,1-.15.18-.29.26-.42.26Z"/><path class="cls-1" d="M258.98,14.5c.54.54.81,1.2.81,1.96,0,.5-.12.96-.37,1.4-.25.43-.59.77-1.02,1.02s-.9.37-1.4.37-.96-.12-1.39-.37-.76-.59-1.01-1.02c-.25-.43-.37-.9-.37-1.4s.12-.96.37-1.39c.25-.43.59-.76,1.01-1.01.43-.25.89-.37,1.39-.37.78,0,1.44.27,1.98.81ZM258.53,17.97c.42-.43.63-.93.63-1.52s-.21-1.11-.63-1.53-.93-.63-1.53-.63-1.09.21-1.51.63c-.42.42-.63.93-.63,1.53s.21,1.11.63,1.53c.42.42.92.63,1.51.63s1.11-.21,1.53-.64Z"/></g></svg>