<?xml version="1.0" encoding="UTF-8"?><svg id="_レイヤー_2" xmlns="http://www.w3.org/2000/svg" viewBox="0 0 88 40"><defs><style>.cls-1{fill:#e45277;}.cls-1,.cls-2{stroke-width:0px;}.cls-2{fill:#479ace;}</style></defs><g id="text"><path class="cls-1" d="M68,0c-11.05,0-20,8.95-20,20s8.95,20,20,20,20-8.95,20-20S79.05,0,68,0ZM62.81,18.38c-.19.81-.55,1.6-.88,2.26-.33.66-.56,1.17-.7,1.69-.14.51-.2,1.03-.21,1.55-.02,1.08.1,2.05.29,2.8.18.75.45,1.4.58,1.96.13.55.06.96-.28,1.15-.34.19-.77.11-1.31-.21-.53-.32-1.25-.94-1.82-1.95-.29-.5-.52-1.08-.69-1.7-.17-.62-.27-1.27-.32-1.98-.04-.72,0-1.51.2-2.32.19-.81.55-1.61.88-2.26.33-.66.56-1.17.7-1.69.14-.51.2-1.03.21-1.55.02-1.08-.1-2.05-.29-2.8-.18-.75-.45-1.4-.58-1.95-.13-.55-.06-.96.28-1.15.34-.19.77-.11,1.31.21.53.32,1.25.94,1.82,1.95.28.5.52,1.08.69,1.7.17.62.27,1.26.32,1.98.04.72,0,1.51-.2,2.32ZM70.96,18.06c-.17.88-.51,1.76-.83,2.51-.32.75-.56,1.36-.69,1.97-.14.61-.19,1.22-.2,1.83,0,1.25.14,2.37.34,3.24.2.88.49,1.62.62,2.23.13.61.06,1.05-.29,1.22-.35.17-.79.05-1.35-.35-.55-.39-1.28-1.13-1.84-2.24-.57-1.12-.91-2.49-1.02-4.02-.05-.78-.02-1.63.16-2.51.17-.88.51-1.76.83-2.51.32-.75.56-1.36.69-1.97.14-.61.19-1.22.2-1.83,0-1.25-.14-2.37-.34-3.24-.2-.88-.49-1.62-.62-2.23-.13-.61-.06-1.05.29-1.22.35-.17.79-.05,1.35.35.55.39,1.28,1.12,1.85,2.24.57,1.12.91,2.49,1.02,4.02.05.78.02,1.63-.16,2.51ZM78.98,18.38c-.19.81-.55,1.6-.88,2.26-.32.66-.56,1.17-.7,1.69-.14.51-.2,1.03-.21,1.55-.02,1.08.1,2.05.29,2.8.18.75.45,1.4.58,1.96.13.55.06.96-.28,1.15-.34.19-.77.11-1.31-.21-.53-.32-1.25-.94-1.82-1.95-.29-.5-.52-1.08-.69-1.7-.17-.62-.27-1.27-.32-1.98-.04-.72,0-1.51.2-2.32.19-.81.55-1.61.88-2.26.32-.66.56-1.17.7-1.69.14-.51.2-1.03.21-1.55.02-1.08-.1-2.05-.29-2.8-.18-.75-.45-1.4-.58-1.95-.13-.55-.06-.96.28-1.15.33-.19.77-.11,1.31.21.53.32,1.25.94,1.82,1.95.28.5.52,1.08.69,1.7.17.62.28,1.27.32,1.99.04.72,0,1.51-.2,2.32Z"/><path class="cls-2" d="M20,0C8.95,0,0,8.95,0,20s8.95,20,20,20,20-8.95,20-20S31.05,0,20,0ZM31.82,16.95c.1.06.18.16.21.28.03.12.01.24-.05.35l-.8,1.38c-.13.22-.4.29-.62.17l-3.21-1.85-4.71,2.72,4.71,2.72,3.21-1.85c.1-.06.23-.08.35-.04.12.03.22.11.28.21l.8,1.38c.13.22.05.5-.17.62l-1.95,1.13,2.88,1.66c.1.06.18.16.21.28.03.12.01.24-.05.35l-.8,1.38c-.06.1-.16.18-.28.21-.12.03-.24.01-.35-.05l-2.88-1.66v2.26c0,.25-.2.45-.45.45h-1.6c-.12,0-.24-.05-.32-.13-.09-.09-.13-.2-.13-.32v-3.71s-4.72-2.72-4.72-2.72v5.44l3.21,1.86c.22.13.29.4.17.62l-.8,1.38c-.13.22-.41.29-.62.17l-1.95-1.13v3.33c0,.25-.2.45-.45.45h-1.6c-.25,0-.45-.2-.45-.45v-3.33l-1.95,1.13c-.22.12-.5.05-.62-.17l-.8-1.38c-.13-.22-.05-.5.17-.62l3.21-1.86v-5.44l-4.72,2.72v3.71c0,.12-.05.24-.14.32-.09.08-.2.13-.32.13h-1.6c-.25,0-.45-.21-.45-.46v-2.26s-2.88,1.66-2.88,1.66c-.11.06-.23.07-.35.05-.12-.03-.22-.11-.28-.21l-.8-1.38c-.06-.1-.08-.23-.05-.35.03-.12.11-.22.21-.28l2.88-1.66-1.95-1.13c-.22-.13-.29-.4-.17-.62l.8-1.38c.06-.1.16-.18.28-.21.12-.03.24-.01.35.04l3.21,1.85,4.71-2.72-4.72-2.72-3.21,1.85c-.22.13-.49.05-.62-.17l-.8-1.38c-.06-.1-.08-.23-.05-.35.03-.12.11-.22.21-.28l1.95-1.13-2.88-1.66c-.1-.06-.18-.16-.21-.28-.03-.12-.01-.24.05-.35l.8-1.38c.13-.22.4-.29.62-.17l2.88,1.66v-2.26c0-.25.2-.45.45-.45h1.6c.12,0,.24.05.32.13.09.09.13.2.13.32v3.71s4.72,2.72,4.72,2.72v-5.44l-3.21-1.86c-.22-.13-.29-.4-.17-.62l.8-1.38c.06-.1.16-.18.28-.21.12-.03.24-.01.35.05l1.95,1.13v-3.33c0-.25.2-.45.45-.45h1.6c.25,0,.45.2.45.45v3.33l1.95-1.13c.1-.06.23-.08.35-.05.12.03.22.11.28.21l.8,1.38c.13.22.05.5-.17.62l-3.21,1.86v5.44l4.71-2.72v-3.71c0-.12.05-.24.14-.32.09-.08.2-.13.32-.13h1.6c.12,0,.24.05.32.14.08.09.13.2.13.32v2.26s2.88-1.66,2.88-1.66c.22-.13.5-.05.62.17l.8,1.38c.06.1.08.23.05.35-.03.12-.11.22-.21.28l-2.88,1.66,1.95,1.13Z"/></g></svg>