<?xml version="1.0" encoding="UTF-8"?><svg id="_レイヤー_2" xmlns="http://www.w3.org/2000/svg" viewBox="0 0 180 40"><defs><style>.cls-1{fill:#005c3f;}.cls-1,.cls-2{stroke-width:0px;}.cls-3{isolation:isolate;}.cls-2{fill:#fff;}</style></defs><g id="text"><path class="cls-2" d="M20,39.5C9.25,39.5.5,30.75.5,20S9.25.5,20,.5h140c10.75,0,19.5,8.75,19.5,19.5s-8.75,19.5-19.5,19.5H20Z"/><path class="cls-1" d="M160,1c10.48,0,19,8.52,19,19s-8.52,19-19,19H20C9.52,39,1,30.48,1,20S9.52,1,20,1h140M160,0H20C9,0,0,9,0,20s9,20,20,20h140c11,0,20-9,20-20S171,0,160,0h0Z"/><g id="_商品から探す" class="cls-3"><g class="cls-3"><path class="cls-1" d="M51.43,19.15c.5.17,1.02.3,1.53.39.52.09,1.03.16,1.54.19s1,.05,1.46.05c.43,0,.89-.01,1.39-.04.5-.03.97-.07,1.42-.13l-.04,1.67c-.39.04-.79.07-1.2.09-.41.02-.84.04-1.27.04-.93,0-1.83-.05-2.69-.15-.86-.1-1.61-.23-2.24-.41l.1-1.69ZM51.73,15.68c.42.13.88.24,1.37.33.5.09,1,.15,1.53.2.52.04,1.02.06,1.48.06.55,0,1.06-.02,1.54-.06.48-.04.89-.08,1.25-.14l-.06,1.67c-.42.04-.84.07-1.26.1s-.92.04-1.51.04c-.48,0-.97-.03-1.48-.08-.51-.05-1.02-.12-1.53-.21-.5-.09-.98-.19-1.41-.3l.08-1.61ZM56.73,13.94c-.06.25-.1.48-.14.67-.04.2-.07.39-.1.57-.04.2-.08.48-.13.85-.05.37-.11.78-.17,1.25-.06.46-.12.94-.18,1.44s-.12.99-.17,1.46c-.06.48-.1.91-.13,1.3-.03.39-.05.71-.05.94,0,.58.18,1.02.53,1.32.35.3.87.46,1.56.46.65,0,1.2-.09,1.65-.27.45-.18.79-.43,1.02-.74.23-.31.35-.65.35-1.04,0-.48-.12-.94-.37-1.39-.25-.45-.6-.89-1.07-1.32l1.97-.42c.47.59.81,1.15,1.03,1.67.22.53.33,1.09.33,1.69,0,.7-.2,1.33-.6,1.88s-.97.98-1.71,1.29c-.74.31-1.63.46-2.65.46-.73,0-1.38-.11-1.95-.34s-1.01-.58-1.33-1.06c-.32-.48-.48-1.12-.48-1.89,0-.29.02-.68.07-1.16s.1-1.01.17-1.6.14-1.18.22-1.78c.08-.6.14-1.17.2-1.71s.11-1.01.15-1.4c.02-.33.03-.58.03-.75,0-.17,0-.34-.02-.5l1.97.11Z"/><path class="cls-1" d="M66.44,19.23c.21-.05.46-.11.74-.18s.53-.14.74-.2c.23-.07.55-.17.94-.29.39-.12.82-.24,1.3-.37.47-.12.95-.22,1.43-.31.48-.08.94-.13,1.37-.13.74,0,1.38.14,1.94.41s.99.67,1.29,1.18c.31.51.46,1.12.46,1.83,0,.63-.14,1.21-.41,1.74s-.69.98-1.25,1.37c-.56.39-1.26.71-2.09.96-.83.25-1.81.4-2.92.47l-.74-1.72c.8-.02,1.54-.09,2.22-.21.68-.12,1.26-.29,1.76-.52.5-.23.89-.52,1.16-.88.27-.36.41-.77.41-1.23,0-.36-.08-.67-.25-.93-.16-.27-.39-.47-.69-.62-.3-.15-.65-.22-1.06-.22-.33,0-.69.04-1.09.12s-.81.19-1.24.32c-.42.13-.84.27-1.25.42-.41.15-.79.29-1.15.43s-.65.26-.88.37l-.73-1.82Z"/><path class="cls-1" d="M90.38,16.99c-.21.13-.42.26-.65.38-.23.12-.47.25-.74.38-.21.11-.48.24-.79.39-.31.15-.65.31-1.01.5s-.72.37-1.08.57c-.36.2-.71.4-1.02.61-.58.38-1.05.78-1.41,1.19s-.54.86-.54,1.36.24.88.73,1.14c.49.27,1.21.4,2.18.4.49,0,1-.02,1.55-.06.55-.04,1.08-.1,1.62-.18.53-.08,1-.17,1.41-.27l-.03,2.02c-.39.06-.82.12-1.28.18s-.96.1-1.5.12c-.54.03-1.11.04-1.71.04-.7,0-1.35-.05-1.94-.16-.59-.11-1.11-.28-1.55-.53s-.79-.57-1.04-.98-.37-.91-.37-1.51.13-1.14.39-1.62c.26-.48.62-.93,1.07-1.34.45-.41.95-.8,1.49-1.16.34-.22.69-.44,1.06-.65.37-.21.74-.41,1.1-.61.36-.2.7-.38,1.01-.54.31-.16.57-.3.78-.43.27-.16.51-.3.71-.44s.4-.27.59-.42l.97,1.62ZM83.34,14c.23.62.48,1.21.74,1.78.26.57.51,1.1.77,1.6.26.5.49.94.71,1.33l-1.58.94c-.25-.43-.51-.91-.78-1.44-.27-.53-.54-1.09-.81-1.69-.27-.59-.53-1.19-.78-1.8l1.75-.71Z"/><path class="cls-1" d="M97.23,21.42h1.79c-.06.63-.16,1.21-.3,1.74s-.38,1-.7,1.42-.78.79-1.37,1.1c-.59.31-1.35.58-2.3.79-.05-.16-.12-.33-.23-.51s-.22-.36-.35-.55c-.13-.18-.25-.33-.37-.44.81-.15,1.46-.33,1.95-.55.49-.22.86-.47,1.11-.76s.44-.62.54-.99c.1-.37.18-.79.22-1.25ZM95.45,13.7h9.2v8.26h-9.2v-8.26ZM97.07,15.16v.87h5.87v-.87h-5.87ZM97.07,17.39v.87h5.87v-.87h-5.87ZM97.07,19.63v.88h5.87v-.88h-5.87ZM100.64,20.84h1.72v3.35c0,.22.03.37.1.43s.24.09.5.09h1.47c.16,0,.28-.04.36-.12s.14-.26.18-.53c.04-.27.07-.68.08-1.23.12.09.27.19.46.28.18.09.37.17.57.24.2.06.37.12.51.17-.06.74-.15,1.31-.29,1.71-.14.41-.34.69-.62.85-.27.16-.64.24-1.11.24h-1.86c-.55,0-.98-.07-1.28-.2-.3-.13-.51-.35-.63-.66-.12-.31-.17-.72-.17-1.25v-3.36Z"/><path class="cls-1" d="M110.36,14.49c.2.03.41.05.63.05.22,0,.44.02.64.02.15,0,.37,0,.67,0s.64-.01,1.02-.02c.38,0,.75-.02,1.13-.03.37,0,.71-.02,1.01-.04s.54-.03.71-.04c.29-.03.52-.05.69-.08s.29-.05.38-.08l.91,1.25c-.16.1-.32.21-.49.31s-.33.21-.49.34c-.19.13-.41.3-.67.51-.26.21-.54.43-.83.66-.29.23-.58.46-.85.69-.28.22-.52.43-.75.6.23-.05.46-.09.67-.12.21-.02.43-.04.66-.04.79,0,1.5.15,2.14.46.63.31,1.13.73,1.5,1.25.37.53.55,1.13.55,1.81,0,.74-.19,1.4-.56,2s-.94,1.07-1.69,1.43c-.75.36-1.69.53-2.82.53-.64,0-1.22-.09-1.74-.28-.52-.19-.93-.45-1.22-.8-.3-.35-.45-.75-.45-1.22,0-.38.11-.74.32-1.07.21-.33.5-.6.88-.81.38-.21.81-.31,1.31-.31.64,0,1.19.13,1.63.38.44.26.78.6,1.02,1.03s.36.9.37,1.41l-1.64.22c0-.51-.14-.93-.39-1.24s-.58-.47-.99-.47c-.26,0-.47.07-.63.2-.16.13-.24.29-.24.47,0,.26.13.47.39.63.26.16.6.24,1.02.24.79,0,1.46-.1,1.99-.29.53-.19.93-.46,1.2-.83.27-.36.4-.79.4-1.28,0-.42-.13-.79-.38-1.11-.26-.32-.6-.56-1.04-.74-.44-.18-.93-.27-1.48-.27s-1.04.07-1.48.2c-.45.14-.87.33-1.27.57-.4.25-.78.55-1.16.9s-.75.74-1.13,1.17l-1.27-1.31c.25-.21.54-.44.85-.69.32-.26.64-.53.97-.8.33-.28.64-.54.94-.79.29-.25.54-.46.75-.62.2-.16.42-.35.69-.56s.53-.44.81-.67c.28-.23.55-.45.8-.66.25-.21.46-.39.63-.54-.14,0-.32,0-.55.01-.22,0-.47.02-.74.03-.27,0-.53.02-.8.03-.27,0-.51.02-.74.04s-.42.03-.57.04c-.19,0-.38.02-.59.04-.21.02-.39.04-.56.07l-.06-1.82Z"/><path class="cls-1" d="M140.4,23.35l-3.75-3.75-.44-.44.88-.88.44.44,3.31,3.31,3.31-3.31.44-.44.88.88-.44.44-3.75,3.75-.44.44-.44-.44Z"/></g></g></g></svg>