<?xml version="1.0" encoding="UTF-8"?><svg id="_レイヤー_2" xmlns="http://www.w3.org/2000/svg" viewBox="0 0 190 34"><defs><style>.cls-1{fill:#005c3f;}.cls-1,.cls-2{stroke-width:0px;}.cls-3{isolation:isolate;}.cls-2{fill:#fff;}</style></defs><g id="menu"><path class="cls-1" d="M19,33.5C8.8,33.5.5,26.1.5,17S8.8.5,19,.5h152c10.2,0,18.5,7.4,18.5,16.5s-8.3,16.5-18.5,16.5H19Z"/><path class="cls-1" d="M171,1c9.93,0,18,7.18,18,16s-8.07,16-18,16H19c-9.93,0-18-7.18-18-16S9.07,1,19,1h152M171,0H19C8.55,0,0,7.65,0,17s8.55,17,19,17h152c10.45,0,19-7.65,19-17S181.45,0,171,0h0Z"/><g id="_商品から探す" class="cls-3"><g class="cls-3"><path class="cls-2" d="M35.63,18.26c-.07.26-.13.51-.18.76-.05.25-.08.5-.08.75,0,.49.24.89.73,1.19s1.27.46,2.35.46c.68,0,1.34-.02,1.97-.07.63-.05,1.23-.12,1.79-.2.56-.08,1.06-.19,1.5-.31v2.1c-.42.1-.9.19-1.45.27s-1.13.14-1.75.19-1.29.07-1.99.07c-1.15,0-2.11-.13-2.87-.38-.76-.25-1.33-.62-1.72-1.1-.39-.47-.58-1.06-.58-1.75,0-.43.03-.83.1-1.19.07-.37.13-.69.18-.97l1.98.18ZM34.37,11.9c.55.07,1.17.12,1.86.15.69.03,1.43.05,2.22.05.5,0,1.01-.01,1.53-.03.52-.02,1.02-.05,1.52-.08.49-.03.92-.07,1.31-.1v1.99c-.35.02-.77.04-1.27.08s-1.01.06-1.54.08c-.54.02-1.04.03-1.52.03-.78,0-1.51-.02-2.18-.05s-1.31-.07-1.92-.11v-2ZM43.19,10.36c.13.18.27.39.41.64s.29.5.43.75c.14.25.26.47.36.66l-1.21.53c-.15-.31-.33-.67-.55-1.07-.21-.4-.42-.75-.62-1.04l1.18-.48ZM44.97,9.68c.13.19.27.41.42.66.15.25.3.5.44.74.14.25.26.46.35.64l-1.2.51c-.16-.31-.35-.66-.57-1.06-.22-.39-.44-.73-.65-1.01l1.2-.48Z"/><path class="cls-2" d="M48.59,20.3l1.56.36c-.19.63-.44,1.25-.77,1.85-.32.61-.66,1.11-1.02,1.52-.09-.09-.22-.19-.39-.3-.17-.11-.34-.22-.51-.33s-.31-.2-.44-.25c.34-.36.65-.79.92-1.3.27-.51.49-1.03.64-1.55ZM47.87,10.48h4.59v9.72h-4.59v-9.72ZM49.4,11.9v1.38h1.48v-1.38h-1.48ZM49.4,14.62v1.41h1.48v-1.41h-1.48ZM49.4,17.35v1.41h1.48v-1.41h-1.48ZM50.34,20.84l1.33-.57c.25.38.5.8.74,1.25s.43.85.56,1.19l-1.4.66c-.07-.23-.17-.49-.31-.79-.14-.29-.29-.59-.45-.9-.17-.3-.33-.59-.49-.85ZM52.65,20.3h8.58v1.28h-8.58v-1.28ZM52.73,14.69h8.49v1.26h-8.49v-1.26ZM52.97,11.08h7.96v1.26h-7.96v-1.26ZM53.33,12.89h7.38v1.2h-7.38v-1.2ZM53.45,16.52h6.15v1.26h-4.54v6.24h-1.6v-7.5ZM54.24,18.46h5.34v1.12h-5.34v-1.12ZM54.6,9.92h1.56v5.33h-1.56v-5.33ZM56.16,15.28h1.56v5.38h-1.56v-5.38ZM58.89,16.52h1.63v5.85c0,.37-.04.66-.13.88-.08.21-.25.38-.5.5-.26.12-.57.19-.92.22-.35.02-.78.04-1.28.04-.03-.22-.09-.46-.18-.73-.09-.27-.19-.5-.29-.71.29,0,.58.01.86.01h.56c.09,0,.15-.02.19-.05.04-.03.05-.09.05-.17v-5.83ZM57.71,9.92h1.59v5.33h-1.59v-5.33Z"/><path class="cls-2" d="M68.19,14.05l2.06.38c-.34,1.48-.8,2.83-1.37,4.04s-1.25,2.28-2.05,3.2-1.71,1.7-2.75,2.33c-.11-.13-.27-.29-.47-.47-.2-.19-.41-.37-.62-.55-.21-.19-.4-.33-.56-.44,1.57-.79,2.82-1.9,3.75-3.34.93-1.43,1.6-3.14,2.01-5.12ZM65.46,10.75h4.26v1.83h-4.26v-1.83ZM68.84,10.75h1.86c0,.48.02,1.02.06,1.63.04.6.12,1.25.25,1.93.13.69.33,1.39.58,2.11.26.72.61,1.43,1.04,2.14.44.71.98,1.38,1.64,2.03.66.65,1.45,1.25,2.37,1.8-.13.1-.29.25-.48.43s-.37.39-.55.59c-.18.2-.32.39-.43.55-.94-.58-1.75-1.23-2.44-1.96s-1.27-1.5-1.74-2.31c-.47-.81-.85-1.64-1.14-2.47-.29-.83-.51-1.65-.66-2.45s-.25-1.54-.3-2.23c-.05-.69-.07-1.29-.07-1.8Z"/><path class="cls-2" d="M81.57,11.08c-.03.1-.07.24-.13.42-.06.18-.1.36-.14.53s-.06.3-.08.39c-.05.21-.1.49-.17.85-.06.36-.12.75-.19,1.2s-.13.9-.19,1.37c-.06.46-.1.9-.13,1.32-.03.42-.04.77-.04,1.07,0,.15,0,.31,0,.49,0,.17.02.34.05.49.07-.18.14-.36.22-.53s.15-.34.23-.51.15-.34.23-.51l.92.75c-.14.41-.28.84-.43,1.29s-.27.88-.39,1.27c-.12.4-.2.74-.26,1-.02.1-.04.22-.05.36-.01.14-.02.25-.02.34,0,.08,0,.18,0,.29,0,.11.01.22.02.32l-1.7.13c-.16-.53-.3-1.21-.42-2.03-.12-.83-.18-1.75-.18-2.77,0-.56.02-1.15.07-1.76.05-.61.11-1.21.17-1.78.06-.57.13-1.09.2-1.57.07-.47.12-.86.17-1.15.03-.21.06-.45.09-.71.03-.26.05-.52.06-.76l2.07.18ZM88.89,10.91c-.02.14-.04.29-.05.46-.02.17-.03.34-.04.51-.01.16-.02.38-.03.64,0,.27-.01.57-.01.91v1.06c0,.68,0,1.32.03,1.91.02.59.04,1.14.08,1.65.03.5.06.97.08,1.39.02.42.04.81.04,1.17,0,.39-.05.75-.16,1.08s-.27.62-.5.87c-.23.25-.53.44-.91.58s-.83.2-1.37.2c-1.04,0-1.86-.21-2.46-.63-.6-.42-.9-1.02-.9-1.81,0-.51.14-.96.4-1.34.27-.38.66-.68,1.16-.9.5-.22,1.09-.32,1.77-.32s1.35.08,1.94.23c.58.15,1.11.35,1.59.6s.91.52,1.28.82.71.58,1.01.85l-1.03,1.58c-.57-.54-1.12-1-1.67-1.4-.54-.39-1.08-.69-1.61-.9s-1.09-.32-1.66-.32c-.42,0-.76.08-1.03.24s-.4.38-.4.67.14.52.41.66c.27.14.6.21.99.21.31,0,.56-.05.74-.16.18-.11.31-.26.38-.46.07-.21.11-.45.11-.74,0-.26,0-.6-.03-1.02s-.04-.89-.07-1.41c-.03-.52-.05-1.06-.07-1.63-.02-.56-.03-1.12-.03-1.66,0-.57,0-1.09,0-1.55,0-.46,0-.81,0-1.04,0-.11,0-.26-.03-.46-.02-.2-.04-.38-.08-.53h2.15ZM83.19,13.45c.43.04.86.07,1.3.1.44.02.88.04,1.33.04.92,0,1.83-.04,2.74-.12s1.75-.2,2.52-.38v1.88c-.78.11-1.62.2-2.53.26-.91.07-1.82.1-2.73.1-.44,0-.88,0-1.31-.02-.44-.01-.87-.04-1.31-.07v-1.79Z"/><path class="cls-2" d="M97.16,18.11c-.07.26-.13.51-.18.76-.05.25-.08.5-.08.75,0,.48.24.88.73,1.19.48.31,1.27.46,2.35.46.68,0,1.33-.03,1.96-.08s1.23-.12,1.79-.21,1.07-.2,1.51-.32v2.12c-.43.1-.92.19-1.46.26s-1.12.13-1.75.18c-.62.04-1.29.07-1.99.07-1.14,0-2.09-.12-2.86-.38s-1.35-.61-1.73-1.09-.57-1.06-.57-1.75c0-.44.03-.84.1-1.2.07-.36.13-.68.19-.96l1.96.18ZM95.9,11.75c.55.06,1.17.11,1.86.14.69.03,1.43.04,2.22.04.49,0,1,0,1.52-.03s1.03-.04,1.52-.08c.49-.03.92-.06,1.31-.1v1.99c-.35.03-.77.06-1.27.09-.5.03-1.01.05-1.54.07-.54.01-1.04.02-1.52.02-.78,0-1.51-.02-2.18-.04-.67-.03-1.31-.07-1.92-.12v-1.98Z"/><path class="cls-2" d="M109.49,12.46c.48.08,1,.15,1.56.2.56.05,1.07.08,1.54.08s1.01-.01,1.58-.04c.57-.03,1.18-.08,1.82-.13.64-.06,1.28-.14,1.93-.23.65-.1,1.28-.21,1.9-.34l.03,1.79c-.48.08-1.02.16-1.63.24s-1.24.15-1.9.22c-.66.07-1.31.12-1.95.16-.64.04-1.23.06-1.77.06-.58,0-1.13-.01-1.66-.04-.52-.03-1.01-.06-1.46-.1v-1.86ZM114.72,10.7c-.08.26-.15.52-.2.77-.05.25-.11.51-.16.76-.05.24-.11.51-.17.83-.07.31-.14.64-.21.98-.08.34-.16.69-.24,1.04-.08.35-.17.69-.26,1.03-.09.34-.17.64-.25.92.61-.34,1.21-.58,1.81-.73.6-.14,1.23-.22,1.91-.22.81,0,1.52.14,2.12.41.6.27,1.07.65,1.41,1.12.33.48.5,1.04.5,1.68,0,.84-.19,1.55-.58,2.13-.39.58-.94,1.04-1.65,1.37s-1.57.54-2.56.63c-1,.09-2.1.07-3.31-.06l-.53-1.94c.82.14,1.62.21,2.41.21s1.49-.08,2.12-.23c.63-.15,1.13-.39,1.51-.73s.56-.78.56-1.33c0-.45-.19-.84-.57-1.16-.38-.32-.94-.49-1.67-.49-.87,0-1.67.15-2.39.45s-1.31.74-1.76,1.3c-.07.11-.14.22-.2.32-.07.1-.14.21-.22.34l-1.77-.63c.28-.54.54-1.16.78-1.84.24-.69.45-1.38.65-2.08.19-.7.34-1.35.46-1.96.12-.6.21-1.1.25-1.48.05-.32.08-.59.09-.82,0-.22,0-.46-.02-.7l2.13.09Z"/><path class="cls-2" d="M128.33,13.6c-.05.2-.1.46-.16.77-.06.31-.11.64-.16.98-.05.34-.1.67-.14.97-.04.31-.08.57-.11.78.68-.49,1.39-.85,2.14-1.08.74-.23,1.51-.34,2.29-.34.88,0,1.63.16,2.25.48.62.32,1.09.74,1.42,1.26.32.52.49,1.09.49,1.7,0,.68-.15,1.31-.44,1.89-.29.58-.76,1.08-1.42,1.49s-1.52.7-2.6.87c-1.07.17-2.38.19-3.94.06l-.57-1.96c1.5.2,2.76.23,3.78.08,1.02-.15,1.79-.44,2.32-.87.53-.44.79-.97.79-1.6,0-.33-.1-.62-.28-.88-.19-.25-.46-.45-.8-.6-.34-.14-.73-.22-1.15-.22-.84,0-1.63.15-2.36.46-.74.3-1.34.74-1.81,1.31-.13.16-.24.31-.32.44s-.16.28-.23.43l-1.73-.44c.06-.29.12-.63.18-1.03.06-.39.12-.82.18-1.28.06-.45.11-.91.17-1.37.05-.46.09-.92.13-1.37s.07-.86.09-1.23l2.01.29ZM128.24,10.58c.36.11.81.23,1.35.34.54.12,1.1.24,1.7.35.59.12,1.15.21,1.67.29s.95.14,1.28.18l-.45,1.83c-.3-.04-.66-.1-1.09-.17-.43-.08-.88-.16-1.35-.25-.48-.09-.94-.18-1.4-.28-.46-.09-.88-.19-1.26-.28s-.69-.17-.93-.23l.48-1.8Z"/><path class="cls-2" d="M158.99,14.29l3.44,3.28c.09.09.15.21.15.34s-.05.25-.15.34l-3.44,3.28c-.19.18-.48.17-.66-.02-.18-.19-.17-.48.02-.66l2.59-2.47h-6.64c-.26,0-.47-.21-.47-.47s.21-.47.47-.47h6.64l-2.59-2.47c-.19-.18-.19-.48-.02-.66.18-.19.46-.19.66-.02Z"/></g></g></g></svg>