<?xml version="1.0" encoding="UTF-8"?><svg id="_レイヤー_2" xmlns="http://www.w3.org/2000/svg" viewBox="0 0 25.6 18"><defs><style>.cls-1{fill:#fff;stroke-width:0px;}</style></defs><g id="text"><path class="cls-1" d="M25.6,9.02s0,4.19-.53,6.2c-.29,1.11-1.16,1.95-2.26,2.24-2,.54-10,.54-10,.54,0,0-8.01,0-10-.54-1.1-.3-1.97-1.13-2.26-2.24-.53-2.01-.53-6.2-.53-6.2,0,0,0-4.19.53-6.2C.83,1.71,1.7.83,2.8.54c2-.54,10-.54,10-.54,0,0,8.01,0,10,.54,1.1.3,1.97,1.17,2.26,2.28.53,2.01.53,6.2.53,6.2ZM16.87,9.02l-6.69-3.81v7.61l6.69-3.81Z"/></g></svg>