<?xml version="1.0" encoding="UTF-8"?><svg id="_レイヤー_2" xmlns="http://www.w3.org/2000/svg" viewBox="0 0 17.51 17.51"><defs><style>.cls-1{fill:#e50012;stroke-width:0px;}</style></defs><g id="menu"><path class="cls-1" d="M17.45,12.36c-.07,1.4-.39,2.64-1.41,3.67-1.02,1.03-2.27,1.35-3.67,1.41-1.45.08-5.78.08-7.22,0-1.4-.07-2.64-.39-3.67-1.41S.13,13.76.06,12.36C-.02,10.92-.02,6.58.06,5.14c.07-1.4.39-2.64,1.41-3.67S3.75.13,5.14.06C6.59-.02,10.92-.02,12.37.06c1.4.07,2.64.39,3.67,1.41,1.03,1.02,1.35,2.27,1.41,3.67.08,1.45.08,5.77,0,7.22ZM15.93,8.75c0-1.27.11-4.01-.35-5.16-.31-.77-.9-1.36-1.66-1.66-1.15-.45-3.89-.35-5.16-.35s-4.01-.11-5.16.35c-.77.31-1.36.9-1.66,1.66-.45,1.15-.35,3.89-.35,5.16s-.11,4.01.35,5.16c.31.77.9,1.36,1.66,1.66,1.15.45,3.89.35,5.16.35s4.01.11,5.16-.35c.77-.31,1.36-.9,1.66-1.66.46-1.15.35-3.89.35-5.16ZM13.25,8.75c0,2.48-2,4.49-4.49,4.49s-4.49-2-4.49-4.49,2-4.49,4.49-4.49,4.49,2,4.49,4.49ZM11.67,8.75c0-1.61-1.31-2.92-2.92-2.92s-2.92,1.31-2.92,2.92,1.31,2.92,2.92,2.92,2.92-1.31,2.92-2.92ZM13.43,3.03c-.58,0-1.05.47-1.05,1.05s.46,1.05,1.05,1.05,1.05-.46,1.05-1.05-.47-1.05-1.05-1.05Z"/></g></svg>