<?xml version="1.0" encoding="UTF-8"?><svg id="_レイヤー_2" xmlns="http://www.w3.org/2000/svg" viewBox="0 0 17.5 17.5"><defs><style>.cls-1{fill:#0068b6;stroke-width:0px;}</style></defs><g id="menu"><path class="cls-1" d="M17.5,1.88v13.75c0,1.04-.84,1.88-1.88,1.88h-5.36v-5.95h2.26l.43-2.8h-2.69v-1.82c0-.77.38-1.51,1.58-1.51h1.22v-2.38s-1.11-.19-2.17-.19c-2.21,0-3.66,1.34-3.66,3.77v2.13h-2.46v2.8h2.46v5.95H1.88c-1.04,0-1.88-.84-1.88-1.88V1.88C0,.84.84,0,1.88,0h13.75c1.04,0,1.88.84,1.88,1.88Z"/></g></svg>