<?xml version="1.0" encoding="UTF-8"?><svg id="_レイヤー_2" xmlns="http://www.w3.org/2000/svg" viewBox="0 0 21.33 15"><defs><style>.cls-1{fill:#c4181f;stroke-width:0px;}</style></defs><g id="menu"><path class="cls-1" d="M21.33,7.52s0,3.49-.45,5.17c-.25.92-.97,1.62-1.89,1.87-1.66.45-8.33.45-8.33.45,0,0-6.67,0-8.33-.45-.92-.25-1.64-.94-1.89-1.87-.45-1.67-.45-5.17-.45-5.17,0,0,0-3.49.45-5.17.25-.92.97-1.65,1.89-1.9,1.66-.45,8.33-.45,8.33-.45,0,0,6.67,0,8.33.45.92.25,1.64.97,1.89,1.9.45,1.67.45,5.17.45,5.17ZM14.06,7.52l-5.58-3.17v6.34l5.58-3.17Z"/></g></svg>