<?xml version="1.0" encoding="UTF-8"?><svg id="_レイヤー_2" xmlns="http://www.w3.org/2000/svg" viewBox="0 0 21.01 21.01"><defs><style>.cls-1{fill:#fff;stroke-width:0px;}</style></defs><g id="text"><path class="cls-1" d="M20.94,14.83c-.08,1.68-.47,3.17-1.7,4.4-1.23,1.23-2.72,1.62-4.4,1.7-1.73.1-6.93.1-8.67,0-1.68-.08-3.17-.47-4.4-1.7-1.23-1.23-1.62-2.72-1.7-4.4C-.02,13.1-.02,7.9.07,6.17c.08-1.68.46-3.17,1.7-4.4C3,.54,4.49.15,6.17.07,7.91-.02,13.1-.02,14.84.07c1.68.08,3.17.47,4.4,1.7,1.23,1.23,1.62,2.72,1.7,4.4.1,1.73.1,6.93,0,8.66ZM19.12,10.5c0-1.53.13-4.81-.42-6.19-.37-.92-1.08-1.63-2-2-1.38-.54-4.66-.42-6.19-.42s-4.81-.13-6.19.42c-.92.37-1.63,1.08-2,2-.54,1.38-.42,4.66-.42,6.19s-.13,4.81.42,6.19c.37.92,1.08,1.63,2,2,1.38.54,4.66.42,6.19.42s4.81.13,6.19-.42c.92-.37,1.63-1.08,2-2,.55-1.38.42-4.66.42-6.19ZM15.89,10.5c0,2.98-2.4,5.39-5.39,5.39s-5.39-2.41-5.39-5.39,2.4-5.39,5.39-5.39,5.39,2.41,5.39,5.39ZM14.01,10.5c0-1.93-1.57-3.5-3.5-3.5s-3.5,1.57-3.5,3.5,1.57,3.5,3.5,3.5,3.5-1.57,3.5-3.5ZM16.11,3.64c-.69,0-1.26.56-1.26,1.26s.56,1.26,1.26,1.26,1.26-.56,1.26-1.26-.56-1.26-1.26-1.26Z"/></g></svg>