<?xml version="1.0" encoding="UTF-8"?><svg id="_レイヤー_2" xmlns="http://www.w3.org/2000/svg" viewBox="0 0 308.91 56"><defs><style>.cls-1{fill:#005c3f;}.cls-1,.cls-2,.cls-3{stroke-width:0px;}.cls-2{fill:#a47a43;}.cls-3{fill:#7bbd34;}</style></defs><g id="menu"><path class="cls-1" d="M152.1,14.81c.48.09.88-.34,1.18-.58.97-.77,3.05-1.98,3.87-2.38v.04c0,.18-2.16,2.62-3.18,3.51-.4.35-1.12,1.01-1.34,1.27-.22.26-.37,1.03-.28,1.47.19.98.92.99,1.17.79.8-.6,1.29-1.07,1.84-1.74l1.83-2.05c.25-.3,1.22-1.53,1.34-1.53.32,0,.49.61.49,1.83,0,1.45-.41,2.25-1.25,2.25-.15,0-2.21-.27-2.21-.27,0,0,1.02.67,1.68,1.35,0,0,.9.84,1.6,1.3.7.46,1.92.58,2.4.05.48-.53.41-2.58.41-2.58,0-.2-.04-1.47-.04-1.64-.03-.4-.08-2.45-.37-3.18l.9-.19c1.24-.27,2.38-.71,3.4-1.31,1.02-.6,1.53-1.12,1.53-1.57,0-.52-.56-.92-1.68-1.2-.42-.05-.74-.09-.93-.11-.32-.02-.58-.04-.78-.04-.53,0-1.36.16-2.5.49.32-.25.49-.49.49-.71,0-.3-.37-.5-1.12-.6.2-.13,1.14-.8,1.62-1.12.48-.32,1.93-1.46,1.93-1.98,0-.35-.21-.66-.64-.93-.45-.25-.97-.37-1.57-.37-1.52,0-3.25.52-5.19,1.57-.87.47-2.05,1.01-3.55,1.61,0,0,1.41.86,1.83.86.5,0,1-.12,1.5-.37l1.05-.64,1.12-.6c.35-.2.63-.3.86-.3-.15.57-.42,1.02-.82,1.34-.85.75-1.48,1.16-1.91,1.23l-1.38.26c-.25.08-.54.39-.46.9.06.38.43.59.76.59s2.1-.09,2.1-.09c0,0-2.53,1.41-3.25,1.74,0,0-2.21.94-2.76,1.01-.4.05-.72-.03-.97-.08.15,1.12.86,2.6,1.34,2.69ZM159.54,10.74s.91-.4,1.48-.55c.5-.13.89-.2,1.06-.2.37,0,.56.18.56.53,0,.6-.65,1.18-1.94,1.76-.23-.22-1.2-.37-1.2-.37,0,0,.1-.25.11-.6,0-.36-.08-.56-.08-.56Z"/><path class="cls-1" d="M148.37,15.44c.14-.89.66-1.69.66-1.69l-1.74,1.8-1.57,1.64.11-3.71s.61-.26.93-.41c.4-.17.66-.29.79-.34.8-.32,1.2-.63,1.2-.93,0-.17-.18-.4-.53-.67-.4-.3-.85-.45-1.34-.45-.27,0-.52.03-.75.08.17-.95.19-1.72.22-2.02.03-.42.27-1.32.3-1.47,0-.02,0-.03,0-.05.05-.2.1-.4.15-.6.08-.32.11-.5.11-.52,0-.52-.57-1.36-1.72-2.5-.52-.52-1.12-.79-1.79-.79-.13,0-.34.04-.63.11.37,1.3.61,2.26.71,2.88.1.7.15,5.57.15,5.89-.75.32-1.29.56-1.64.71-.52.2-.98.37-1.38.52-.77.3-1.82.67-3.14,1.12l.15.22c.85.4,1.72.6,2.62.6.7,0,1.29-.09,1.79-.26.64-.22,1.63-.52,1.63-.52,0,0,0,1.13-.03,2.44-.03,1.31-.07,2.73-.07,2.73,0,0-1.98,1.76-2.73,2.43-1.37,1.27-2.19,2.08-2.47,2.43-.7.8-1.05,1.39-1.05,1.79s.72,1.16,2.17,2.28c.9.72,1.82,1.69,2.76,2.91.92,1.17,1.59,1.96,2.02,2.35.45.4.86.6,1.23.6.7,0,1.05-.72,1.05-2.17,0-.7-.79-8.15-.79-8.15-.05-.55-.07-1.62-.07-3.21.87-.85,1.44-1.64,1.72-2.39,0,0,.83-1.8.97-2.69ZM143.61,25.63c-.04,1.4-.22,3.38-.22,3.38,0,0-1.77-.43-2.7-.95-1.6-.89-2.25-1.55-2.25-1.55,0,0,1.28-1,2.62-2.17,1.22-1.05,2.58-2.34,2.58-2.34,0,0,0,1.9-.05,3.63Z"/><path class="cls-1" d="M169.93,22.13c-.67-.52-1.36-.8-2.05-.82h-.04c-.05.03-.13.04-.23.04l-5.23.52c-.25.05-.96.07-.96.07,0,0-.74-.52-1.96-.83-2.15-.54-2.87-.59-2.87-.59,0,0,.76.86,1.01,1.87l-2.17.52-5.71,1.27c-.3.07-.75.16-1.18.16s-.7-.16-.7-.16c0,0,.2.63.6,1.2s1.13,1.12,1.68,1.12c.4,0,1.17-.27,1.72-.49-1.15,1.59-1.72,2.93-1.72,4,0,.92.3,1.38.9,1.38.45,0,.81-.2,1.08-.6l1.46-2.47,1.52-2.49-1.6.89v.22c.1-.72.16-1.31.19-1.76.77-.32,1.43-.5,2.58-.85l1.68-.45s.09.98,0,3.4c-.1,2.42-.26,3.11-.26,3.11,0,0-.77.03-1.92-.15-1.29-.2-2.12-.93-2.12-.93,0,0,.29.74.85,1.27,1.17,1.02,1.77,1.43,3.04,2.65,1.05,1.05,1.89,1.57,2.54,1.57s1.02-.37,1.05-1.12l.07-3.4.15-5.53.11-1.34h1.98l1.72.07c1.62.03,2.75.15,3.4.37.67.22,1.23.34,1.68.34.75,0,1.12-.25,1.12-.75,0-.2-.47-.63-1.42-1.31Z"/><path class="cls-1" d="M167.8,25.72c-.45-.25-1.42-.52-2.39-.56-.97-.04-1.75.36-1.75.36,0,0,.76.34,1.56.84.82.55,1.12,1.13,1.12,1.53s-.6.97-2.02,1.38c0,0,.44.11.71.08.27-.03.71-.08.86-.08.3,0,.63.13,1.01.37.87.47,1.45.71,1.72.71.8,0,1.2-.49,1.2-1.46,0-1.32-.67-2.38-2.02-3.18Z"/><path class="cls-1" d="M206.55,17.16c-1.25-.5-2.28-.75-3.1-.75-5.7,0-11.35.55-14.96,1.64-3.46,1.05-5.62,1.57-6.46,1.57-.62,0-2.9-.21-2.9-.21,0,0,.29.82,1.19,1.52,1.02.77,1.83,1.16,2.43,1.16.47,0,1.99-.5,4.56-1.5,4.21-1.24,8.29-1.9,10.29-1.98.8,0,1.56.03,2.28.08.25.05.37.16.37.34-.1.42-5.12,2.8-5.12,2.8,0,0,5.6-1.93,7.17-2.05,1.52,0,2.98.1,4.37.3.94,0,1.62-.35,2.02-1.05,0-.7-.71-1.32-2.13-1.87Z"/><path class="cls-1" d="M224.36,26.93c-2.97-.75-2.19-6.66-.82-9.9.85-2.02,2.85-4.23,4.09-5.37,1.58-1.45,2.21-2.7,1.69-3.3-.52-.6-1.34-.76-2.09-.76-.54,0-1.34.3-2.41.89-1.2.64-2.78,1.31-3.79.64-2.47-1.64-.25-3.32-.25-3.32,0,0-4.24,3.09-1.26,5.35,1.54,1.17,4.71.14,4.71.14,0,0-4.52,6.1-4.58,12.62-.07,6.96,3.35,8.78,6.03,8.21,7.55-1.63,10.21-17.06,10.21-17.06,0,0-5.75,13.34-11.51,11.88Z"/><path class="cls-1" d="M240.02,15.33c-1.46-2.24-.63-7.58-.63-7.58,0,0-4.31,7.34.14,11.75,3.45,3.43,7.37-1.76,7.37-1.76,0,0-4.89.66-6.88-2.4Z"/><path class="cls-1" d="M272.98,28.5c-.86-.42-1.83-.49-3.27-.15-1.78.42-4.54,1.09-6.38,1.03-2.58-.08-5.34-.87-5.36-3-.02-1.66,1.11-3.46,2.98-5.12,2.55-2.22,10.32-5.81,10.94-6.23.62-.42.93-.91.93-1.47,0-.41-.28-.84-.84-1.29-1.54-1.13-4.27-1.56-4.27-1.56,0,0,.42.45.45,1.02s-.64,1.39-1.91,2.31c-.03.03-.07.06-.13.09-.59.39-1.05.71-1.38.98-.62.42-1.95,1.3-1.95,1.3,0,0-2.21-.51-2.71-2.14-.37-1.19-.06-2.6-1.07-4.01-1.08-1.51-4.19-1.88-4.19-1.88,0,0,1.56.42,2.37,3.46.47,1.75-.26,2.95.58,4.7.66,1.37,2.97,1.68,2.97,1.68,0,0-5.72,3.63-5.99,8.33-.11,1.89.98,3.72,3.2,4.85,2.84,1.44,9.91,1.14,12.85.61.96-.18,1.81-.46,2.5-.91.91-.59.6-2.13-.3-2.6Z"/><path class="cls-1" d="M295.62,5.94c0,.68-3.33,2.93-3.33,2.93,2.34-1.27,3.57-1.78,5.42-2.05s3.02-.56,3.02-1.24c0-.74-.49-1.31-1.38-1.87-2.3-1.44-7.08.47-7.08.47,0,0,3.35.98,3.35,1.75Z"/><path class="cls-1" d="M306.7,29.36c-1.48-.31-4.74.22-6.05.28-1.81.08-2.76-.59-2.85-1.78l-.49-5.16c-.09-.98-.68-1.47-1.78-1.47-.5,0-1.07.28-1.36.31,0,0,3.1-3.55,3.63-4.21l3.42-4.09c.67-.67.61-1.85.22-2.18-.48-.53-1.04-.8-1.69-.8-1.13,0-2.76.55-4.89,1.65-2.31,1.16-4.12,1.69-5.43,1.73-.87.03-1.51-1.11-1.51-1.11,0,0-.66,1.34-.66,2.58,0,1.75.47,2.63,1.42,2.63.36,0,1.02-.37,2-1.11,1.02-.83,5.12-2.8,5.12-2.8-.3.59-.62,1.23-.98,1.91-.24.47-5.26,8-7.1,9.66-2.37,2.16-3.55,3.78-3.75,5.11-.27,1.8,1.58,3.48,3.04,1.96.6-.62.98-1.32,1.34-1.91,1.24-2.13,4.38-5.85,4.38-5.85,0,0,1.56-.38,1.74,1.02.05.38.12.75.18,1.11.23,2.16.68,3.72,1.33,4.67.65.92,1.61,1.36,2.89,1.33l5.72-.04c2.88-.06,4.29-.47,4.31-1.47.02-1-.89-1.7-2.21-1.97Z"/><path class="cls-1" d="M184.88,47.32v3.95c0,.98,0,2.83-2.12,2.83-.91,0-1.44-.38-1.79-.63l.42-.85c.17.13.68.51,1.29.51,1.12,0,1.13-.95,1.13-1.79v-4.02h1.07Z"/><path class="cls-1" d="M194.32,47.32v3.67c0,.75,0,3.11-3.03,3.11s-3.04-2.1-3.04-3.11v-3.67h1.08v3.6c0,.78,0,2.2,1.96,2.2s1.95-1.44,1.95-2.2v-3.6h1.08Z"/><path class="cls-1" d="M198.8,47.32v6.64h-1.11v-6.64h1.11Z"/><path class="cls-1" d="M215.28,49.93v-2.61h1.07v6.64h-1.07v-3.04h-3.19v3.04h-1.07v-6.64h1.07v2.61h3.19Z"/><path class="cls-1" d="M221.19,47.32v6.64h-1.11v-6.64h1.11Z"/><path class="cls-1" d="M235.24,49.93v-2.61h1.07v6.64h-1.07v-3.04h-3.19v3.04h-1.07v-6.64h1.07v2.61h3.19Z"/><path class="cls-1" d="M240.74,47.32v6.64h-1.11v-6.64h1.11Z"/><path class="cls-1" d="M247.02,53.96h-1.07v-5.66h-2.32v-.97h5.71v.97h-2.32v5.66Z"/><path class="cls-1" d="M254.72,48.17c1.45,0,2.46,1.02,2.46,2.47s-1.01,2.48-2.46,2.48c-.69,0-1.32-.25-1.77-.7-.45-.45-.68-1.06-.68-1.78,0-1.45,1.01-2.47,2.45-2.47M254.72,47.18c-1.89,0-3.44,1.37-3.44,3.46,0,2.1,1.56,3.47,3.44,3.47s3.45-1.39,3.45-3.47-1.54-3.46-3.45-3.46h0Z"/><path class="cls-1" d="M264.83,50.03v.97h-3.08v1.99h3.49v.97h-4.57v-6.64h4.44v.97h-3.37v1.73h3.08Z"/><path class="cls-1" d="M205.47,53.11c-.69,0-1.32-.25-1.77-.7-.45-.45-.68-1.06-.68-1.78,0-1.45,1.01-2.47,2.45-2.47.7,0,1.28.24,1.77.59l.31-.91c-.58-.42-1.29-.66-2.08-.66-1.89,0-3.44,1.37-3.44,3.46,0,2.1,1.56,3.47,3.44,3.47.78,0,1.5-.24,2.08-.66v-1.15c-.52.49-1.16.82-2.08.82Z"/><circle class="cls-1" cx="28" cy="28" r="28" transform="translate(-5.74 48.73) rotate(-76.57)"/><path class="cls-3" d="M55.1,35.07c0-13.57-18.32-23.32-18.32-23.32,0,0-18.36,9.9-18.36,24.55,0,9.97,5.71,15.98,14.54,19.25,10.77-1.93,19.41-10.01,22.14-20.48Z"/><path class="cls-2" d="M28,0c-4.32,0-8.4.93-12.1,2.74,9.72,2.69,20.88,9.01,20.88,9.01,0,0,2.61-1.35,5.44-2.25,1.64-.52,3.69-.98,5.53-1.34C42.69,3.12,35.71,0,28,0Z"/><path class="cls-1" d="M79.32,26.69c-.09,0-.17.01-.26.01h-.23c-.15,0-.36-.03-.63-.1v-.07c.56-.34,1.07-.59,1.52-.75l.03-.31c-.31.08-.55.11-.73.11-.23,0-.44-.04-.63-.13-.08-.03-.15-.06-.21-.09-.09-.04-.13-.06-.14-.06-.08-.02-.12-.07-.13-.14l1.83-.55c.03-.25.04-.46.04-.64,0-.42-.21-.77-.63-1.07l.04-.07c.37,0,.72.01,1.05.07.32.06.54.13.65.21.12.09.19.24.19.44,0,.1-.02.28-.06.53h.21c.68,0,1.02.13,1.02.38,0,.21-.26.36-.78.45-.08.02-.24.07-.5.14-.04.02-.08.03-.13.04l-.06.26s.06,0,.09-.01c.12,0,.21-.01.27-.01.14,0,.28.04.41.13.12.08.18.16.18.26,0,.08-.09.2-.28.37l-.48.27-.4.24-.11.51c.76-.26,1.23-.38,1.41-.38s.36.06.53.17c.27.17.41.29.41.36,0,.2-.37.33-1.12.38-.08,0-.15.02-.21.03-.13.02-.27.03-.4.04-.18.03-.36.05-.53.07l-.6.78c.42-.09.78-.13,1.08-.13.38,0,.64.14.78.43.14.28.21.78.2,1.51l.06,2.81v.31c.03.84-.15,1.27-.54,1.27-.2,0-.4-.09-.61-.28l-1.63-1.55c.06-.03.09-.04.1-.04.05,0,.18.08.41.23.16.1.48.16.95.17.05-.55.07-.93.07-1.15,0-.08,0-.24-.01-.5,0-.08-.01-.16-.01-.24-.32.37-.55.61-.68.71-.12.11-.28.21-.47.3-.15-.05-.31-.12-.48-.21,0,.6-.02.99-.03,1.17,0,.14-.03.28-.06.41-.08.29-.19.44-.34.44s-.29-.12-.43-.37c-.14-.25-.21-.5-.21-.75,0-.74.21-1.66.63-2.76.04-.11.11-.29.21-.54.03-.07.06-.14.09-.21-.1,0-.22-.01-.36-.01h-.19c-.22,0-.35-.05-.38-.17h.01c.28-.16.48-.27.6-.31.15-.08.35-.15.6-.23l.53-.84c-.92.33-1.55.59-1.89.78-.46.27-.75.41-.87.41-.24,0-.46-.13-.67-.38-.12-.16-.18-.28-.18-.37h0s.01-.09.01-.09c1.16-.1,2.18-.66,3.06-1.68ZM79.59,27.42l.06-.26-.81.53.75-.27ZM79.75,30.7c-.11,0-.26-.02-.43-.06h-.01l-.09.85c.22-.25.39-.51.53-.8ZM79.93,29.86c.16-.09.31-.13.44-.13.25,0,.37.12.37.36h0c0,.11-.02.19-.07.26-.06.07-.24.27-.55.6-.05.05-.14.16-.28.34-.04.05-.08.09-.11.14.26-.09.62-.35,1.09-.78v-.2h0v-.03h0v-.18c0-.1,0-.2.01-.28v-.23c0-.45-.13-.68-.38-.68-.07,0-.22.07-.45.2-.09.06-.22.11-.41.17l-.14.67c.24-.09.4-.17.5-.21ZM82.52,31.28c.17,0,.32-.03.44-.09.13-.07.38-.22.74-.47.4-.27.77-.58,1.12-.91v-.11l-1.39-.13-.03-.06c.31-.16.54-.28.68-.36.17-.08.38-.16.63-.26-.02-.16-.08-.34-.17-.54-.33.14-.56.26-.7.34-.09.06-.16.09-.18.09-.09,0-.17-.05-.24-.16-.08-.1-.2-.33-.37-.67.97-.44,1.69-1.01,2.18-1.72l.28-.41c.1-.18.16-.29.16-.34,0-.09-.03-.13-.1-.13-.04,0-.28.13-.71.4l-.85.54-.4.27h-.03s0,.01-.01.01h-.01c-.25,0-.37-.22-.37-.65,0-.13.01-.26.04-.37.61-.47,1-.81,1.19-1l.67-.67c.26-.24.41-.4.45-.48.11-.18.22-.27.31-.28.04.28.06.47.06.55,0,.39-.21.79-.63,1.21.03,0,.06-.02.1-.03.2-.05.33-.09.4-.11.34-.11.6-.17.78-.17.06,0,.14.02.26.07.36.16.54.31.54.45,0,.08-.1.21-.3.41l-1.83,1.78c.73-.21,1.31-.31,1.73-.31.54,0,1,.09,1.39.26.38.17.57.38.57.63,0,.18-.14.45-.43.82,0,.02-.02.03-.04.04-.16.2-.29.35-.38.44l-.3.33-.58.6c-.06.09-.12.17-.19.26.21-.07.38-.1.53-.1.27,0,.51.07.74.21.29.17.44.32.44.44,0,.25-.23.37-.68.37h-.16c-.08,0-.2-.01-.38-.01h-.23c-.11,0-.22,0-.33.01-.42,0-.75.04-1.01.09,0,.12-.01.24-.01.34v.23h0v.03c0,.28.01.64.04,1.09v.07c.03.53.04.86.04.98,0,.85-.36,1.36-1.07,1.52l-1.17.28c-.28.07-.65.2-1.12.4v-.09c.1-.08.23-.17.38-.28.04-.03.08-.06.11-.09.03-.03.06-.05.09-.07.67-.5,1.1-.92,1.28-1.25.18-.33.27-.9.28-1.69,0-.08,0-.22.01-.43,0-.12,0-.25.01-.38,0-.15,0-.3.01-.44-.22.07-.39.12-.53.17-.16.06-.33.12-.5.18-.05.02-.1.04-.16.06-.03,0-.06.02-.1.03-.08.03-.14.04-.2.04-.17,0-.3-.06-.4-.17l-.4-.48c-.05-.06-.07-.09-.06-.1v-.04h.03ZM84.82,30.77v-.38l-.77.55.77-.17ZM85.36,28.38c.2.12.32.18.37.18h.03s.04-.01.07-.01c.09-.02.18-.04.27-.06.03,0,.08-.01.14-.01.43,0,.64.11.64.33,0,.09-.05.19-.16.28s-.36.27-.77.54v.78c.56-.75,1.01-1.48,1.34-2.2.08-.18.11-.31.11-.4,0-.16-.06-.24-.19-.24h-.04c-.45,0-.8.05-1.07.11-.27.08-.67.25-1.21.51.18.05.33.11.46.18Z"/><path class="cls-1" d="M97.69,32.08s.13.05.24.14c.15.12.45.26.9.4.45.15.73.23.84.23.27,0,.45-.09.54-.27,0-.02.01-.1.01-.24,0-.18.01-.45.01-.8,0-.08,0-.19.01-.34v-3.57c.01-.29-.03-.8-.11-1.51-.08-.58-.2-.96-.37-1.15-.17-.2-.49-.3-.95-.3-.65,0-1.31.11-1.96.33-.12.04-.25.08-.38.13-.12.04-.25.08-.37.11-.13.05-.26.09-.38.13-.13.05-.26.09-.38.13-.44.13-.71.21-.81.24-.12.03-.22.04-.28.04-.12,0-.44-.07-.94-.21.35.64.53,1.16.53,1.58l-.2,2.81-.03,3.34c-.04.22-.12.33-.24.33-.15,0-.31-.15-.48-.44-.29-.5-.44-.89-.44-1.15,0-.06,0-.1.01-.14l.2-1.14.03-1.01c0-.07,0-.21.03-.44,0-.1.02-.21.03-.31.04-.39.07-.75.09-1.08,0-.13.02-.27.03-.41,0-.18.02-.29.03-.34,0-.08.02-.19.04-.34.03-.2.05-.35.06-.44.03-.19.05-.33.06-.43v-.07h0v-.03c0-.23.04-.38.11-.45.08-.07.27-.13.57-.2.05,0,.12-.03.23-.07.16-.05.38-.12.65-.21.17-.05.36-.11.57-.18.46-.15,1.11-.3,1.96-.44.84-.13,1.52-.2,2.03-.2.8,0,1.45.23,1.96.7.3.27.45.76.45,1.45l.03,3.53.06,2.1.07,1.69c0,.61-.18.91-.53.91-.27,0-.9-.35-1.86-1.04-.61-.44-1.19-.88-1.73-1.34.02,0,.05-.01.08-.01ZM96.07,30.19c.06-.47.09-.83.09-1.07h0v-.03h0v-.17c0-.09,0-.19-.01-.28-.28.09-.48.17-.58.23-.27.13-.43.2-.5.2-.31,0-.61-.15-.9-.45-.06-.08-.09-.15-.09-.21h0c.75-.17,1.37-.45,1.88-.87.5-.41,1-1.04,1.49-1.91-.28.19-.51.37-.67.54-.17.18-.39.46-.65.85-.26.37-.47.55-.65.55-.12,0-.24-.09-.34-.26-.1-.17-.16-.36-.16-.55,0-.31.14-.69.41-1.14h.06s0,.03.01.04v.04s.02.06.03.09v.06s.01.02.01.03h0c.04.29.13.43.27.43.11,0,.31-.13.6-.4.55-.47,1.11-.71,1.68-.71.38,0,.57.14.57.43,0,.14-.13.35-.4.63l-.44.47c-.14.15-.44.42-.88.81.15-.03.26-.06.33-.09.39-.11.6-.18.64-.18.08-.02.16-.03.26-.03.27,0,.5.04.7.13.2.09.3.2.3.31,0,.12-.07.21-.21.26-.15.06-.48.11-.98.17-.15.03-.3.06-.44.1l-.51.13c.27.1.4.26.4.47,0,.14-.04.34-.11.58-.06.14-.11.32-.16.54l1.14-.2c.11-.19.17-.36.17-.51,0-.11-.05-.2-.14-.27l-.2-.11s-.03-.02-.06-.07c0,0-.02-.02-.03-.03.11-.04.21-.06.28-.06.31,0,.59.06.84.18.25.12.37.26.37.41,0,.39-.33.87-.98,1.44-.45.39-.89.62-1.32.68v-.09c.28-.27.52-.56.7-.85-.71.13-1.25.27-1.62.4-.38.13-.74.32-1.08.55-.25.15-.41.23-.5.23-.13,0-.27-.09-.4-.26-.13-.16-.2-.33-.2-.5,0-.05,0-.1.03-.16.13-.38.33-.78.58-1.19.14-.22.23-.33.26-.33.08,0,.15.11.21.34.07.24.11.52.13.85.26-.06.52-.12.8-.2Z"/><path class="cls-1" d="M106.19,31.57c.24-.16.54-.41.9-.74.2-.2.42-.44.67-.71.24-.26.64-.72,1.21-1.38.22-.27.42-.51.61-.73.28-.33.57-.66.87-1-.44.24-.75.4-.95.5-.24.11-.54.24-.91.38-.2,0-.44-.09-.71-.26-.27-.15-.44-.29-.51-.43.66-.27,1.22-.54,1.66-.84.44-.29.98-.74,1.64-1.35l.46-.41c.48-.48.87-.94,1.15-1.38-.64.11-1.19.4-1.62.85-.24.24-.47.47-.71.71-.27.27-.43.42-.48.47-.07.05-.15.07-.24.07-.13,0-.26-.11-.37-.34-.12-.23-.19-.46-.19-.71,0-.18.09-.51.26-1h.13c.37.43.66.65.87.65.12,0,.43-.18.91-.54.54-.41,1.14-.61,1.79-.61.21,0,.54.06,1,.18.27.07.4.16.4.27,0,.15-.08.3-.24.44-.38.34-.89.71-1.54,1.09l-2.12,1.27-.36.27c.96-.3,1.75-.62,2.39-.95.36-.2.63-.3.82-.3.07,0,.19,0,.38.03.61.17.91.38.91.63,0,.17-.13.3-.38.4l-.67.23c-.7.26-1.46.88-2.27,1.86l-.38.46-1.75,2.03c-.78.9-1.66,1.43-2.66,1.58h-.28c-.2,0-.42-.03-.67-.09l-.03-.07c.45-.21.8-.39,1.04-.55ZM108.98,32.35l-.04.5v.09c0,.16,0,.29.01.4.14-.08.27-.17.4-.27.24-.25.36-.38.38-.4.03-.02.08-.04.16-.06-.41.51-.7.96-.88,1.35.05.02.09.04.13.06.31.14.51.24.6.28.28.13.53.2.74.2.17,0,.26-.11.26-.34v-.21s.01-.84.01-.84v-.17c0-.24-.01-.6-.04-1.08l-.97.14c-.06,0-.13.01-.23.01h-.06l-.84-.11c-.3-.05-.46-.11-.46-.2v-.06l2.42-.6.13-.03c0-.44-.01-.74-.04-.92-.03-.18-.09-.31-.19-.4-.2-.18-.3-.29-.3-.34,0-.09.07-.13.2-.13.32,0,.72.15,1.19.45.33.21.5.52.5.92v.13c.28-.08.5-.11.64-.11.25,0,.54.06.87.18.28.12.43.24.43.36,0,.1-.1.18-.31.24-.2.06-.6.11-1.21.17-.09,0-.25.02-.48.07v.48s.04,2.69.04,2.69c.02.8-.16,1.19-.53,1.19-.2,0-.59-.26-1.17-.77-.13-.12-.33-.28-.58-.47-.17-.12-.46-.33-.85-.61-.19.31-.32.51-.38.58s-.14.11-.23.11c-.36,0-.54-.21-.54-.63s.13-.78.4-1.15l.53-.73s.02-.04.04-.06c.08-.1.14-.16.2-.16.04.1.06.18.06.21ZM115.59,30.91c-.26,0-.62.06-1.08.18l-.04-.03v-.06c.29-.07.52-.13.68-.18.14-.06.32-.16.53-.3-.12-.12-.23-.21-.31-.27-.09-.05-.26-.13-.53-.26-.25-.12-.55-.26-.91-.4-.33-.13-.61-.23-.82-.3-.42-.11-.68-.19-.8-.23-.1-.04-.23-.1-.37-.18v-.07c0-.09.22-.14.67-.14,1.43,0,3,.46,4.72,1.36.73.37,1.1.73,1.1,1.08,0,.21-.12.31-.36.31-.15,0-.33-.04-.54-.11-.08-.04-.27-.09-.55-.17-.08-.03-.15-.05-.23-.07-.49-.11-.88-.17-1.15-.17ZM114.38,32.54c.27.14.5.34.71.58.22.26.33.46.33.63,0,.24-.11.36-.33.36-.11,0-.34-.05-.71-.16-.1-.03-.21-.04-.34-.04-.21,0-.63.08-1.25.24v-.06c.73-.34,1.09-.59,1.09-.75,0-.05-.08-.14-.23-.28-.04-.04-.11-.1-.21-.2-.03-.03-.06-.05-.09-.07s-.06-.04-.08-.06c-.12-.09-.2-.14-.23-.16-.22-.09-.32-.18-.3-.24l.03-.09c.72,0,1.26.1,1.61.3Z"/></g></svg>