<?xml version="1.0" encoding="UTF-8"?><svg id="_レイヤー_2" xmlns="http://www.w3.org/2000/svg" viewBox="0 0 189.76 36"><defs><style>.cls-1{fill:#005c3f;}.cls-1,.cls-2,.cls-3{stroke-width:0px;}.cls-2{fill:#a47a43;}.cls-3{fill:#7bbd34;}</style></defs><g id="text"><circle class="cls-1" cx="18" cy="18" r="18" transform="translate(-2.83 32.63) rotate(-80.07)"/><path class="cls-3" d="M35.42,22.54c0-8.72-11.78-14.99-11.78-14.99,0,0-11.8,6.37-11.8,15.78,0,6.41,3.67,10.27,9.35,12.37,6.93-1.24,12.48-6.43,14.23-13.17Z"/><path class="cls-2" d="M18,0C15.22,0,12.6.6,10.22,1.76c6.25,1.73,13.42,5.79,13.42,5.79,0,0,1.68-.87,3.5-1.45,1.06-.34,2.37-.63,3.55-.86C27.44,2,22.96,0,18,0Z"/><path class="cls-1" d="M88.96,16.01c.31.06.57-.22.76-.37.62-.5,1.96-1.27,2.49-1.53v.02c0,.11-1.39,1.68-2.04,2.26-.26.22-.72.65-.86.82-.14.17-.24.66-.18.95.12.63.59.64.75.51.51-.38.83-.69,1.18-1.12l1.18-1.32c.16-.19.79-.98.86-.98.21,0,.31.39.31,1.18,0,.93-.26,1.44-.81,1.44-.1,0-1.42-.17-1.42-.17,0,0,.66.43,1.08.87,0,0,.58.54,1.03.83.45.29,1.23.37,1.54.03.31-.34.26-1.66.26-1.66,0-.13-.03-.94-.03-1.06-.02-.26-.05-1.58-.24-2.04l.58-.12c.8-.18,1.53-.46,2.19-.84.66-.38.98-.72.98-1.01,0-.34-.36-.59-1.08-.77-.27-.03-.47-.06-.6-.07-.21-.01-.38-.02-.5-.02-.34,0-.87.1-1.61.31.21-.16.31-.31.31-.46,0-.19-.24-.32-.72-.38.13-.08.74-.52,1.04-.72.31-.2,1.24-.94,1.24-1.27,0-.22-.14-.42-.41-.6-.29-.16-.62-.24-1.01-.24-.98,0-2.09.34-3.34,1.01-.56.3-1.32.65-2.28,1.03,0,0,.91.55,1.18.55.32,0,.64-.08.96-.24l.67-.41.72-.38c.22-.13.41-.19.55-.19-.1.37-.27.66-.53.86-.55.48-.95.74-1.23.79l-.89.17c-.16.05-.35.25-.3.58.04.24.27.38.49.38s1.35-.06,1.35-.06c0,0-1.63.91-2.09,1.12,0,0-1.42.6-1.78.65-.25.03-.47-.02-.63-.05.1.72.55,1.67.86,1.73ZM93.74,13.39s.59-.26.95-.36c.32-.08.57-.13.68-.13.24,0,.36.11.36.34,0,.38-.42.76-1.25,1.13-.15-.14-.77-.24-.77-.24,0,0,.07-.16.07-.38,0-.23-.05-.36-.05-.36Z"/><path class="cls-1" d="M86.56,16.42c.09-.57.42-1.09.42-1.09l-1.12,1.16-1.01,1.06.07-2.39s.39-.17.6-.26c.26-.11.42-.18.5-.22.51-.21.77-.41.77-.6,0-.11-.11-.26-.34-.43-.26-.19-.54-.29-.86-.29-.18,0-.34.02-.48.05.11-.61.12-1.11.14-1.3.02-.27.18-.85.19-.94,0-.01,0-.02,0-.03.03-.13.06-.26.1-.38.05-.21.07-.32.07-.34,0-.34-.37-.87-1.11-1.61-.34-.34-.72-.5-1.15-.5-.08,0-.22.02-.41.07.24.83.39,1.45.46,1.85.06.45.1,3.58.1,3.79-.48.21-.83.36-1.06.46-.34.13-.63.24-.89.34-.5.19-1.17.43-2.02.72l.1.14c.54.26,1.11.38,1.68.38.45,0,.83-.06,1.15-.17.41-.14,1.05-.34,1.05-.34,0,0,0,.73-.02,1.57-.02.84-.05,1.75-.05,1.75,0,0-1.27,1.13-1.75,1.56-.88.82-1.41,1.34-1.58,1.56-.45.51-.67.9-.67,1.15s.46.75,1.39,1.47c.58.46,1.17,1.09,1.78,1.87.59.75,1.02,1.26,1.3,1.51.29.26.55.38.79.38.45,0,.67-.46.67-1.39,0-.45-.5-5.24-.5-5.24-.03-.35-.05-1.04-.05-2.06.56-.54.93-1.06,1.1-1.54,0,0,.54-1.16.63-1.73ZM83.5,22.97c-.03.9-.14,2.17-.14,2.17,0,0-1.14-.28-1.73-.61-1.03-.57-1.44-.99-1.44-.99,0,0,.82-.64,1.69-1.39.79-.67,1.66-1.5,1.66-1.5,0,0,0,1.22-.03,2.34Z"/><path class="cls-1" d="M100.42,20.72c-.43-.34-.87-.51-1.32-.53h-.02s-.08.03-.15.03l-3.36.34c-.16.03-.61.05-.61.05,0,0-.48-.34-1.26-.53-1.38-.35-1.85-.38-1.85-.38,0,0,.49.55.65,1.2l-1.39.34-3.67.81c-.19.05-.48.11-.76.11s-.45-.1-.45-.1c0,0,.13.41.38.77.26.36.73.72,1.08.72.26,0,.75-.17,1.1-.32-.74,1.02-1.11,1.88-1.11,2.57,0,.59.19.89.58.89.29,0,.52-.13.7-.38l.94-1.59.98-1.6-1.03.57v.14c.06-.46.1-.84.12-1.13.5-.21.92-.32,1.66-.55l1.08-.29s.06.63,0,2.18c-.07,1.55-.16,2-.16,2,0,0-.49.02-1.24-.1-.83-.13-1.36-.6-1.36-.6,0,0,.19.48.55.82.75.66,1.14.92,1.95,1.7.67.67,1.22,1.01,1.63,1.01s.66-.24.67-.72l.05-2.19.1-3.56.07-.86h1.27l1.11.05c1.04.02,1.77.1,2.19.24.43.14.79.22,1.08.22.48,0,.72-.16.72-.48,0-.13-.3-.41-.91-.84Z"/><path class="cls-1" d="M99.05,23.02c-.29-.16-.92-.34-1.54-.36-.62-.02-1.13.23-1.13.23,0,0,.49.22,1,.54.53.35.72.73.72.98s-.39.62-1.3.89c0,0,.28.07.46.05.17-.02.46-.05.55-.05.19,0,.41.08.65.24.56.3.93.46,1.11.46.51,0,.77-.31.77-.94,0-.85-.43-1.53-1.3-2.04Z"/><path class="cls-1" d="M123.96,17.52c-.8-.32-1.47-.48-1.99-.48-3.67,0-7.29.35-9.62,1.06-2.22.67-3.61,1.01-4.15,1.01-.4,0-1.87-.14-1.87-.14,0,0,.19.53.76.98.66.5,1.18.74,1.56.74.3,0,1.28-.32,2.93-.96,2.7-.8,5.33-1.22,6.61-1.27.51,0,1,.02,1.46.05.16.03.24.1.24.22-.06.27-3.29,1.8-3.29,1.8,0,0,3.6-1.24,4.61-1.32.98,0,1.91.06,2.81.19.61,0,1.04-.22,1.3-.67,0-.45-.46-.85-1.37-1.2Z"/><path class="cls-1" d="M135.41,23.8c-1.91-.49-1.41-4.28-.53-6.37.55-1.3,1.83-2.72,2.63-3.45,1.01-.93,1.42-1.73,1.09-2.12-.33-.39-.86-.49-1.34-.49-.35,0-.86.19-1.55.57-.77.41-1.79.84-2.44.41-1.59-1.06-.16-2.14-.16-2.14,0,0-2.72,1.99-.81,3.44.99.75,3.03.09,3.03.09,0,0-2.9,3.92-2.94,8.11-.04,4.47,2.15,5.65,3.87,5.27,4.85-1.05,6.56-10.97,6.56-10.97,0,0-3.7,8.58-7.4,7.63Z"/><path class="cls-1" d="M145.48,16.34c-.94-1.44-.4-4.88-.4-4.88,0,0-2.77,4.72.09,7.55,2.22,2.2,4.74-1.13,4.74-1.13,0,0-3.14.43-4.42-1.54Z"/><path class="cls-1" d="M166.66,24.81c-.55-.27-1.17-.31-2.1-.09-1.14.27-2.92.7-4.1.66-1.66-.05-3.43-.56-3.45-1.93,0-1.07.71-2.22,1.91-3.29,1.64-1.43,6.63-3.74,7.03-4,.4-.27.6-.58.6-.94,0-.27-.18-.54-.54-.83-.99-.72-2.75-1-2.75-1,0,0,.27.29.29.66.02.37-.41.89-1.23,1.49-.02.02-.05.04-.09.06-.38.25-.68.46-.89.63-.4.27-1.25.84-1.25.84,0,0-1.42-.33-1.74-1.38-.24-.77-.04-1.67-.69-2.58-.69-.97-2.7-1.21-2.7-1.21,0,0,1,.27,1.52,2.23.3,1.13-.17,1.9.37,3.02.42.88,1.91,1.08,1.91,1.08,0,0-3.68,2.33-3.85,5.35-.07,1.22.63,2.39,2.06,3.12,1.83.93,6.37.74,8.26.39.62-.11,1.16-.3,1.61-.58.59-.38.39-1.37-.19-1.67Z"/><path class="cls-1" d="M181.22,10.31c0,.44-2.14,1.89-2.14,1.89,1.51-.82,2.3-1.15,3.49-1.32,1.19-.17,1.94-.36,1.94-.8,0-.48-.32-.84-.89-1.2-1.48-.93-4.55.3-4.55.3,0,0,2.15.63,2.15,1.13Z"/><path class="cls-1" d="M188.34,25.37c-.95-.2-3.05.14-3.89.18-1.16.05-1.77-.38-1.83-1.14l-.32-3.32c-.06-.63-.44-.94-1.14-.94-.32,0-.68.18-.88.2,0,0,1.99-2.28,2.33-2.7l2.2-2.63c.43-.43.39-1.19.14-1.4-.31-.34-.67-.51-1.09-.51-.72,0-1.77.35-3.14,1.06-1.49.74-2.65,1.09-3.49,1.12-.56.02-.97-.72-.97-.72,0,0-.43.86-.43,1.66,0,1.13.3,1.69.91,1.69.23,0,.66-.24,1.29-.72.66-.53,3.29-1.8,3.29-1.8-.19.38-.4.79-.63,1.23-.15.3-3.38,5.14-4.56,6.21-1.52,1.39-2.28,2.43-2.41,3.29-.17,1.15,1.01,2.24,1.95,1.26.39-.4.63-.85.86-1.23.8-1.37,2.82-3.76,2.82-3.76,0,0,1-.25,1.12.66.03.25.08.49.12.71.15,1.39.44,2.39.86,3,.42.59,1.04.88,1.86.86l3.68-.03c1.85-.04,2.76-.3,2.77-.94.01-.64-.57-1.09-1.42-1.27Z"/><path class="cls-1" d="M47.55,17.49c-.05,0-.1,0-.15,0h-.14c-.09,0-.22-.02-.38-.06v-.04c.34-.2.64-.36.91-.45l.02-.19c-.19.05-.33.07-.44.07-.14,0-.26-.03-.38-.08-.05-.02-.09-.03-.13-.05-.05-.02-.08-.03-.09-.03-.05-.01-.07-.04-.08-.09l1.1-.33c.02-.15.03-.28.03-.38,0-.25-.13-.46-.38-.64l.03-.04c.22,0,.43,0,.63.04.19.03.32.08.39.13.07.06.11.15.11.26,0,.06-.01.17-.03.32h.13c.41,0,.61.08.61.23,0,.13-.16.22-.47.27-.05.01-.15.04-.3.09-.02.01-.05.02-.08.03l-.03.15s.03,0,.05,0c.07,0,.13,0,.16,0,.09,0,.17.03.25.08.07.05.11.1.11.15,0,.05-.06.12-.17.22l-.29.16-.24.15-.07.31c.46-.15.74-.23.84-.23s.21.03.32.1c.17.1.25.17.25.21,0,.12-.22.2-.67.23-.05,0-.09.01-.13.02-.08.01-.16.02-.24.03-.11.02-.21.03-.32.04l-.36.47c.25-.05.47-.08.65-.08.23,0,.38.09.47.26.08.17.12.47.12.9l.03,1.69v.19c.02.51-.09.76-.32.76-.12,0-.24-.06-.37-.17l-.98-.93s.05-.03.06-.03c.03,0,.11.05.25.14.1.06.29.1.57.1.03-.33.04-.56.04-.69,0-.05,0-.15,0-.3,0-.05,0-.09,0-.15-.19.22-.33.36-.41.43-.07.07-.17.13-.28.18-.09-.03-.19-.07-.29-.13,0,.36-.01.59-.02.7,0,.09-.02.17-.03.25-.05.18-.11.26-.21.26s-.18-.07-.26-.22c-.09-.15-.13-.3-.13-.45,0-.44.12-1,.38-1.66.02-.07.06-.18.13-.32.02-.04.03-.08.05-.13-.06,0-.13,0-.21,0h-.11c-.13,0-.21-.03-.23-.1h0c.17-.1.29-.16.36-.19.09-.05.21-.09.36-.14l.32-.5c-.55.2-.93.36-1.14.47-.28.17-.45.25-.52.25-.14,0-.28-.08-.4-.23-.07-.1-.11-.17-.11-.22h0s0-.05,0-.05c.69-.06,1.31-.4,1.83-1.01ZM47.71,17.92l.03-.15-.49.32.45-.16ZM47.81,19.9c-.07,0-.15-.01-.26-.03h0l-.05.51c.13-.15.24-.31.32-.48ZM47.92,19.39c.1-.05.19-.08.26-.08.15,0,.22.07.22.21h0c0,.07-.01.11-.04.15-.03.04-.15.16-.33.36-.03.03-.08.1-.17.2-.02.03-.05.06-.07.09.15-.05.37-.21.66-.47v-.12h0v-.02h0v-.11c0-.06,0-.12,0-.17v-.14c0-.27-.08-.41-.23-.41-.04,0-.13.04-.27.12-.05.03-.13.07-.25.1l-.08.4c.14-.06.24-.1.3-.13ZM49.47,20.25c.1,0,.19-.02.26-.05.08-.04.23-.13.44-.28.24-.16.46-.35.67-.55v-.07l-.84-.08-.02-.03c.19-.1.32-.17.41-.21.1-.05.23-.1.38-.15-.01-.1-.05-.2-.1-.32-.2.09-.34.15-.42.2-.06.03-.09.05-.11.05-.05,0-.1-.03-.15-.09-.05-.06-.12-.2-.22-.4.58-.26,1.02-.61,1.31-1.03l.17-.25c.06-.11.09-.18.09-.2,0-.05-.02-.08-.06-.08-.02,0-.17.08-.43.24l-.51.32-.24.16h-.02s0,0,0,0h0c-.15,0-.22-.13-.22-.39,0-.08,0-.15.03-.22.36-.28.6-.48.72-.6l.4-.4c.15-.14.24-.24.27-.29.07-.11.13-.17.19-.17.02.17.03.28.03.33,0,.23-.12.48-.38.73.02,0,.04-.01.06-.02.12-.03.2-.05.24-.07.21-.07.36-.1.47-.1.03,0,.09.01.15.04.22.1.32.19.32.27,0,.05-.06.13-.18.25l-1.1,1.07c.44-.12.78-.19,1.04-.19.32,0,.6.05.84.15.23.1.34.23.34.38,0,.11-.09.27-.26.5,0,.01-.01.02-.03.03-.1.12-.17.21-.23.26l-.18.2-.35.36c-.03.05-.07.1-.11.15.12-.04.23-.06.32-.06.16,0,.31.04.44.13.18.1.26.19.26.26,0,.15-.14.22-.41.22h-.09s-.12,0-.23,0h-.14c-.07,0-.13,0-.2,0-.25,0-.45.02-.61.05,0,.07,0,.14,0,.2v.14h0v.02c0,.17,0,.38.03.66v.04c.02.32.03.52.03.59,0,.51-.21.82-.64.91l-.7.17c-.17.04-.39.12-.67.24v-.05c.06-.05.14-.1.23-.17.02-.02.05-.03.07-.05.02-.02.03-.03.05-.04.4-.3.66-.55.77-.75.11-.2.17-.54.17-1.02,0-.05,0-.13,0-.26,0-.07,0-.15,0-.23,0-.09,0-.18,0-.26-.13.04-.24.07-.32.1-.1.03-.2.07-.3.11-.03.01-.06.02-.09.03-.02,0-.04.01-.06.02-.05.02-.08.03-.12.03-.1,0-.18-.03-.24-.1l-.24-.29s-.04-.05-.03-.06v-.03h.02ZM50.85,19.94v-.23l-.46.33.46-.1ZM51.18,18.5c.12.07.19.11.22.11h.02s.03,0,.04,0c.06-.01.11-.02.16-.03.02,0,.05,0,.09,0,.26,0,.38.07.38.2,0,.06-.03.11-.09.17-.06.06-.22.17-.46.32v.47c.34-.45.61-.89.8-1.32.05-.11.07-.19.07-.24,0-.1-.04-.15-.11-.15h-.03c-.27,0-.48.03-.64.07-.16.05-.4.15-.73.31.11.03.2.07.27.11Z"/><path class="cls-1" d="M58.58,20.72s.08.03.15.09c.09.07.27.15.54.24.27.09.44.14.5.14.16,0,.27-.05.32-.16,0-.01,0-.06,0-.15,0-.11,0-.27,0-.48,0-.05,0-.11,0-.2v-2.14c0-.18-.02-.48-.07-.9-.05-.35-.12-.58-.22-.69-.1-.12-.29-.18-.57-.18-.39,0-.79.07-1.18.2-.07.02-.15.05-.23.08-.07.02-.15.05-.22.07-.08.03-.16.05-.23.08-.08.03-.16.05-.23.08-.26.08-.42.13-.49.15-.07.02-.13.03-.17.03-.07,0-.26-.04-.56-.13.21.38.32.7.32.95l-.12,1.69-.02,2.01c-.02.13-.07.2-.15.2-.09,0-.19-.09-.29-.26-.18-.3-.26-.53-.26-.69,0-.03,0-.06,0-.09l.12-.68.02-.61s0-.13.02-.26c0-.06.01-.13.02-.19.02-.23.04-.45.05-.65,0-.08.01-.16.02-.25,0-.11.01-.18.02-.2,0-.05.01-.11.03-.2.02-.12.03-.21.03-.26.02-.11.03-.2.03-.26v-.04h0v-.02c0-.14.02-.23.07-.27.05-.04.16-.08.34-.12.03,0,.07-.02.14-.04.1-.03.23-.07.39-.13.1-.03.22-.07.34-.11.27-.09.67-.18,1.18-.26.51-.08.91-.12,1.22-.12.48,0,.87.14,1.18.42.18.17.27.46.27.87l.02,2.12.03,1.26.04,1.02c0,.36-.1.55-.32.55-.17,0-.54-.21-1.12-.62-.36-.26-.71-.53-1.04-.8.01,0,.03,0,.05,0ZM57.6,19.59c.03-.28.05-.5.05-.64h0v-.02h0v-.1c0-.06,0-.11,0-.17-.17.06-.29.1-.35.14-.16.08-.26.12-.3.12-.19,0-.37-.09-.54-.27-.03-.05-.05-.09-.05-.13h0c.45-.1.82-.27,1.13-.52.3-.24.6-.63.9-1.14-.17.11-.3.22-.4.32-.1.11-.23.28-.39.51-.15.22-.28.33-.39.33-.07,0-.14-.05-.21-.15-.06-.1-.09-.21-.09-.33,0-.19.08-.42.25-.68h.03s0,.02,0,.03v.03s.01.03.02.05v.03s0,.01,0,.02h0c.02.17.08.26.16.26.07,0,.19-.08.36-.24.33-.28.67-.43,1.01-.43.23,0,.34.09.34.26,0,.09-.08.21-.24.38l-.26.28c-.09.09-.26.25-.53.49.09-.02.16-.03.2-.05.23-.07.36-.11.38-.11.05-.01.1-.02.15-.02.16,0,.3.03.42.08.12.06.18.12.18.19,0,.07-.04.13-.13.15-.09.03-.29.07-.59.1-.09.02-.18.04-.26.06l-.31.08c.16.06.24.16.24.28,0,.09-.02.2-.07.35-.03.09-.07.19-.09.32l.68-.12c.07-.11.1-.22.1-.31,0-.07-.03-.12-.09-.16l-.12-.07s-.02-.01-.03-.04c0,0-.01-.01-.02-.02.07-.02.13-.03.17-.03.19,0,.36.04.5.11.15.07.22.16.22.25,0,.23-.2.52-.59.86-.27.23-.53.37-.79.41v-.05c.17-.16.31-.34.42-.51-.43.08-.75.16-.97.24-.23.08-.44.19-.65.33-.15.09-.25.14-.3.14-.08,0-.16-.05-.24-.15-.08-.1-.12-.2-.12-.3,0-.03,0-.06.02-.09.08-.23.2-.47.35-.72.09-.13.14-.2.15-.2.05,0,.09.07.13.2.04.14.06.31.08.51.15-.03.31-.07.48-.12Z"/><path class="cls-1" d="M63.68,20.42c.14-.1.32-.24.54-.44.12-.12.25-.26.4-.43.14-.15.38-.43.73-.83.13-.16.25-.3.37-.44.17-.2.34-.4.52-.6-.26.14-.45.24-.57.3-.14.07-.32.15-.55.23-.12,0-.26-.06-.43-.15-.16-.09-.26-.18-.31-.26.4-.16.73-.33,1-.5.26-.18.59-.45.98-.81l.27-.25c.29-.29.52-.57.69-.83-.39.07-.71.24-.97.51-.14.14-.28.28-.43.43-.16.16-.26.25-.29.28-.04.03-.09.04-.15.04-.08,0-.15-.07-.22-.2-.07-.14-.11-.28-.11-.43,0-.11.05-.31.15-.6h.08c.22.26.4.39.52.39.07,0,.26-.11.55-.32.32-.24.68-.37,1.08-.37.12,0,.32.04.6.11.16.04.24.09.24.16,0,.09-.05.18-.15.26-.23.2-.53.42-.92.66l-1.27.76-.21.16c.57-.18,1.05-.37,1.43-.57.22-.12.38-.18.49-.18.04,0,.12,0,.23.02.36.1.55.23.55.38,0,.1-.08.18-.23.24l-.4.14c-.42.15-.88.53-1.37,1.12l-.23.27-1.05,1.22c-.47.54-1,.86-1.6.95h-.17c-.12,0-.25-.02-.4-.05l-.02-.04c.27-.13.48-.24.62-.33ZM65.35,20.89l-.03.3v.05c0,.1,0,.18,0,.24.09-.05.17-.1.24-.16.14-.15.22-.23.23-.24.02-.01.05-.02.09-.03-.24.31-.42.58-.53.81.03.01.05.02.08.03.19.09.31.14.36.17.17.08.32.12.44.12.1,0,.15-.07.15-.2v-.13s0-.5,0-.5v-.1c0-.14,0-.36-.03-.65l-.58.09s-.08,0-.14,0h-.03l-.5-.07c-.18-.03-.27-.07-.27-.12v-.03l1.45-.36.08-.02c0-.26,0-.45-.03-.55-.02-.11-.05-.19-.11-.24-.12-.11-.18-.18-.18-.2,0-.05.04-.08.12-.08.19,0,.43.09.72.27.2.12.3.31.3.55v.08c.17-.05.3-.07.38-.07.15,0,.32.04.52.11.17.07.26.15.26.21,0,.06-.06.11-.19.15-.12.03-.36.07-.73.1-.05,0-.15.01-.29.04v.29s.03,1.61.03,1.61c.01.48-.09.72-.32.72-.12,0-.35-.15-.7-.46-.08-.07-.2-.17-.35-.28-.1-.07-.27-.2-.51-.37-.11.19-.19.3-.23.35-.04.05-.08.07-.14.07-.22,0-.32-.12-.32-.38s.08-.47.24-.69l.32-.44s.01-.02.03-.03c.05-.06.09-.09.12-.09.02.06.03.11.03.13ZM69.32,20.02c-.16,0-.38.04-.65.11l-.03-.02v-.03c.18-.04.31-.08.41-.11.08-.03.19-.09.32-.18-.07-.07-.14-.13-.19-.16-.05-.03-.16-.08-.32-.15-.15-.07-.33-.15-.55-.24-.2-.08-.36-.14-.5-.18-.25-.07-.41-.11-.48-.14-.06-.02-.14-.06-.22-.11v-.04c0-.06.13-.09.4-.09.86,0,1.8.27,2.83.82.44.22.66.44.66.65,0,.13-.07.19-.21.19-.09,0-.2-.02-.32-.07-.05-.02-.16-.06-.33-.1-.05-.02-.09-.03-.14-.04-.3-.07-.53-.1-.69-.1ZM68.59,21c.16.09.3.2.43.35.13.15.2.28.2.38,0,.14-.07.21-.2.21-.06,0-.21-.03-.43-.09-.06-.02-.12-.03-.21-.03-.12,0-.38.05-.75.15v-.03c.44-.2.66-.36.66-.45,0-.03-.05-.09-.14-.17-.02-.02-.07-.06-.13-.12-.02-.02-.03-.03-.05-.04-.02-.01-.03-.02-.05-.03-.07-.05-.12-.08-.14-.09-.13-.06-.19-.11-.18-.15l.02-.05c.43,0,.75.06.96.18Z"/></g></svg>