<?xml version="1.0" encoding="UTF-8"?><svg id="_レイヤー_2" xmlns="http://www.w3.org/2000/svg" viewBox="0 0 348.57 49.6"><defs><style>.cls-1{fill:#005c3f;}.cls-1,.cls-2,.cls-3{stroke-width:0px;}.cls-2{fill:#a47a43;}.cls-3{fill:#7bbd34;}</style></defs><g id="menu"><circle class="cls-1" cx="24.8" cy="24.8" r="24.8" transform="translate(-3.65 45.31) rotate(-80.78)"/><path class="cls-3" d="M48.8,31.06c0-12.02-16.23-20.65-16.23-20.65,0,0-16.26,8.77-16.26,21.75,0,8.83,5.06,14.16,12.88,17.05,9.54-1.71,17.2-8.87,19.61-18.14Z"/><path class="cls-2" d="M24.8,0C20.98,0,17.36.82,14.09,2.43c8.61,2.38,18.49,7.98,18.49,7.98,0,0,2.31-1.2,4.82-2,1.46-.46,3.27-.87,4.9-1.19C37.81,2.76,31.63,0,24.8,0Z"/><path class="cls-1" d="M122.57,22.06c.43.08.78-.3,1.04-.51.86-.68,2.7-1.75,3.43-2.11v.03c0,.16-1.91,2.32-2.81,3.11-.35.31-.99.89-1.19,1.13-.2.23-.33.91-.25,1.3.17.87.82.88,1.03.7.71-.53,1.15-.95,1.63-1.54l1.62-1.82c.22-.26,1.08-1.36,1.19-1.36.29,0,.43.54.43,1.62,0,1.28-.36,1.99-1.11,1.99-.13,0-1.96-.24-1.96-.24,0,0,.91.59,1.48,1.2,0,0,.79.74,1.42,1.15.62.4,1.7.51,2.12.05.43-.47.36-2.29.36-2.29,0-.18-.03-1.3-.03-1.46-.02-.35-.07-2.17-.33-2.81l.79-.17c1.1-.24,2.1-.63,3.01-1.16.9-.53,1.36-.99,1.36-1.39,0-.46-.5-.81-1.49-1.06-.37-.04-.65-.08-.83-.1-.29-.02-.52-.03-.69-.03-.47,0-1.2.14-2.22.43.29-.22.43-.43.43-.63,0-.26-.33-.44-.99-.53.18-.11,1.01-.71,1.44-.99.42-.28,1.71-1.29,1.71-1.76,0-.31-.19-.58-.56-.83-.4-.22-.86-.33-1.39-.33-1.35,0-2.88.46-4.6,1.39-.77.42-1.82.89-3.14,1.42,0,0,1.25.76,1.62.76.44,0,.88-.11,1.32-.33l.93-.56.99-.53c.31-.18.56-.26.76-.26-.13.51-.38.9-.73,1.19-.75.66-1.31,1.03-1.69,1.09l-1.23.23c-.22.07-.48.35-.41.8.05.34.38.52.67.52s1.86-.08,1.86-.08c0,0-2.24,1.25-2.88,1.54,0,0-1.95.83-2.45.89-.35.05-.64-.02-.86-.07.13.99.76,2.3,1.19,2.38ZM129.16,18.45s.81-.36,1.31-.49c.44-.12.78-.17.94-.17.33,0,.5.16.5.47,0,.53-.57,1.05-1.72,1.55-.2-.2-1.06-.33-1.06-.33,0,0,.09-.22.1-.53,0-.32-.07-.5-.07-.5Z"/><path class="cls-1" d="M119.26,22.62c.12-.79.58-1.5.58-1.5l-1.54,1.6-1.39,1.46.1-3.29s.54-.23.83-.36c.35-.15.58-.25.7-.3.71-.29,1.06-.56,1.06-.83,0-.15-.16-.35-.47-.6-.35-.26-.75-.4-1.19-.4-.24,0-.46.02-.66.07.15-.84.17-1.52.19-1.79.02-.37.24-1.17.26-1.3,0-.01,0-.03,0-.04.04-.18.09-.35.13-.53.07-.28.1-.44.1-.46,0-.46-.51-1.2-1.52-2.22-.46-.46-.99-.7-1.59-.7-.11,0-.3.03-.56.1.33,1.15.54,2,.63,2.55.09.62.13,4.93.13,5.22-.66.29-1.15.5-1.46.63-.46.18-.87.33-1.22.46-.69.26-1.61.59-2.78.99l.13.2c.75.35,1.52.53,2.32.53.62,0,1.15-.08,1.59-.23.57-.2,1.44-.46,1.44-.46,0,0,0,1-.02,2.17-.02,1.16-.06,2.42-.06,2.42,0,0-1.76,1.55-2.42,2.15-1.21,1.12-1.94,1.84-2.18,2.15-.62.71-.93,1.24-.93,1.59s.64,1.03,1.92,2.02c.79.64,1.61,1.5,2.45,2.58.81,1.04,1.41,1.73,1.79,2.08.4.35.76.53,1.09.53.62,0,.93-.64.93-1.92,0-.62-.7-7.21-.7-7.21-.04-.49-.06-1.43-.06-2.84.77-.75,1.28-1.46,1.52-2.12,0,0,.74-1.59.86-2.38ZM115.05,31.64c-.04,1.24-.19,2.99-.19,2.99,0,0-1.57-.39-2.39-.85-1.42-.79-1.99-1.37-1.99-1.37,0,0,1.13-.88,2.32-1.92,1.08-.93,2.29-2.07,2.29-2.07,0,0,0,1.68-.04,3.22Z"/><path class="cls-1" d="M138.36,28.54c-.6-.46-1.2-.71-1.82-.73h-.03s-.11.03-.2.03l-4.63.46c-.22.04-.85.06-.85.06,0,0-.66-.46-1.74-.74-1.91-.48-2.54-.52-2.54-.52,0,0,.67.76.89,1.66l-1.92.46-5.05,1.12c-.26.06-.67.15-1.04.15s-.62-.14-.62-.14c0,0,.18.56.53,1.06.35.5,1,.99,1.49.99.35,0,1.04-.24,1.52-.44-1.02,1.41-1.52,2.59-1.52,3.54,0,.82.26,1.22.79,1.22.4,0,.72-.18.96-.53l1.29-2.19,1.35-2.21-1.42.78v.2c.09-.64.14-1.16.17-1.55.68-.29,1.27-.44,2.28-.75l1.49-.4s.08.87,0,3.01c-.09,2.14-.23,2.75-.23,2.75,0,0-.68.02-1.7-.13-1.14-.18-1.87-.82-1.87-.82,0,0,.26.66.75,1.13,1.03.91,1.57,1.27,2.69,2.35.93.93,1.68,1.39,2.25,1.39s.91-.33.93-.99l.06-3.01.13-4.9.1-1.19h1.75l1.52.06c1.43.02,2.44.13,3.01.33.59.2,1.09.3,1.49.3.66,0,.99-.22.99-.66,0-.18-.42-.56-1.26-1.16Z"/><path class="cls-1" d="M136.47,31.72c-.4-.22-1.26-.46-2.12-.5-.86-.03-1.55.32-1.55.32,0,0,.68.3,1.38.74.73.49,1,1,1,1.36s-.54.86-1.79,1.22c0,0,.39.1.63.07.24-.03.63-.07.76-.07.26,0,.56.11.89.33.77.42,1.28.63,1.52.63.71,0,1.06-.43,1.06-1.29,0-1.17-.6-2.11-1.79-2.82Z"/><path class="cls-1" d="M170.8,24.15c-1.1-.44-2.02-.66-2.75-.66-5.05,0-10.05.49-13.25,1.46-3.07.93-4.97,1.39-5.72,1.39-.55,0-2.57-.19-2.57-.19,0,0,.26.73,1.05,1.35.91.68,1.62,1.03,2.15,1.03.42,0,1.77-.44,4.04-1.32,3.73-1.1,7.35-1.69,9.11-1.75.71,0,1.38.02,2.02.07.22.04.33.14.33.3-.09.38-4.53,2.48-4.53,2.48,0,0,4.96-1.71,6.35-1.82,1.34,0,2.64.09,3.87.26.84,0,1.43-.31,1.79-.93,0-.62-.63-1.17-1.89-1.65Z"/><path class="cls-1" d="M186.57,32.8c-2.63-.67-1.94-5.9-.72-8.77.76-1.79,2.52-3.74,3.62-4.76,1.4-1.29,1.96-2.39,1.5-2.92-.46-.53-1.19-.68-1.85-.68-.48,0-1.19.26-2.14.78-1.07.57-2.47,1.16-3.36.57-2.19-1.45-.23-2.94-.23-2.94,0,0-3.75,2.74-1.12,4.74,1.37,1.04,4.17.13,4.17.13,0,0-4,5.41-4.06,11.18-.06,6.16,2.97,7.78,5.34,7.27,6.69-1.45,9.04-15.11,9.04-15.11,0,0-5.1,11.82-10.2,10.52Z"/><path class="cls-1" d="M200.44,22.52c-1.29-1.98-.56-6.72-.56-6.72,0,0-3.82,6.5.12,10.41,3.06,3.03,6.53-1.56,6.53-1.56,0,0-4.33.59-6.09-2.13Z"/><path class="cls-1" d="M229.63,34.18c-.76-.37-1.62-.43-2.89-.13-1.58.37-4.02.97-5.65.92-2.29-.07-4.73-.77-4.75-2.66-.01-1.47.98-3.07,2.64-4.54,2.26-1.97,9.14-5.15,9.69-5.51.55-.37.83-.8.83-1.3,0-.37-.25-.75-.75-1.14-1.37-1-3.78-1.38-3.78-1.38,0,0,.37.4.39.91.02.51-.56,1.23-1.69,2.05-.03.03-.07.05-.12.08-.53.34-.93.63-1.22.87-.55.37-1.73,1.15-1.73,1.15,0,0-1.96-.45-2.4-1.9-.33-1.06-.06-2.3-.95-3.56-.96-1.34-3.72-1.67-3.72-1.67,0,0,1.38.38,2.1,3.07.41,1.55-.23,2.62.51,4.16.58,1.21,2.63,1.49,2.63,1.49,0,0-5.06,3.21-5.31,7.38-.1,1.68.87,3.29,2.84,4.29,2.52,1.28,8.78,1.01,11.39.54.85-.16,1.6-.41,2.22-.81.81-.52.53-1.89-.27-2.3Z"/><path class="cls-1" d="M249.69,14.21c0,.6-2.95,2.6-2.95,2.6,2.07-1.13,3.16-1.58,4.8-1.81,1.64-.23,2.68-.5,2.68-1.1,0-.66-.44-1.16-1.22-1.65-2.04-1.28-6.27.42-6.27.42,0,0,2.97.87,2.97,1.55Z"/><path class="cls-1" d="M259.5,34.95c-1.32-.27-4.2.2-5.36.25-1.6.07-2.44-.53-2.52-1.58l-.44-4.57c-.08-.87-.6-1.3-1.58-1.3-.45,0-.94.25-1.21.28,0,0,2.74-3.15,3.22-3.72l3.03-3.62c.6-.59.54-1.64.2-1.93-.42-.47-.92-.71-1.5-.71-1,0-2.44.49-4.33,1.46-2.05,1.02-3.65,1.5-4.81,1.54-.77.02-1.34-.99-1.34-.99,0,0-.59,1.18-.59,2.28,0,1.55.42,2.33,1.26,2.33.32,0,.91-.33,1.77-.99.9-.74,4.53-2.48,4.53-2.48-.26.53-.55,1.09-.87,1.7-.21.42-4.66,7.08-6.29,8.55-2.1,1.92-3.15,3.35-3.32,4.53-.24,1.59,1.4,3.08,2.69,1.73.53-.55.87-1.17,1.18-1.69,1.1-1.89,3.88-5.18,3.88-5.18,0,0,1.38-.34,1.54.91.04.34.1.67.16.98.21,1.92.6,3.3,1.18,4.14.58.81,1.43,1.21,2.56,1.18l5.07-.04c2.55-.05,3.8-.41,3.82-1.3.02-.88-.79-1.5-1.95-1.75Z"/><path class="cls-1" d="M65.52,23.1c-.07,0-.14.01-.21.01h-.19c-.13,0-.3-.03-.52-.08v-.06c.46-.28.88-.49,1.26-.62l.02-.26c-.26.06-.46.09-.6.09-.19,0-.36-.04-.52-.11-.06-.02-.12-.05-.18-.07-.07-.03-.11-.05-.12-.05-.06-.02-.1-.05-.11-.12l1.52-.46c.02-.2.04-.38.04-.53,0-.34-.17-.64-.52-.88l.04-.06c.31,0,.6.01.87.06.27.05.45.11.54.18.1.08.15.2.15.36,0,.09-.02.23-.05.44h.18c.56,0,.85.11.85.32,0,.17-.21.3-.65.38-.06.02-.2.05-.41.12-.03.02-.07.03-.11.04l-.05.21s.05,0,.07-.01c.1,0,.18-.01.22-.01.12,0,.23.04.34.11.1.06.15.13.15.21,0,.06-.08.16-.24.31l-.4.22-.33.2-.09.42c.63-.21,1.02-.32,1.16-.32s.29.05.44.14c.23.14.34.24.34.29,0,.16-.31.27-.93.32-.06,0-.12.02-.18.02-.11.02-.22.03-.33.04-.15.02-.29.04-.43.06l-.49.65c.34-.07.64-.11.89-.11.31,0,.53.12.65.35.12.23.17.64.17,1.25l.05,2.33v.26c.02.7-.13,1.05-.45,1.05-.16,0-.33-.08-.5-.24l-1.35-1.28s.07-.04.08-.04c.04,0,.15.06.34.19.13.09.4.13.79.14.04-.45.06-.77.06-.95,0-.06,0-.2-.01-.41,0-.06-.01-.13-.01-.2-.27.31-.45.5-.56.59-.1.09-.23.18-.39.25-.13-.04-.26-.1-.4-.18,0,.49-.02.82-.02.96,0,.12-.02.23-.05.34-.06.24-.16.36-.28.36s-.24-.1-.35-.31c-.12-.2-.18-.41-.18-.62,0-.61.17-1.37.52-2.28.03-.09.09-.24.18-.45.02-.05.05-.11.07-.18-.09,0-.18-.01-.29-.01h-.15c-.18,0-.29-.04-.32-.14h.01c.23-.13.4-.22.49-.26.13-.06.29-.13.49-.19l.44-.69c-.76.27-1.28.49-1.56.65-.38.23-.62.34-.72.34-.2,0-.38-.11-.55-.32-.1-.13-.15-.24-.15-.31h0s.01-.07.01-.07c.96-.09,1.8-.55,2.53-1.39ZM65.74,23.7l.05-.21-.67.44.62-.22ZM65.87,26.41c-.09,0-.21-.02-.35-.05h-.01l-.07.71c.18-.2.33-.42.43-.66ZM66.02,25.72c.13-.07.25-.11.36-.11.2,0,.31.1.31.29h0c0,.09-.02.16-.06.21-.05.05-.2.22-.46.49-.04.04-.12.13-.24.28-.03.04-.06.08-.09.12.21-.07.51-.29.91-.65v-.16h0v-.02h0v-.15c0-.09,0-.16.01-.24v-.19c0-.38-.11-.56-.32-.56-.05,0-.18.05-.38.16-.07.05-.18.09-.34.14l-.12.55c.2-.08.33-.14.41-.18ZM68.16,26.89c.14,0,.26-.02.36-.07.11-.05.31-.18.61-.39.33-.23.64-.48.93-.75v-.09l-1.15-.11-.02-.05c.26-.13.45-.23.56-.29.14-.06.31-.13.52-.21-.02-.13-.06-.28-.14-.45-.27.12-.47.21-.58.28-.08.05-.13.07-.15.07-.07,0-.14-.04-.2-.13-.06-.09-.17-.27-.31-.55.8-.36,1.4-.83,1.8-1.42l.23-.34c.09-.15.13-.24.13-.28,0-.07-.03-.11-.08-.11-.03,0-.23.11-.59.33l-.71.45-.33.22h-.02s0,.01-.01.01h-.01c-.2,0-.31-.18-.31-.54,0-.11.01-.21.04-.31.5-.39.83-.67.99-.82l.55-.55c.21-.2.34-.33.38-.4.09-.15.18-.23.26-.24.03.24.05.39.05.46,0,.32-.17.65-.52,1,.02,0,.05-.02.08-.02.17-.04.27-.07.33-.09.28-.09.5-.14.65-.14.05,0,.12.02.21.06.3.13.45.26.45.38,0,.06-.08.18-.25.34l-1.52,1.47c.6-.17,1.08-.26,1.43-.26.45,0,.83.07,1.15.21.31.14.47.31.47.52,0,.15-.12.38-.35.68,0,.02-.02.03-.04.04-.13.16-.24.29-.32.36l-.25.27-.48.49c-.05.07-.1.14-.15.21.17-.05.32-.08.43-.08.22,0,.42.06.61.18.24.14.36.26.36.36,0,.2-.19.31-.56.31h-.13c-.06,0-.17-.01-.32-.01h-.19c-.09,0-.18,0-.27.01-.34,0-.62.03-.83.07,0,.1-.01.2-.01.28v.19h0v.02c0,.23.01.53.04.91v.06c.02.44.04.71.04.81,0,.71-.29,1.12-.88,1.26l-.96.24c-.23.05-.54.16-.93.33v-.07c.09-.06.19-.14.32-.24.03-.02.06-.05.09-.07.02-.02.05-.04.07-.06.56-.42.91-.76,1.06-1.03.15-.27.23-.74.23-1.4,0-.06,0-.18.01-.35,0-.1,0-.21.01-.32,0-.13,0-.25.01-.36-.18.05-.33.1-.44.14-.13.05-.27.1-.41.15-.04.02-.08.03-.13.05-.02,0-.05.02-.08.02-.06.02-.12.04-.17.04-.14,0-.25-.05-.33-.14l-.33-.4s-.05-.07-.05-.08v-.04h.02ZM70.07,26.47v-.32l-.64.46.64-.14ZM70.51,24.5c.17.1.27.15.31.15h.02s.04-.01.06-.01c.08-.02.15-.03.22-.05.02,0,.06-.01.12-.01.35,0,.53.09.53.27,0,.08-.04.16-.13.24-.09.08-.3.23-.63.45v.65c.47-.62.84-1.23,1.1-1.82.06-.15.09-.26.09-.33,0-.13-.05-.2-.15-.2h-.04c-.37,0-.66.04-.88.09-.22.06-.55.2-1,.42.15.04.27.09.38.15Z"/><path class="cls-1" d="M80.71,27.55s.11.04.2.12c.13.1.37.21.74.33.38.13.61.19.69.19.22,0,.37-.07.45-.22,0-.02.01-.08.01-.2,0-.15.01-.37.01-.66,0-.06,0-.16.01-.28v-2.95c.01-.24-.02-.66-.09-1.25-.06-.48-.17-.8-.31-.95-.14-.16-.4-.25-.79-.25-.54,0-1.08.09-1.62.27-.1.03-.21.07-.32.11-.1.03-.2.06-.31.09-.11.04-.22.07-.32.11-.11.04-.22.07-.32.11-.36.11-.58.18-.67.2-.1.02-.18.04-.24.04-.1,0-.36-.06-.78-.18.29.53.44.96.44,1.31l-.17,2.33-.02,2.76c-.03.18-.1.27-.2.27-.12,0-.26-.12-.4-.36-.24-.42-.36-.73-.36-.95,0-.05,0-.09.01-.12l.16-.94.02-.83c0-.05,0-.18.02-.36l.02-.26c.03-.32.05-.62.07-.89,0-.11.02-.22.02-.34,0-.15.02-.24.02-.28,0-.06.02-.16.04-.28.02-.16.04-.29.05-.36.02-.16.04-.27.05-.35v-.06h0v-.02c0-.19.03-.31.09-.38.06-.05.22-.11.47-.16.04,0,.1-.03.19-.06.13-.04.31-.1.54-.18.14-.04.3-.09.47-.15.38-.13.92-.25,1.62-.36.7-.11,1.26-.16,1.68-.16.66,0,1.2.19,1.62.58.25.23.38.63.38,1.2l.02,2.92.05,1.74.06,1.4c0,.5-.15.75-.43.75-.23,0-.74-.29-1.54-.86-.5-.36-.98-.73-1.43-1.11.02,0,.04-.01.07-.01ZM79.37,25.99c.05-.39.07-.69.07-.88h0v-.02h0v-.14c0-.08,0-.16-.01-.24-.23.08-.4.14-.48.19-.22.11-.36.16-.41.16-.26,0-.5-.13-.74-.38-.05-.06-.07-.12-.07-.18h0c.62-.14,1.14-.37,1.55-.72.42-.34.83-.86,1.23-1.58-.24.16-.42.31-.55.45-.14.15-.32.38-.54.71-.21.31-.39.46-.54.46-.1,0-.2-.07-.28-.21-.09-.14-.13-.29-.13-.46,0-.26.11-.57.34-.94h.05s0,.03.01.04v.04s.02.05.02.07v.05s.01.02.01.02h0c.03.24.11.35.22.35.09,0,.26-.11.49-.33.45-.39.92-.59,1.39-.59.31,0,.47.12.47.35,0,.12-.11.29-.33.52l-.36.39c-.12.13-.36.35-.73.67.13-.02.22-.05.27-.07.32-.09.5-.15.53-.15.06-.02.13-.02.21-.02.22,0,.41.04.58.11.16.08.25.16.25.26,0,.1-.06.17-.18.21-.12.05-.4.09-.81.14-.12.02-.25.05-.36.08l-.42.11c.22.09.33.22.33.39,0,.12-.03.28-.09.48-.05.12-.09.27-.13.45l.94-.16c.09-.16.14-.3.14-.42,0-.09-.04-.17-.12-.22l-.16-.09s-.02-.02-.05-.06c0,0-.02-.02-.02-.02.09-.03.17-.05.24-.05.26,0,.49.05.69.15.2.1.31.22.31.34,0,.32-.27.72-.81,1.19-.37.32-.73.51-1.09.56v-.07c.24-.23.43-.46.58-.71-.59.11-1.03.22-1.34.33-.31.11-.61.26-.89.46-.2.13-.34.19-.41.19-.11,0-.22-.07-.33-.21-.11-.13-.17-.27-.17-.41,0-.04,0-.08.02-.13.11-.31.27-.64.48-.99.12-.18.19-.27.21-.27.06,0,.12.09.18.28.05.2.09.43.11.71.21-.05.43-.1.66-.16Z"/><path class="cls-1" d="M87.74,27.13c.2-.13.44-.34.74-.61.17-.16.35-.36.55-.59.2-.21.53-.59,1-1.14.18-.22.35-.42.51-.6.24-.27.47-.55.72-.82-.36.2-.62.33-.79.41-.2.09-.45.2-.75.32-.16,0-.36-.08-.59-.21-.22-.13-.36-.24-.42-.35.55-.22,1.01-.45,1.38-.69.36-.24.81-.62,1.35-1.12l.38-.34c.4-.4.72-.78.95-1.14-.53.09-.98.33-1.34.71-.2.2-.39.39-.59.59-.22.22-.35.35-.4.39-.05.04-.12.06-.2.06-.11,0-.21-.09-.31-.28-.1-.19-.15-.38-.15-.59,0-.15.07-.42.21-.82h.11c.31.36.54.54.72.54.1,0,.35-.15.75-.45.45-.34.94-.51,1.48-.51.17,0,.45.05.82.15.22.05.33.13.33.22,0,.13-.07.25-.2.36-.31.28-.74.58-1.27.91l-1.75,1.05-.29.22c.79-.25,1.45-.51,1.97-.79.3-.16.53-.25.68-.25.05,0,.16,0,.32.02.5.14.75.31.75.52,0,.14-.11.25-.32.33l-.55.19c-.58.21-1.21.73-1.88,1.54l-.32.38-1.45,1.68c-.64.74-1.38,1.18-2.2,1.31h-.23c-.17,0-.35-.02-.55-.07l-.02-.06c.38-.17.66-.33.86-.46ZM90.04,27.78l-.04.41v.07c0,.13,0,.24.01.33.12-.06.23-.14.33-.22.2-.2.3-.31.32-.33.02-.02.07-.03.13-.05-.34.42-.58.8-.73,1.12.04.02.07.03.11.05.26.12.42.2.49.24.23.11.44.16.61.16.14,0,.21-.09.21-.28v-.18s.01-.69.01-.69v-.14c0-.2-.01-.49-.04-.89l-.8.12s-.11.01-.19.01h-.05l-.69-.09c-.25-.04-.38-.09-.38-.16v-.05l2-.49.11-.02c0-.36-.01-.62-.04-.76s-.07-.26-.15-.33c-.17-.15-.25-.24-.25-.28,0-.07.05-.11.16-.11.27,0,.6.13.99.38.27.17.41.43.41.76v.11c.24-.06.41-.09.53-.09.2,0,.44.05.72.15.24.1.35.2.35.29,0,.09-.09.15-.26.2-.17.05-.5.09-1,.14-.07,0-.2.02-.4.06v.4s.04,2.22.04,2.22c.02.66-.13.99-.43.99-.17,0-.49-.21-.96-.64-.11-.1-.27-.23-.48-.39-.14-.1-.38-.27-.71-.51-.16.26-.26.42-.32.48-.05.06-.12.09-.19.09-.3,0-.45-.17-.45-.52s.11-.65.33-.95l.44-.6s.02-.03.04-.05c.06-.09.12-.13.16-.13.03.09.05.15.05.18ZM95.51,26.59c-.22,0-.52.05-.89.15l-.04-.02v-.05c.24-.05.43-.11.56-.15.12-.05.26-.13.43-.25-.1-.1-.19-.18-.26-.22-.07-.04-.21-.11-.43-.21-.2-.1-.46-.21-.75-.33-.27-.11-.5-.19-.68-.25-.34-.09-.56-.16-.66-.19-.09-.03-.19-.08-.31-.15v-.06c0-.08.18-.12.55-.12,1.18,0,2.48.38,3.9,1.13.6.31.91.6.91.89,0,.17-.1.26-.29.26-.12,0-.27-.03-.45-.09-.07-.03-.22-.08-.46-.14-.06-.02-.13-.04-.19-.06-.41-.09-.72-.14-.95-.14ZM94.51,27.93c.22.12.42.28.59.48.18.21.27.38.27.52,0,.2-.09.29-.27.29-.09,0-.28-.04-.59-.13-.08-.02-.17-.04-.28-.04-.17,0-.52.07-1.04.2v-.05c.6-.28.91-.49.91-.62,0-.04-.06-.12-.19-.24-.03-.03-.09-.09-.18-.16-.02-.02-.05-.04-.07-.06l-.07-.05c-.1-.07-.17-.11-.19-.13-.18-.08-.26-.15-.25-.2l.02-.07c.6,0,1.04.08,1.33.25Z"/><path class="cls-1" d="M277.35,22.86v3.5c0,.87,0,2.51-1.88,2.51-.81,0-1.28-.34-1.58-.56l.37-.75c.15.11.6.45,1.14.45.99,0,1-.84,1-1.58v-3.56h.95Z"/><path class="cls-1" d="M285.72,22.86v3.25c0,.66,0,2.76-2.69,2.76s-2.7-1.86-2.7-2.76v-3.25h.96v3.19c0,.69,0,1.95,1.74,1.95s1.73-1.28,1.73-1.95v-3.19h.96Z"/><path class="cls-1" d="M289.69,22.86v5.88h-.98v-5.88h.98Z"/><path class="cls-1" d="M304.29,25.17v-2.31h.95v5.88h-.95v-2.7h-2.82v2.7h-.95v-5.88h.95v2.31h2.82Z"/><path class="cls-1" d="M309.53,22.86v5.88h-.98v-5.88h.98Z"/><path class="cls-1" d="M321.98,25.17v-2.31h.95v5.88h-.95v-2.7h-2.82v2.7h-.95v-5.88h.95v2.31h2.82Z"/><path class="cls-1" d="M326.85,22.86v5.88h-.98v-5.88h.98Z"/><path class="cls-1" d="M332.42,28.74h-.95v-5.02h-2.06v-.86h5.06v.86h-2.06v5.02Z"/><path class="cls-1" d="M339.24,23.61c1.28,0,2.18.9,2.18,2.19s-.9,2.2-2.18,2.2c-.62,0-1.17-.22-1.57-.62-.4-.4-.6-.94-.6-1.58,0-1.29.89-2.19,2.17-2.19M339.24,22.73c-1.67,0-3.05,1.21-3.05,3.07,0,1.86,1.38,3.07,3.05,3.07s3.06-1.24,3.06-3.07-1.36-3.07-3.06-3.07h0Z"/><path class="cls-1" d="M348.2,25.26v.86h-2.73v1.76h3.1v.86h-4.05v-5.88h3.94v.86h-2.98v1.54h2.73Z"/><path class="cls-1" d="M295.6,27.99c-.62,0-1.17-.22-1.57-.62-.4-.4-.6-.94-.6-1.58,0-1.29.89-2.19,2.17-2.19.62,0,1.14.21,1.57.52l.27-.81c-.51-.37-1.14-.59-1.84-.59-1.67,0-3.05,1.21-3.05,3.07,0,1.86,1.38,3.07,3.05,3.07.7,0,1.33-.22,1.84-.59v-1.02c-.46.43-1.03.73-1.84.73Z"/></g></svg>