<?xml version="1.0" encoding="UTF-8"?><svg id="_レイヤー_2" xmlns="http://www.w3.org/2000/svg" viewBox="0 0 311.99 56"><defs><style>.cls-1{fill:#fff;stroke-width:0px;}</style></defs><g id="text"><path class="cls-1" d="M19.25,35.4c0-15.49,19.42-25.97,19.42-25.97,0,0-11.54-6.53-21.73-9.43C6.93,4.69,0,14.84,0,26.62c0,16.23,13.16,29.38,29.38,29.38,1.65,0,3.26-.14,4.84-.4-9.1-3.49-14.97-9.81-14.97-20.2Z"/><path class="cls-1" d="M50,5.69c-1.87.37-3.91.84-5.57,1.36-3,.95-5.76,2.38-5.76,2.38,0,0,18.59,9.9,19.34,23.8.49-2.13.76-4.34.76-6.61,0-8.19-3.36-15.6-8.77-20.93Z"/><path class="cls-1" d="M146.14,22.39c.51.1.93-.36,1.25-.61,1.02-.82,3.22-2.09,4.09-2.51v.04c0,.19-2.28,2.77-3.36,3.71-.42.37-1.19,1.07-1.42,1.35-.24.28-.39,1.09-.3,1.56.2,1.04.97,1.05,1.23.84.84-.63,1.37-1.13,1.95-1.84l1.94-2.17c.26-.32,1.29-1.62,1.42-1.62.34,0,.51.64.51,1.94,0,1.53-.43,2.38-1.32,2.38-.16,0-2.34-.29-2.34-.29,0,0,1.08.71,1.77,1.43,0,0,.95.89,1.69,1.37.74.48,2.03.61,2.53.05.51-.56.43-2.73.43-2.73,0-.21-.04-1.55-.04-1.74-.03-.42-.09-2.6-.39-3.36l.95-.2c1.32-.29,2.51-.75,3.6-1.38,1.08-.63,1.62-1.19,1.62-1.66,0-.55-.59-.97-1.78-1.27-.45-.05-.78-.09-.99-.12-.34-.02-.62-.04-.83-.04-.56,0-1.44.17-2.65.51.34-.26.51-.51.51-.75,0-.32-.4-.53-1.19-.63.21-.13,1.21-.85,1.72-1.19.51-.34,2.04-1.54,2.04-2.1,0-.37-.22-.7-.67-.99-.47-.26-1.03-.39-1.66-.39-1.61,0-3.44.55-5.49,1.66-.92.5-2.17,1.07-3.75,1.7,0,0,1.49.91,1.94.91.53,0,1.06-.13,1.58-.39l1.11-.67,1.19-.63c.37-.21.67-.31.91-.31-.16.61-.45,1.08-.87,1.42-.9.79-1.57,1.22-2.02,1.3l-1.46.27c-.26.08-.57.41-.49.96.06.4.45.62.8.62s2.22-.09,2.22-.09c0,0-2.68,1.49-3.44,1.84,0,0-2.33.99-2.92,1.07-.42.05-.77-.03-1.03-.08.16,1.19.91,2.75,1.42,2.85ZM154,18.08s.97-.43,1.57-.59c.53-.14.94-.21,1.12-.21.4,0,.59.19.59.56,0,.63-.69,1.25-2.06,1.86-.24-.24-1.27-.4-1.27-.4,0,0,.11-.26.12-.63,0-.38-.08-.59-.08-.59Z"/><path class="cls-1" d="M142.18,23.06c.15-.94.7-1.79.7-1.79l-1.84,1.91-1.66,1.74.12-3.93s.64-.28.99-.43c.42-.18.7-.3.83-.35.84-.34,1.27-.67,1.27-.99,0-.18-.19-.42-.56-.71-.42-.32-.9-.47-1.42-.47-.29,0-.55.03-.79.08.18-1,.2-1.82.23-2.14.03-.45.29-1.4.31-1.55,0-.02,0-.03,0-.05.05-.21.11-.42.16-.63.08-.34.12-.53.12-.55,0-.55-.61-1.43-1.82-2.65-.55-.55-1.19-.83-1.9-.83-.13,0-.35.04-.67.12.4,1.37.64,2.39.75,3.04.1.74.16,5.89.16,6.23-.79.34-1.37.59-1.74.75-.55.21-1.04.39-1.46.55-.82.32-1.92.71-3.32,1.19l.16.24c.9.42,1.82.63,2.77.63.74,0,1.37-.09,1.9-.28.68-.23,1.73-.56,1.73-.56,0,0,0,1.2-.03,2.59-.03,1.39-.08,2.89-.08,2.89,0,0-2.1,1.86-2.89,2.57-1.45,1.34-2.32,2.2-2.61,2.57-.74.84-1.11,1.48-1.11,1.9s.76,1.23,2.29,2.41c.95.76,1.92,1.79,2.92,3.08.97,1.24,1.69,2.07,2.13,2.49.47.42.91.63,1.3.63.74,0,1.11-.76,1.11-2.29,0-.74-.83-8.62-.83-8.62-.05-.58-.08-1.71-.08-3.4.92-.9,1.53-1.74,1.82-2.53,0,0,.88-1.9,1.03-2.84ZM137.16,33.83c-.05,1.48-.23,3.57-.23,3.57,0,0-1.87-.46-2.85-1.01-1.69-.95-2.38-1.64-2.38-1.64,0,0,1.35-1.05,2.77-2.29,1.29-1.11,2.73-2.48,2.73-2.48,0,0,0,2.01-.05,3.84Z"/><path class="cls-1" d="M164.99,30.13c-.71-.55-1.44-.84-2.17-.87h-.04c-.05.03-.13.04-.24.04l-5.53.55c-.26.05-1.01.08-1.01.08,0,0-.78-.55-2.08-.88-2.28-.58-3.04-.62-3.04-.62,0,0,.8.91,1.07,1.98l-2.29.55-6.03,1.34c-.31.08-.8.17-1.25.17s-.74-.17-.74-.17c0,0,.21.67.63,1.27.42.6,1.2,1.19,1.78,1.19.42,0,1.24-.28,1.82-.52-1.21,1.69-1.82,3.1-1.82,4.23,0,.98.32,1.46.95,1.46.47,0,.85-.21,1.15-.63l1.54-2.61,1.61-2.63-1.69.94v.24c.11-.76.17-1.38.2-1.86.82-.34,1.52-.53,2.73-.9l1.78-.48s.1,1.04,0,3.59c-.11,2.56-.27,3.29-.27,3.29,0,0-.81.03-2.03-.16-1.36-.21-2.24-.98-2.24-.98,0,0,.31.78.9,1.35,1.24,1.08,1.87,1.51,3.21,2.8,1.11,1.11,2,1.66,2.68,1.66s1.08-.39,1.11-1.19l.08-3.6.16-5.85.12-1.42h2.09l1.82.08c1.71.03,2.91.16,3.6.4.71.24,1.3.35,1.78.35.79,0,1.19-.26,1.19-.79,0-.21-.5-.67-1.5-1.38Z"/><path class="cls-1" d="M162.73,33.93c-.47-.26-1.51-.55-2.53-.59-1.02-.04-1.85.38-1.85.38,0,0,.81.36,1.65.89.87.58,1.19,1.2,1.19,1.62s-.64,1.02-2.13,1.46c0,0,.46.12.75.08.29-.04.75-.08.91-.08.31,0,.67.13,1.06.4.92.5,1.53.75,1.82.75.84,0,1.27-.51,1.27-1.54,0-1.4-.71-2.52-2.13-3.36Z"/><path class="cls-1" d="M203.73,24.88c-1.32-.53-2.41-.79-3.28-.79-6.03,0-12,.58-15.82,1.74-3.66,1.11-5.94,1.66-6.84,1.66-.66,0-3.07-.22-3.07-.22,0,0,.3.87,1.25,1.61,1.08.82,1.94,1.22,2.57,1.22.5,0,2.11-.53,4.82-1.58,4.45-1.32,8.77-2.01,10.88-2.09.84,0,1.65.03,2.41.08.26.05.4.17.4.35-.11.45-5.41,2.96-5.41,2.96,0,0,5.93-2.04,7.59-2.17,1.61,0,3.15.11,4.62.32,1,0,1.71-.37,2.13-1.11,0-.74-.75-1.4-2.25-1.98Z"/><path class="cls-1" d="M222.56,35.21c-3.14-.8-2.31-7.04-.86-10.48.9-2.14,3.01-4.47,4.33-5.68,1.67-1.54,2.34-2.85,1.79-3.49-.55-.63-1.42-.81-2.21-.81-.57,0-1.42.31-2.55.94-1.27.68-2.95,1.39-4.01.68-2.62-1.74-.27-3.52-.27-3.52,0,0-4.48,3.27-1.34,5.66,1.63,1.24,4.98.15,4.98.15,0,0-4.78,6.46-4.84,13.35-.07,7.36,3.54,9.29,6.38,8.68,7.99-1.73,10.8-18.04,10.8-18.04,0,0-6.09,14.11-12.18,12.56Z"/><path class="cls-1" d="M239.13,22.94c-1.54-2.37-.66-8.02-.66-8.02,0,0-4.56,7.76.15,12.43,3.65,3.62,7.79-1.86,7.79-1.86,0,0-5.17.7-7.28-2.54Z"/><path class="cls-1" d="M273.99,36.87c-.91-.44-1.93-.52-3.46-.15-1.88.45-4.8,1.15-6.75,1.09-2.73-.09-5.65-.92-5.67-3.17-.02-1.76,1.17-3.66,3.15-5.42,2.7-2.35,10.91-6.15,11.57-6.58.66-.44.99-.96.99-1.55,0-.44-.3-.89-.89-1.36-1.63-1.19-4.52-1.65-4.52-1.65,0,0,.44.48.47,1.08.03.61-.67,1.47-2.02,2.44-.03.03-.08.07-.14.09-.63.41-1.12.75-1.46,1.03-.66.44-2.06,1.38-2.06,1.38,0,0-2.34-.54-2.87-2.27-.39-1.26-.07-2.75-1.14-4.25-1.14-1.6-4.44-1.99-4.44-1.99,0,0,1.65.45,2.5,3.66.49,1.85-.28,3.12.61,4.97.7,1.44,3.14,1.77,3.14,1.77,0,0-6.05,3.84-6.34,8.81-.12,2,1.04,3.93,3.39,5.13,3.01,1.53,10.48,1.21,13.6.64,1.02-.19,1.91-.49,2.65-.96.97-.62.63-2.25-.32-2.75Z"/><path class="cls-1" d="M297.94,13.01c0,.72-3.53,3.1-3.53,3.1,2.48-1.35,3.78-1.89,5.74-2.17,1.96-.28,3.2-.6,3.2-1.31,0-.79-.52-1.39-1.46-1.98-2.43-1.52-7.49.5-7.49.5,0,0,3.54,1.04,3.54,1.85Z"/><path class="cls-1" d="M309.66,37.78c-1.57-.33-5.01.24-6.4.3-1.91.08-2.92-.63-3.01-1.88l-.52-5.46c-.09-1.03-.72-1.55-1.88-1.55-.53,0-1.13.3-1.44.33,0,0,3.28-3.76,3.84-4.45l3.62-4.33c.71-.71.64-1.96.24-2.3-.5-.57-1.1-.85-1.79-.85-1.19,0-2.91.58-5.17,1.74-2.45,1.22-4.36,1.79-5.74,1.84-.92.03-1.6-1.18-1.6-1.18,0,0-.7,1.41-.7,2.73,0,1.85.5,2.78,1.5,2.78.38,0,1.08-.39,2.12-1.18,1.08-.88,5.41-2.96,5.41-2.96-.31.63-.66,1.3-1.04,2.02-.25.5-5.56,8.46-7.51,10.21-2.51,2.29-3.76,4-3.97,5.41-.29,1.9,1.67,3.68,3.21,2.07.63-.66,1.04-1.39,1.41-2.02,1.31-2.26,4.64-6.19,4.64-6.19,0,0,1.65-.4,1.84,1.08.05.41.12.8.19,1.17.25,2.29.72,3.94,1.41,4.94.69.97,1.71,1.44,3.06,1.41l6.05-.05c3.04-.06,4.54-.49,4.56-1.55.02-1.06-.94-1.8-2.33-2.08Z"/><path class="cls-1" d="M78,24.82c-.08,0-.17.01-.25.01h-.22c-.15,0-.36-.03-.62-.1v-.07c.55-.34,1.05-.58,1.5-.74l.03-.31c-.31.08-.55.11-.72.11-.22,0-.43-.04-.62-.13-.07-.03-.15-.06-.21-.08-.08-.04-.13-.06-.14-.06-.08-.02-.12-.07-.13-.14l1.81-.55c.03-.24.04-.45.04-.63,0-.41-.21-.76-.62-1.05l.04-.07c.36,0,.71.01,1.04.07.32.06.53.13.65.21.12.09.18.24.18.44,0,.1-.02.28-.06.52h.21c.67,0,1.01.13,1.01.38,0,.21-.26.36-.77.45-.07.02-.24.07-.49.14-.04.02-.08.03-.13.04l-.06.25s.06,0,.08-.01c.12,0,.21-.01.27-.01.14,0,.28.04.41.13.12.08.18.16.18.25,0,.07-.09.2-.28.36l-.48.27-.39.24-.11.51c.75-.25,1.21-.38,1.39-.38s.35.06.52.17c.27.17.41.29.41.35,0,.2-.37.32-1.11.38-.08,0-.15.02-.21.03-.13.02-.26.03-.39.04-.18.03-.35.05-.52.07l-.59.77c.41-.08.77-.13,1.07-.13.37,0,.63.14.77.42.14.27.21.77.2,1.49l.06,2.78v.31c.03.83-.15,1.25-.53,1.25-.2,0-.4-.09-.6-.28l-1.61-1.53c.06-.03.09-.04.1-.04.05,0,.18.07.41.22.16.1.47.16.94.17.05-.54.07-.92.07-1.14,0-.08,0-.24-.01-.49,0-.07-.01-.15-.01-.24-.32.37-.54.6-.67.7-.12.11-.28.21-.46.29-.15-.05-.31-.12-.48-.21,0,.59-.02.97-.03,1.15,0,.14-.03.28-.06.41-.08.29-.19.44-.34.44s-.29-.12-.42-.37c-.14-.24-.21-.49-.21-.74,0-.73.21-1.64.62-2.72.04-.11.11-.29.21-.53.03-.07.06-.14.08-.21-.1,0-.22-.01-.35-.01h-.18c-.22,0-.34-.05-.38-.17h.01c.28-.16.48-.26.59-.31.15-.07.35-.15.59-.22l.52-.83c-.91.33-1.53.59-1.87.77-.46.27-.74.41-.86.41-.23,0-.45-.13-.66-.38-.12-.16-.18-.28-.18-.37h0s.01-.08.01-.08c1.14-.1,2.15-.65,3.02-1.66ZM78.27,25.54l.06-.25-.8.52.74-.27ZM78.42,28.78c-.11,0-.25-.02-.42-.06h-.01l-.08.84c.21-.24.39-.51.52-.79ZM78.61,27.95c.16-.08.3-.13.44-.13.24,0,.36.12.36.35h0c0,.11-.02.19-.07.25-.06.07-.24.26-.55.59-.05.05-.14.16-.28.34-.04.05-.08.09-.11.14.25-.08.61-.34,1.08-.77v-.2h0v-.03h0v-.18c0-.1,0-.2.01-.28v-.22c0-.45-.13-.67-.38-.67-.07,0-.22.07-.45.2-.08.06-.22.11-.41.17l-.14.66c.23-.09.4-.16.49-.21ZM81.16,29.36c.17,0,.31-.03.44-.08.13-.07.37-.22.73-.46.39-.27.76-.57,1.11-.9v-.11l-1.38-.13-.03-.06c.31-.16.53-.28.67-.35.17-.08.37-.16.62-.25-.02-.16-.07-.34-.17-.53-.33.14-.56.25-.69.34-.09.06-.15.08-.18.08-.08,0-.16-.05-.24-.15-.08-.1-.2-.32-.37-.66.95-.43,1.67-1,2.15-1.7l.28-.41c.1-.18.15-.29.15-.34,0-.08-.03-.13-.1-.13-.04,0-.27.13-.7.39l-.84.53-.39.27h-.03s0,.01-.01.01h-.01c-.24,0-.36-.22-.36-.65,0-.13.01-.25.04-.37.6-.47.99-.8,1.18-.98l.66-.66c.25-.23.4-.39.45-.48.11-.18.22-.27.31-.28.04.28.06.46.06.55,0,.38-.21.78-.62,1.19.03,0,.06-.02.1-.03.2-.05.33-.08.39-.11.34-.11.59-.17.77-.17.06,0,.14.02.25.07.36.16.53.31.53.45,0,.08-.1.21-.29.41l-1.81,1.76c.72-.21,1.29-.31,1.71-.31.53,0,.99.08,1.38.25.37.17.56.37.56.62,0,.18-.14.45-.42.81,0,.02-.02.03-.04.04-.16.2-.29.34-.38.44l-.29.32-.58.59c-.06.08-.12.17-.18.25.21-.07.38-.1.52-.1.26,0,.51.07.73.21.29.17.44.31.44.44,0,.24-.22.36-.67.36h-.15c-.08,0-.2-.01-.38-.01h-.22c-.11,0-.22,0-.32.01-.41,0-.74.04-1,.08,0,.12-.01.23-.01.34v.22h0v.03c0,.27.01.63.04,1.08v.07c.03.52.04.85.04.97,0,.84-.35,1.34-1.05,1.5l-1.15.28c-.27.07-.64.2-1.11.39v-.08c.1-.07.23-.17.38-.28.04-.03.08-.06.11-.08.03-.03.06-.05.08-.07.66-.5,1.09-.91,1.26-1.24.18-.33.27-.88.28-1.67,0-.07,0-.21.01-.42,0-.12,0-.25.01-.38,0-.15,0-.29.01-.44-.22.07-.39.12-.52.17-.16.06-.32.12-.49.18-.05.02-.1.04-.15.06-.03,0-.06.02-.1.03-.07.03-.14.04-.2.04-.17,0-.3-.06-.39-.17l-.39-.48c-.05-.06-.07-.09-.06-.1v-.04h.03ZM83.44,28.85v-.38l-.76.55.76-.17ZM83.97,26.49c.2.12.32.18.37.18h.03s.04-.01.07-.01c.09-.02.18-.04.27-.06.03,0,.08-.01.14-.01.42,0,.63.11.63.32,0,.09-.05.19-.15.28-.1.09-.36.27-.76.53v.77c.56-.74,1-1.46,1.32-2.18.07-.18.11-.31.11-.39,0-.16-.06-.24-.18-.24h-.04c-.44,0-.79.05-1.05.11-.26.08-.66.24-1.19.51.18.05.33.11.45.18Z"/><path class="cls-1" d="M96.14,30.14s.13.05.24.14c.15.12.44.25.88.39.45.15.73.22.83.22.26,0,.44-.09.53-.27,0-.02.01-.1.01-.24,0-.18.01-.44.01-.79,0-.07,0-.19.01-.34v-3.52c.01-.29-.03-.79-.11-1.49-.08-.57-.2-.95-.37-1.14-.17-.2-.48-.29-.94-.29-.65,0-1.29.11-1.94.32-.12.04-.25.08-.38.13-.12.04-.24.08-.37.11-.13.05-.26.09-.38.13-.13.05-.26.09-.38.13-.43.13-.7.21-.8.24-.12.03-.22.04-.28.04-.12,0-.43-.07-.93-.21.35.63.52,1.15.52,1.56l-.2,2.78-.03,3.3c-.04.22-.12.32-.24.32-.15,0-.31-.15-.48-.44-.29-.5-.44-.88-.44-1.14,0-.06,0-.1.01-.14l.2-1.12.03-1c0-.07,0-.21.03-.44,0-.1.02-.21.03-.31.04-.38.07-.74.08-1.07,0-.13.02-.27.03-.41,0-.18.02-.29.03-.34,0-.07.02-.19.04-.34.03-.2.05-.34.06-.44.03-.19.05-.33.06-.42v-.07h0v-.03c0-.23.04-.37.11-.45.07-.07.26-.13.56-.2.05,0,.12-.03.22-.07.16-.05.37-.12.65-.21.17-.05.36-.11.56-.18.45-.15,1.1-.29,1.94-.44.83-.13,1.5-.2,2.01-.2.79,0,1.43.23,1.94.69.3.27.45.75.45,1.43l.03,3.48.06,2.08.07,1.67c0,.6-.17.9-.52.9-.27,0-.88-.34-1.84-1.03-.6-.43-1.17-.87-1.71-1.32.02,0,.05-.01.08-.01ZM94.54,28.27c.06-.47.08-.82.08-1.05h0v-.03h0v-.17c0-.09,0-.19-.01-.28-.28.09-.47.17-.58.22-.26.13-.43.2-.49.2-.31,0-.6-.15-.88-.45-.06-.07-.08-.15-.08-.21h0c.74-.16,1.36-.44,1.85-.86.5-.4.99-1.03,1.47-1.88-.28.19-.5.37-.66.53-.17.18-.38.46-.65.84-.25.36-.47.55-.65.55-.12,0-.23-.08-.34-.25-.1-.17-.15-.35-.15-.55,0-.31.14-.68.41-1.12h.06s0,.03.01.04v.04s.02.06.03.08v.06s.01.02.01.03h0c.04.29.13.42.27.42.11,0,.31-.13.59-.39.54-.47,1.1-.7,1.66-.7.37,0,.56.14.56.42,0,.14-.13.35-.39.62l-.44.46c-.14.15-.43.42-.87.8.15-.03.26-.06.32-.08.38-.11.59-.17.63-.18.07-.02.16-.03.25-.03.26,0,.49.04.69.13.2.09.29.2.29.31,0,.12-.07.21-.21.25-.15.06-.47.11-.97.17-.15.03-.29.06-.44.1l-.51.13c.26.1.39.26.39.46,0,.14-.04.33-.11.58-.06.14-.11.32-.15.53l1.12-.2c.11-.19.17-.36.17-.51,0-.11-.05-.2-.14-.27l-.2-.11s-.03-.02-.06-.07c0,0-.02-.02-.03-.03.11-.04.21-.06.28-.06.31,0,.58.06.83.18.24.12.37.26.37.41,0,.38-.32.86-.97,1.42-.44.38-.88.61-1.31.67v-.08c.28-.27.51-.55.69-.84-.7.13-1.24.26-1.6.39-.37.13-.73.31-1.07.55-.24.15-.41.22-.49.22-.13,0-.26-.08-.39-.25-.13-.16-.2-.32-.2-.49,0-.05,0-.1.03-.15.13-.37.32-.77.58-1.18.14-.22.22-.32.25-.32.07,0,.15.11.21.34.07.23.11.52.13.84.25-.06.51-.12.79-.2Z"/><path class="cls-1" d="M104.54,29.64c.23-.16.53-.4.88-.73.2-.2.42-.43.66-.7.23-.25.63-.71,1.19-1.36.22-.26.42-.5.6-.72.28-.33.57-.65.86-.98-.43.23-.74.4-.94.49-.23.11-.53.24-.9.38-.2,0-.43-.09-.7-.25-.26-.15-.43-.29-.51-.42.65-.26,1.2-.54,1.64-.83.43-.29.97-.73,1.61-1.33l.45-.41c.48-.48.86-.93,1.14-1.36-.64.11-1.17.39-1.6.84l-.7.7c-.26.26-.42.42-.48.46-.07.05-.15.07-.24.07-.13,0-.25-.11-.37-.34-.12-.22-.18-.46-.18-.7,0-.18.08-.51.25-.98h.13c.37.43.65.65.86.65.12,0,.42-.18.9-.53.53-.4,1.12-.6,1.77-.6.21,0,.53.06.98.18.26.07.39.15.39.27,0,.15-.08.29-.24.44-.37.34-.88.7-1.52,1.08l-2.09,1.25-.35.27c.95-.3,1.73-.61,2.36-.94.36-.2.63-.29.81-.29.07,0,.19,0,.38.03.6.17.9.37.9.62,0,.17-.13.3-.38.39l-.66.22c-.69.25-1.44.87-2.25,1.84l-.38.45-1.73,2.01c-.77.89-1.64,1.41-2.63,1.56h-.28c-.2,0-.42-.03-.66-.08l-.03-.07c.45-.21.79-.39,1.02-.55ZM107.29,30.41l-.04.49v.08c0,.16,0,.29.01.39.14-.07.27-.16.39-.27.23-.24.36-.37.38-.39.03-.02.08-.04.15-.06-.4.51-.69.95-.87,1.33.05.02.09.04.13.06.31.14.51.23.59.28.28.13.52.2.73.2.17,0,.25-.11.25-.34v-.21s.01-.83.01-.83v-.17c0-.23-.01-.59-.04-1.07l-.95.14c-.06,0-.13.01-.22.01h-.06l-.83-.11c-.3-.05-.45-.11-.45-.2v-.06l2.39-.59.13-.03c0-.43-.01-.73-.04-.91-.03-.18-.09-.31-.18-.39-.2-.18-.29-.29-.29-.34,0-.08.07-.13.2-.13.32,0,.71.15,1.18.45.33.21.49.51.49.91v.13c.28-.07.49-.11.63-.11.24,0,.53.06.86.18.28.12.42.24.42.35,0,.1-.1.18-.31.24-.2.06-.59.11-1.19.17-.08,0-.24.02-.48.07v.48s.04,2.65.04,2.65c.02.79-.15,1.18-.52,1.18-.2,0-.58-.25-1.15-.76-.13-.12-.32-.28-.58-.46-.17-.12-.45-.32-.84-.6-.19.31-.31.5-.38.58-.07.07-.14.11-.22.11-.36,0-.53-.21-.53-.62s.13-.77.39-1.14l.52-.72s.02-.04.04-.06c.07-.1.14-.15.2-.15.04.1.06.17.06.21ZM113.82,28.99c-.26,0-.62.06-1.07.18l-.04-.03v-.06c.29-.07.51-.13.67-.18.14-.06.31-.15.52-.29-.12-.12-.22-.21-.31-.27-.08-.05-.26-.13-.52-.25-.24-.12-.54-.25-.9-.39-.33-.13-.6-.23-.81-.29-.41-.11-.67-.19-.79-.22-.1-.04-.22-.1-.37-.18v-.07c0-.09.22-.14.66-.14,1.41,0,2.97.45,4.66,1.35.72.36,1.08.72,1.08,1.07,0,.21-.12.31-.35.31-.15,0-.33-.04-.53-.11-.08-.04-.27-.09-.55-.17-.08-.03-.15-.05-.22-.07-.49-.11-.87-.17-1.14-.17ZM112.63,30.59c.26.14.5.33.7.58.22.25.32.46.32.62,0,.23-.11.35-.32.35-.1,0-.34-.05-.7-.15-.09-.03-.21-.04-.34-.04-.21,0-.62.08-1.24.24v-.06c.72-.34,1.08-.58,1.08-.74,0-.05-.08-.14-.22-.28-.04-.04-.11-.1-.21-.2-.03-.03-.06-.05-.08-.07-.03-.02-.06-.04-.08-.06-.12-.08-.2-.14-.22-.15-.22-.09-.31-.17-.29-.24l.03-.08c.71,0,1.24.1,1.59.29Z"/></g></svg>